<?xml version="1.0" encoding="UTF-8" standalone="no"?>
<svg
        xmlns:dc="http://purl.org/dc/elements/1.1/"
        xmlns:cc="http://creativecommons.org/ns#"
        xmlns:rdf="http://www.w3.org/1999/02/22-rdf-syntax-ns#"
        xmlns:svg="http://www.w3.org/2000/svg"
        xmlns="http://www.w3.org/2000/svg"
        viewBox="0 0 1165.5732 1139.3333"
        height="1139.3333"
        width="1165.5732"
        xml:space="preserve"
        id="svg2"
        version="1.1"><metadata
     id="metadata8"><rdf:RDF><cc:Work
         rdf:about=""><dc:format>image/svg+xml</dc:format><dc:type
        rdf:resource="http://purl.org/dc/dcmitype/StillImage"/></cc:Work></rdf:RDF></metadata>
    <defs
            id="defs6"/>
    <g  
            transform="matrix(1.3333333,0,0,-1.3333333,0,1139.3333)"
            id="g10"><g 
       transform="scale(0.1)"
       id="g12"><path
         id="path14"
         style="fill:#f8dff1;fill-opacity:1;fill-rule:nonzero;stroke:none"
         d="m 8309.6,5171.71 c 68.37,-300.91 432.15,-577.36 432.15,-899.23 0,-321.86 -363.78,-598.32 -432.15,-899.22 -70.36,-310.89 135.74,-717.09 0,-997.54 C 8172.37,2090.29 7724.76,1998.97 7529.14,1753.95 7332.53,1507.94 7342.51,1051.34 7096.5,855.219 6851.48,659.609 6408.85,769.891 6123.92,632.16 5843.47,496.93 5654.34,80.75 5343.96,10.3906 5042.55,-57.9688 4692.74,233.449 4370.88,233.449 4049.51,233.449 3699.2,-57.9688 3398.29,10.3906 3087.41,80.75 2898.78,496.93 2618.33,632.66 c -284.93,137.231 -728.06,26.949 -972.58,222.559 -246.01,196.121 -236.53,652.721 -432.64,898.731 -195.62,245.02 -643.235,336.84 -780.962,621.77 -135.234,280.45 70.86,686.65 0,997.54 C 363.781,3674.16 0,3950.62 0,4272.48 c 0,321.87 363.781,598.32 432.148,899.23 70.86,310.88 -135.234,717.08 0,997.53 137.727,284.94 585.342,376.76 780.962,621.77 196.11,246.02 186.63,702.12 432.64,898.73 245.02,195.61 687.65,85.33 972.58,222.56 280.45,135.23 469.08,551.91 779.96,622.27 300.91,68.37 651.22,-223.06 972.59,-223.06 321.86,0 671.67,291.43 973.08,223.06 310.38,-70.36 499.51,-487.04 779.96,-622.27 284.93,-137.23 727.56,-26.95 972.58,-222.56 246.01,-196.61 236.03,-653.21 432.64,-899.23 195.62,-244.51 643.23,-336.33 780.46,-621.27 135.74,-280.45 -70.36,-686.65 0,-997.53" /><path
            id="path16"
            style="fill:#5e5080;fill-opacity:1;fill-rule:nonzero;stroke:none"
            d="m 3087.48,1893.15 c 0,-16.31 0.2,-38.1 0.63,-65.36 0,-1.45 -0.47,-2.7 -1.41,-3.72 -0.9,-1.03 -2.11,-1.56 -3.56,-1.56 h -0.63 c -1.21,0 -2.3,0.53 -3.24,1.56 -0.94,1.02 -1.37,2.18 -1.37,3.41 -0.43,15.08 -0.63,39.44 -0.63,73.12 0,41.3 0.39,81.25 1.21,119.88 -11.34,-27.26 -25.18,-63.5 -41.49,-108.74 -16.31,-45.23 -25.7,-73.72 -28.2,-85.49 -1.22,-3.11 -3.41,-4.44 -6.5,-4.03 -1.44,0.41 -2.54,1.19 -3.24,2.3 -0.74,1.14 -1.21,1.82 -1.41,2.02 -0.43,1.66 -6.14,15.55 -17.21,41.67 -11.03,26.13 -19.87,46.62 -26.48,61.51 -16.7,38.82 -30.23,68.66 -40.56,89.52 0,-10.95 -0.31,-26.34 -0.94,-46.17 v -4.03 c -0.82,-27.86 -1.25,-51.31 -1.25,-70.32 0,-7.22 0.12,-13.83 0.32,-19.81 v -17.37 c 0,-11.14 -0.2,-22.7 -0.63,-34.69 0,-1.45 -0.55,-2.62 -1.68,-3.56 -1.14,-0.92 -2.43,-1.29 -3.87,-1.07 -1.45,0 -2.66,0.51 -3.56,1.54 -0.94,1.04 -1.41,2.27 -1.41,3.72 0.39,9.91 0.62,17.97 0.62,24.17 v 9.6 17.35 20.12 c 0,15.7 0.32,39.15 0.94,70.32 0,2.29 0.08,3.74 0.32,4.35 0.58,28.51 0.9,50.49 0.9,65.98 0,1.44 0.5,2.64 1.56,3.58 1.02,0.92 2.27,1.38 3.72,1.38 1.25,0 2.26,-0.31 3.09,-0.93 1.01,-0.2 2.07,-1.04 3.09,-2.47 14.66,-29.33 30.97,-64.96 48.96,-106.89 2.66,-6.81 15.69,-37.18 39.04,-91.07 7.23,24.17 19.83,60.4 37.78,108.73 17.99,48.34 30.35,79.2 37.2,92.63 0.19,0.42 0.82,1.14 1.83,2.18 1.02,2.05 2.59,3.09 4.66,3.09 1.64,0 2.97,-0.61 4.03,-1.86 1.01,-0.82 1.56,-2.08 1.56,-3.72 -1.45,-52.25 -2.19,-102.53 -2.19,-150.87"/><path
            id="path18"
            style="fill:none;stroke:#5e5180;stroke-width:10.01270008;stroke-linecap:butt;stroke-linejoin:miter;stroke-miterlimit:10;stroke-dasharray:none;stroke-opacity:1"
            d="m 3087.48,1893.15 c 0,-16.31 0.2,-38.1 0.63,-65.36 0,-1.45 -0.47,-2.7 -1.41,-3.72 -0.9,-1.03 -2.11,-1.56 -3.56,-1.56 h -0.63 c -1.21,0 -2.3,0.53 -3.24,1.56 -0.94,1.02 -1.37,2.18 -1.37,3.41 -0.43,15.08 -0.63,39.44 -0.63,73.12 0,41.3 0.39,81.25 1.21,119.88 -11.34,-27.26 -25.18,-63.5 -41.49,-108.74 -16.31,-45.23 -25.7,-73.72 -28.2,-85.49 -1.22,-3.11 -3.41,-4.44 -6.5,-4.03 -1.44,0.41 -2.54,1.19 -3.24,2.3 -0.74,1.14 -1.21,1.82 -1.41,2.02 -0.43,1.66 -6.14,15.55 -17.21,41.67 -11.03,26.13 -19.87,46.62 -26.48,61.51 -16.7,38.82 -30.23,68.66 -40.56,89.52 0,-10.95 -0.31,-26.34 -0.94,-46.17 v -4.03 c -0.82,-27.86 -1.25,-51.31 -1.25,-70.32 0,-7.22 0.12,-13.83 0.32,-19.81 v -17.37 c 0,-11.14 -0.2,-22.7 -0.63,-34.69 0,-1.45 -0.55,-2.62 -1.68,-3.56 -1.14,-0.92 -2.43,-1.29 -3.87,-1.07 -1.45,0 -2.66,0.51 -3.56,1.54 -0.94,1.04 -1.41,2.27 -1.41,3.72 0.39,9.91 0.62,17.97 0.62,24.17 v 9.6 17.35 20.12 c 0,15.7 0.32,39.15 0.94,70.32 0,2.29 0.08,3.74 0.32,4.35 0.58,28.51 0.9,50.49 0.9,65.98 0,1.44 0.5,2.64 1.56,3.58 1.02,0.92 2.27,1.38 3.72,1.38 1.25,0 2.26,-0.31 3.09,-0.93 1.01,-0.2 2.07,-1.04 3.09,-2.47 14.66,-29.33 30.97,-64.96 48.96,-106.89 2.66,-6.81 15.69,-37.18 39.04,-91.07 7.23,24.17 19.83,60.4 37.78,108.73 17.99,48.34 30.35,79.2 37.2,92.63 0.19,0.42 0.82,1.14 1.83,2.18 1.02,2.05 2.59,3.09 4.66,3.09 1.64,0 2.97,-0.61 4.03,-1.86 1.01,-0.82 1.56,-2.08 1.56,-3.72 -1.45,-52.25 -2.19,-102.53 -2.19,-150.87 z"/><path
            id="path20"
            style="fill:#5e5080;fill-opacity:1;fill-rule:nonzero;stroke:none"
            d="m 3263.45,1980.82 c -8.49,24.58 -15.1,42.14 -19.83,52.66 -3.95,-13.22 -9.43,-28.81 -16.43,-46.78 -0.2,0 -1.06,-2.05 -2.46,-6.18 l 16.7,-0.62 c 9.11,0 16.42,0.31 22.02,0.92 z m 64.1,-154.89 c 0,-2.07 -1.13,-3.62 -3.4,-4.65 -1.25,-0.41 -2.08,-0.63 -2.47,-0.63 -1.68,0 -3.2,1.04 -4.65,3.11 -3.52,8.47 -11.34,30.76 -23.55,66.92 l -2.46,7.12 -4.65,13.63 -6.22,19.52 c -0.82,2.05 -1.33,3.62 -1.53,4.65 l -5.28,16.72 -6.18,18.29 c -7.86,-1.04 -16.54,-1.45 -26.05,-1.25 -3.71,0 -7,0.09 -9.89,0.31 -3.33,0.21 -6.93,0.31 -10.84,0.31 -20.65,-54.93 -36.37,-102.84 -47.09,-143.73 -0.43,-1.04 -1.13,-1.92 -2.19,-2.64 -1.01,-0.73 -2.07,-1.1 -3.09,-1.1 -1.64,0 -2.97,0.63 -4.03,1.88 -1.01,1.23 -1.44,2.87 -1.25,4.94 11.58,43.79 28.63,94.91 51.12,153.34 0.43,0 1.06,1.45 1.88,4.35 0.62,1.03 0.98,1.91 1.09,2.64 0.08,0.72 0.24,1.19 0.47,1.38 8.02,20.66 13.61,36.77 16.7,48.33 l 0.32,0.31 v 0.94 l 0.62,3.09 c 0.2,0.41 0.32,0.94 0.32,1.54 l 0.93,2.8 c 0.4,1.04 1.02,1.86 1.84,2.48 1.06,1.24 2.27,1.86 3.72,1.86 1.64,0 3.21,-0.72 4.65,-2.17 1.02,-0.82 1.88,-1.86 2.47,-3.11 1.05,-1.23 2.38,-3.71 4.03,-7.43 1.87,-3.91 5.16,-12.28 9.93,-25.09 6.18,-16.53 14.86,-41.71 26.01,-75.58 l 1.56,-4.66 4.97,-15.17 c 3.48,-10.55 5.44,-16.43 5.87,-17.66 1.25,-3.31 2.07,-5.89 2.46,-7.75 12.4,-36.14 20.14,-58.04 23.23,-65.67 0.44,-0.84 0.63,-1.56 0.63,-2.17"/><path
            id="path22"
            style="fill:none;stroke:#5e5180;stroke-width:10.01270008;stroke-linecap:butt;stroke-linejoin:miter;stroke-miterlimit:10;stroke-dasharray:none;stroke-opacity:1"
            d="m 3263.45,1980.82 c -8.49,24.58 -15.1,42.14 -19.83,52.66 -3.95,-13.22 -9.43,-28.81 -16.43,-46.78 -0.2,0 -1.06,-2.05 -2.46,-6.18 l 16.7,-0.62 c 9.11,0 16.42,0.31 22.02,0.92 z m 64.1,-154.89 c 0,-2.07 -1.13,-3.62 -3.4,-4.65 -1.25,-0.41 -2.08,-0.63 -2.47,-0.63 -1.68,0 -3.2,1.04 -4.65,3.11 -3.52,8.47 -11.34,30.76 -23.55,66.92 l -2.46,7.12 -4.65,13.63 -6.22,19.52 c -0.82,2.05 -1.33,3.62 -1.53,4.65 l -5.28,16.72 -6.18,18.29 c -7.86,-1.04 -16.54,-1.45 -26.05,-1.25 -3.71,0 -7,0.09 -9.89,0.31 -3.33,0.21 -6.93,0.31 -10.84,0.31 -20.65,-54.93 -36.37,-102.84 -47.09,-143.73 -0.43,-1.04 -1.13,-1.92 -2.19,-2.64 -1.01,-0.73 -2.07,-1.1 -3.09,-1.1 -1.64,0 -2.97,0.63 -4.03,1.88 -1.01,1.23 -1.44,2.87 -1.25,4.94 11.58,43.79 28.63,94.91 51.12,153.34 0.43,0 1.06,1.45 1.88,4.35 0.62,1.03 0.98,1.91 1.09,2.64 0.08,0.72 0.24,1.19 0.47,1.38 8.02,20.66 13.61,36.77 16.7,48.33 l 0.32,0.31 v 0.94 l 0.62,3.09 c 0.2,0.41 0.32,0.94 0.32,1.54 l 0.93,2.8 c 0.4,1.04 1.02,1.86 1.84,2.48 1.06,1.24 2.27,1.86 3.72,1.86 1.64,0 3.21,-0.72 4.65,-2.17 1.02,-0.82 1.88,-1.86 2.47,-3.11 1.05,-1.23 2.38,-3.71 4.03,-7.43 1.87,-3.91 5.16,-12.28 9.93,-25.09 6.18,-16.53 14.86,-41.71 26.01,-75.58 l 1.56,-4.66 4.97,-15.17 c 3.48,-10.55 5.44,-16.43 5.87,-17.66 1.25,-3.31 2.07,-5.89 2.46,-7.75 12.4,-36.14 20.14,-58.04 23.23,-65.67 0.44,-0.84 0.63,-1.56 0.63,-2.17 z"/><path
            id="path24"
            style="fill:#5e5080;fill-opacity:1;fill-rule:nonzero;stroke:none"
            d="m 3416.18,2003.76 0.62,-32.86 0.63,-33.75 c 0.82,-54.95 1.72,-88.61 2.78,-101.01 46.27,4.56 81.47,18.6 105.64,42.14 9.07,8.88 16,18.7 20.73,29.44 4.77,10.73 7.16,21.88 7.16,33.46 0,14.64 -3.64,28.55 -10.88,41.65 -7.23,13.12 -17.32,24.21 -30.35,33.3 -22.49,15.9 -49.48,23.86 -80.84,23.86 -3.52,0 -9,-0.21 -16.43,-0.62 z m 15.17,46.77 c 33.44,0 62.47,-8.58 87.07,-25.71 12.79,-9.29 23.11,-20.24 30.97,-32.84 7.83,-12.61 12.6,-26.12 14.24,-40.6 0.43,-4.53 0.63,-8.03 0.63,-10.52 0,-12.81 -2.7,-25.24 -8.06,-37.33 -5.36,-12.09 -13.1,-22.98 -23.23,-32.68 -26.01,-25.4 -64.34,-40.48 -114.95,-45.23 -1.65,0 -2.98,0.51 -4.03,1.54 -2.47,0.42 -3.8,1.96 -4.03,4.66 -0.82,8.06 -1.84,43.16 -3.09,105.33 0,8.47 -0.16,19.67 -0.47,33.61 -0.31,13.93 -0.55,24.82 -0.74,32.68 -0.24,21.48 -0.55,34.48 -0.94,39.04 0,2.05 0.94,3.5 2.78,4.34 0.62,1.43 1.87,2.36 3.71,2.78 6.81,0.62 13.53,0.93 20.14,0.93"/><path
            id="path26"
            style="fill:none;stroke:#5e5180;stroke-width:10.01270008;stroke-linecap:butt;stroke-linejoin:miter;stroke-miterlimit:10;stroke-dasharray:none;stroke-opacity:1"
            d="m 3416.18,2003.76 0.62,-32.86 0.63,-33.75 c 0.82,-54.95 1.72,-88.61 2.78,-101.01 46.27,4.56 81.47,18.6 105.64,42.14 9.07,8.88 16,18.7 20.73,29.44 4.77,10.73 7.16,21.88 7.16,33.46 0,14.64 -3.64,28.55 -10.88,41.65 -7.23,13.12 -17.32,24.21 -30.35,33.3 -22.49,15.9 -49.48,23.86 -80.84,23.86 -3.52,0 -9,-0.21 -16.43,-0.62 z m 15.17,46.77 c 33.44,0 62.47,-8.58 87.07,-25.71 12.79,-9.29 23.11,-20.24 30.97,-32.84 7.83,-12.61 12.6,-26.12 14.24,-40.6 0.43,-4.53 0.63,-8.03 0.63,-10.52 0,-12.81 -2.7,-25.24 -8.06,-37.33 -5.36,-12.09 -13.1,-22.98 -23.23,-32.68 -26.01,-25.4 -64.34,-40.48 -114.95,-45.23 -1.65,0 -2.98,0.51 -4.03,1.54 -2.47,0.42 -3.8,1.96 -4.03,4.66 -0.82,8.06 -1.84,43.16 -3.09,105.33 0,8.47 -0.16,19.67 -0.47,33.61 -0.31,13.93 -0.55,24.82 -0.74,32.68 -0.24,21.48 -0.55,34.48 -0.94,39.04 0,2.05 0.94,3.5 2.78,4.34 0.62,1.43 1.87,2.36 3.71,2.78 6.81,0.62 13.53,0.93 20.14,0.93 z"/><path
            id="path28"
            style="fill:#5e5080;fill-opacity:1;fill-rule:nonzero;stroke:none"
            d="m 3683.55,2052.08 17.64,-0.31 c 13.65,0 26.44,0.19 38.41,0.62 h 0.62 c 1.25,0 2.31,-0.47 3.25,-1.41 0.94,-0.92 1.48,-2.11 1.72,-3.56 0,-1.44 -0.47,-2.67 -1.41,-3.71 -0.94,-1.04 -2.11,-1.55 -3.56,-1.55 -8.68,-0.41 -17.44,-0.62 -26.32,-0.62 h -13.02 c -11.78,0 -23.04,-0.2 -33.76,-0.61 v -13.94 c 0,-7.86 -0.23,-22.1 -0.62,-42.75 2.89,-0.22 8.44,-0.31 16.74,-0.31 1.83,0 3.59,-0.12 5.24,-0.32 l 28.51,-0.94 c 1.45,0 2.62,-0.5 3.56,-1.54 0.94,-1.04 1.41,-2.27 1.41,-3.72 -0.24,-1.64 -0.82,-2.93 -1.88,-3.87 -1.02,-0.92 -2.27,-1.29 -3.72,-1.07 -2.07,0.19 -6.8,0.31 -14.23,0.31 l -13.97,0.29 c -1.44,0.22 -3.09,0.32 -4.92,0.32 -8.49,0 -14.16,0.09 -17.06,0.31 0,-5.99 -0.11,-10.64 -0.31,-13.95 l -1.56,-34.37 c -1.65,-44.61 -2.47,-75.08 -2.47,-91.39 6.81,-0.22 19.95,0 39.35,0.61 h 2.15 l 41.54,0.62 c 1.44,0 2.66,-0.53 3.71,-1.54 1.02,-1.04 1.57,-2.29 1.57,-3.72 0,-1.45 -0.55,-2.7 -1.57,-3.71 -1.05,-1.04 -2.27,-1.57 -3.71,-1.57 -6.81,0.22 -20.58,0 -41.23,-0.61 h -2.15 c -15.29,-0.43 -25.11,-0.62 -29.45,-0.62 l -13.92,0.31 c -0.43,-0.21 -0.94,-0.31 -1.57,-0.31 -1.45,0 -2.66,0.51 -3.71,1.54 -1.02,1.04 -1.53,2.27 -1.53,3.72 0,21.08 0.94,53.39 2.78,96.98 l 1.25,34.38 c 0.82,22.92 1.21,45.23 1.21,66.92 v 17.03 c -0.19,0.41 -0.27,0.94 -0.27,1.55 v 0.62 c 0,1.23 0.51,2.37 1.52,3.41 1.06,1.03 2.19,1.54 3.41,1.54 7.23,0.63 14.66,0.94 22.33,0.94"/><path
            id="path30"
            style="fill:none;stroke:#5e5180;stroke-width:10.01270008;stroke-linecap:butt;stroke-linejoin:miter;stroke-miterlimit:10;stroke-dasharray:none;stroke-opacity:1"
            d="m 3683.55,2052.08 17.64,-0.31 c 13.65,0 26.44,0.19 38.41,0.62 h 0.62 c 1.25,0 2.31,-0.47 3.25,-1.41 0.94,-0.92 1.48,-2.11 1.72,-3.56 0,-1.44 -0.47,-2.67 -1.41,-3.71 -0.94,-1.04 -2.11,-1.55 -3.56,-1.55 -8.68,-0.41 -17.44,-0.62 -26.32,-0.62 h -13.02 c -11.78,0 -23.04,-0.2 -33.76,-0.61 v -13.94 c 0,-7.86 -0.23,-22.1 -0.62,-42.75 2.89,-0.22 8.44,-0.31 16.74,-0.31 1.83,0 3.59,-0.12 5.24,-0.32 l 28.51,-0.94 c 1.45,0 2.62,-0.5 3.56,-1.54 0.94,-1.04 1.41,-2.27 1.41,-3.72 -0.24,-1.64 -0.82,-2.93 -1.88,-3.87 -1.02,-0.92 -2.27,-1.29 -3.72,-1.07 -2.07,0.19 -6.8,0.31 -14.23,0.31 l -13.97,0.29 c -1.44,0.22 -3.09,0.32 -4.92,0.32 -8.49,0 -14.16,0.09 -17.06,0.31 0,-5.99 -0.11,-10.64 -0.31,-13.95 l -1.56,-34.37 c -1.65,-44.61 -2.47,-75.08 -2.47,-91.39 6.81,-0.22 19.95,0 39.35,0.61 h 2.15 l 41.54,0.62 c 1.44,0 2.66,-0.53 3.71,-1.54 1.02,-1.04 1.57,-2.29 1.57,-3.72 0,-1.45 -0.55,-2.7 -1.57,-3.71 -1.05,-1.04 -2.27,-1.57 -3.71,-1.57 -6.81,0.22 -20.58,0 -41.23,-0.61 h -2.15 c -15.29,-0.43 -25.11,-0.62 -29.45,-0.62 l -13.92,0.31 c -0.43,-0.21 -0.94,-0.31 -1.57,-0.31 -1.45,0 -2.66,0.51 -3.71,1.54 -1.02,1.04 -1.53,2.27 -1.53,3.72 0,21.08 0.94,53.39 2.78,96.98 l 1.25,34.38 c 0.82,22.92 1.21,45.23 1.21,66.92 v 17.03 c -0.19,0.41 -0.27,0.94 -0.27,1.55 v 0.62 c 0,1.23 0.51,2.37 1.52,3.41 1.06,1.03 2.19,1.54 3.41,1.54 7.23,0.63 14.66,0.94 22.33,0.94 z"/><path
            id="path32"
            style="fill:#5e5080;fill-opacity:1;fill-rule:nonzero;stroke:none"
            d="m 4249.34,2042.63 c 0.94,-1.35 1.22,-2.73 0.79,-4.18 -3.33,-14.45 -13.22,-49.17 -29.73,-104.1 l -0.62,0.31 -0.32,-0.62 0.63,-0.3 c -17.56,-59.29 -27.89,-95.72 -30.98,-109.35 0.2,-0.43 0.31,-1.04 0.31,-1.88 0,-1.64 -0.58,-3.09 -1.72,-4.32 -1.13,-1.25 -2.62,-1.86 -4.49,-1.86 -2.7,0 -4.97,2.37 -6.81,7.12 l -1.56,4.95 -1.84,7.45 c -1.25,3.28 -2.82,8.19 -4.66,14.7 -1.87,6.52 -3.4,11.93 -4.65,16.27 l -0.94,2.49 -8.33,28.8 c -12.01,40.07 -22.02,82.71 -30.08,127.94 -4.53,-14.45 -8.45,-27.67 -11.77,-39.64 l -0.31,-0.63 -4.66,-15.8 c -10.91,-37.17 -19.51,-65.67 -25.69,-85.5 -6.18,-19.83 -12.72,-39.56 -19.52,-59.17 -0.63,-1.45 -1.49,-2.43 -2.62,-2.94 -1.14,-0.53 -2.35,-0.56 -3.56,-0.15 l -1.25,0.29 c -2.08,0.22 -3.41,1.35 -4.03,3.42 -4.34,12.79 -8.76,27.36 -13.34,43.67 -4.54,16.33 -9.39,34.4 -14.55,54.23 -0.62,1.64 -0.94,2.87 -0.94,3.72 -7.62,28.49 -13.76,50.65 -18.42,66.45 -4.65,15.8 -9.74,31.33 -15.33,46.62 -0.2,0.41 -0.31,1.04 -0.31,1.86 0,2.27 1.13,3.91 3.4,4.94 0.43,0.22 1.06,0.32 1.88,0.32 2.27,0 3.91,-1.14 4.92,-3.41 5.6,-15.48 10.8,-31.44 15.65,-47.87 4.85,-16.41 11.03,-38.47 18.46,-66.14 l 0.63,-3.4 c 9.46,-35.94 17.44,-64.34 23.82,-85.19 6.41,18.99 13.29,40.47 20.61,64.44 7.35,23.96 15.53,51.41 24.64,82.39 0.19,0 0.31,0.31 0.31,0.94 3.72,12.4 5.48,18.28 5.24,17.66 4.58,16.11 8.61,29.94 12.09,41.52 l 0.31,0.6 c 0,3.31 1.57,5.07 4.66,5.28 h 0.62 c 1.45,0 2.62,-0.43 3.56,-1.25 0.94,-0.82 1.49,-1.86 1.72,-3.09 9.47,-55.97 20.73,-105.64 33.75,-149.02 l 8.69,-28.49 0.94,-2.8 4.61,-16.11 3.72,-12.69 2.81,10.23 c 0.63,2.05 1.33,4.59 2.15,7.58 0.83,3 1.88,6.56 3.09,10.68 l 19.83,67.55 0.63,-0.32 0.31,0.63 -0.62,0.29 c 16.31,54.33 26.24,88.61 29.76,102.87 0.2,2.68 1.84,4.03 4.93,4.03 1.88,0 3.25,-0.69 4.18,-2.02"/><path
            id="path34"
            style="fill:none;stroke:#5e5180;stroke-width:10.01270008;stroke-linecap:butt;stroke-linejoin:miter;stroke-miterlimit:10;stroke-dasharray:none;stroke-opacity:1"
            d="m 4249.34,2042.63 c 0.94,-1.35 1.22,-2.73 0.79,-4.18 -3.33,-14.45 -13.22,-49.17 -29.73,-104.1 l -0.62,0.31 -0.32,-0.62 0.63,-0.3 c -17.56,-59.29 -27.89,-95.72 -30.98,-109.35 0.2,-0.43 0.31,-1.04 0.31,-1.88 0,-1.64 -0.58,-3.09 -1.72,-4.32 -1.13,-1.25 -2.62,-1.86 -4.49,-1.86 -2.7,0 -4.97,2.37 -6.81,7.12 l -1.56,4.95 -1.84,7.45 c -1.25,3.28 -2.82,8.19 -4.66,14.7 -1.87,6.52 -3.4,11.93 -4.65,16.27 l -0.94,2.49 -8.33,28.8 c -12.01,40.07 -22.02,82.71 -30.08,127.94 -4.53,-14.45 -8.45,-27.67 -11.77,-39.64 l -0.31,-0.63 -4.66,-15.8 c -10.91,-37.17 -19.51,-65.67 -25.69,-85.5 -6.18,-19.83 -12.72,-39.56 -19.52,-59.17 -0.63,-1.45 -1.49,-2.43 -2.62,-2.94 -1.14,-0.53 -2.35,-0.56 -3.56,-0.15 l -1.25,0.29 c -2.08,0.22 -3.41,1.35 -4.03,3.42 -4.34,12.79 -8.76,27.36 -13.34,43.67 -4.54,16.33 -9.39,34.4 -14.55,54.23 -0.62,1.64 -0.94,2.87 -0.94,3.72 -7.62,28.49 -13.76,50.65 -18.42,66.45 -4.65,15.8 -9.74,31.33 -15.33,46.62 -0.2,0.41 -0.31,1.04 -0.31,1.86 0,2.27 1.13,3.91 3.4,4.94 0.43,0.22 1.06,0.32 1.88,0.32 2.27,0 3.91,-1.14 4.92,-3.41 5.6,-15.48 10.8,-31.44 15.65,-47.87 4.85,-16.41 11.03,-38.47 18.46,-66.14 l 0.63,-3.4 c 9.46,-35.94 17.44,-64.34 23.82,-85.19 6.41,18.99 13.29,40.47 20.61,64.44 7.35,23.96 15.53,51.41 24.64,82.39 0.19,0 0.31,0.31 0.31,0.94 3.72,12.4 5.48,18.28 5.24,17.66 4.58,16.11 8.61,29.94 12.09,41.52 l 0.31,0.6 c 0,3.31 1.57,5.07 4.66,5.28 h 0.62 c 1.45,0 2.62,-0.43 3.56,-1.25 0.94,-0.82 1.49,-1.86 1.72,-3.09 9.47,-55.97 20.73,-105.64 33.75,-149.02 l 8.69,-28.49 0.94,-2.8 4.61,-16.11 3.72,-12.69 2.81,10.23 c 0.63,2.05 1.33,4.59 2.15,7.58 0.83,3 1.88,6.56 3.09,10.68 l 19.83,67.55 0.63,-0.32 0.31,0.63 -0.62,0.29 c 16.31,54.33 26.24,88.61 29.76,102.87 0.2,2.68 1.84,4.03 4.93,4.03 1.88,0 3.25,-0.69 4.18,-2.02 z"/><path
            id="path36"
            style="fill:#5e5080;fill-opacity:1;fill-rule:nonzero;stroke:none"
            d="m 4360.74,1934.66 v -24.77 c 0,-7.65 0.11,-13.32 0.31,-17.06 l 0.31,-65.35 v -0.94 c -1.45,-2.47 -3.21,-3.72 -5.28,-3.72 -1.45,0 -2.74,0.47 -3.87,1.41 -1.13,0.92 -1.49,1.49 -1.06,1.7 -0.23,0.2 -0.31,0.73 -0.31,1.55 0,32.62 -0.12,60 -0.31,82.09 -0.2,3.72 -0.32,12.09 -0.32,25.09 -0.62,46.88 -0.93,82.1 -0.93,105.65 0.19,2.48 0.93,4.44 2.19,5.88 1.21,1.45 2.46,2.17 3.71,2.17 1.45,0 2.62,-0.68 3.56,-2.01 0.94,-1.35 1.29,-3.25 1.06,-5.73 0,-23.55 0.31,-58.86 0.94,-105.96"/><path
            id="path38"
            style="fill:none;stroke:#5e5180;stroke-width:10.01270008;stroke-linecap:butt;stroke-linejoin:miter;stroke-miterlimit:10;stroke-dasharray:none;stroke-opacity:1"
            d="m 4360.74,1934.66 v -24.77 c 0,-7.65 0.11,-13.32 0.31,-17.06 l 0.31,-65.35 v -0.94 c -1.45,-2.47 -3.21,-3.72 -5.28,-3.72 -1.45,0 -2.74,0.47 -3.87,1.41 -1.13,0.92 -1.49,1.49 -1.06,1.7 -0.23,0.2 -0.31,0.73 -0.31,1.55 0,32.62 -0.12,60 -0.31,82.09 -0.2,3.72 -0.32,12.09 -0.32,25.09 -0.62,46.88 -0.93,82.1 -0.93,105.65 0.19,2.48 0.93,4.44 2.19,5.88 1.21,1.45 2.46,2.17 3.71,2.17 1.45,0 2.62,-0.68 3.56,-2.01 0.94,-1.35 1.29,-3.25 1.06,-5.73 0,-23.55 0.31,-58.86 0.94,-105.96 z"/><path
            id="path40"
            style="fill:#5e5080;fill-opacity:1;fill-rule:nonzero;stroke:none"
            d="m 4612.89,2046.97 c 1.02,-0.93 1.57,-2.13 1.57,-3.57 0,-1.65 -0.47,-3 -1.41,-4.03 -0.94,-1.04 -2.11,-1.55 -3.56,-1.55 h -6.81 c -7.43,-0.19 -19.83,-0.31 -37.19,-0.31 h -17.33 -1.88 -0.94 c 0,-22.29 -0.39,-49.87 -1.21,-82.7 -0.23,-5.58 -0.31,-11.89 -0.31,-18.91 -0.63,-26.23 -0.94,-49.46 -0.94,-69.7 0,-10.74 0.2,-23.74 0.63,-39.04 0,-1.44 -0.47,-2.67 -1.41,-3.71 -0.94,-1.04 -2.11,-1.55 -3.56,-1.55 -1.45,0 -2.7,0.47 -3.72,1.39 -1.01,0.94 -1.64,2.11 -1.87,3.56 -0.2,8.27 -0.28,22.41 -0.28,42.46 0,27.86 0.2,50.18 0.59,66.9 0,7.02 0.12,13.32 0.31,18.91 0.82,32.83 1.25,60.29 1.25,82.39 v 0.31 l -45.52,0.63 c -8.06,0 -13.77,0.1 -17.06,0.31 -1.44,0 -2.62,0.51 -3.55,1.55 -0.94,1.03 -1.41,2.26 -1.41,3.71 0,1.45 0.51,2.68 1.56,3.72 1.02,1.03 2.27,1.54 3.72,1.54 3.09,-0.19 8.68,-0.29 16.74,-0.29 37.78,-0.63 64.85,-0.94 81.15,-0.94 14.05,0 24.68,0.1 31.92,0.31 h 6.81 c 1.44,0 2.69,-0.47 3.71,-1.39"/><path
            id="path42"
            style="fill:none;stroke:#5e5180;stroke-width:10.01270008;stroke-linecap:butt;stroke-linejoin:miter;stroke-miterlimit:10;stroke-dasharray:none;stroke-opacity:1"
            d="m 4612.89,2046.97 c 1.02,-0.93 1.57,-2.13 1.57,-3.57 0,-1.65 -0.47,-3 -1.41,-4.03 -0.94,-1.04 -2.11,-1.55 -3.56,-1.55 h -6.81 c -7.43,-0.19 -19.83,-0.31 -37.19,-0.31 h -17.33 -1.88 -0.94 c 0,-22.29 -0.39,-49.87 -1.21,-82.7 -0.23,-5.58 -0.31,-11.89 -0.31,-18.91 -0.63,-26.23 -0.94,-49.46 -0.94,-69.7 0,-10.74 0.2,-23.74 0.63,-39.04 0,-1.44 -0.47,-2.67 -1.41,-3.71 -0.94,-1.04 -2.11,-1.55 -3.56,-1.55 -1.45,0 -2.7,0.47 -3.72,1.39 -1.01,0.94 -1.64,2.11 -1.87,3.56 -0.2,8.27 -0.28,22.41 -0.28,42.46 0,27.86 0.2,50.18 0.59,66.9 0,7.02 0.12,13.32 0.31,18.91 0.82,32.83 1.25,60.29 1.25,82.39 v 0.31 l -45.52,0.63 c -8.06,0 -13.77,0.1 -17.06,0.31 -1.44,0 -2.62,0.51 -3.55,1.55 -0.94,1.03 -1.41,2.26 -1.41,3.71 0,1.45 0.51,2.68 1.56,3.72 1.02,1.03 2.27,1.54 3.72,1.54 3.09,-0.19 8.68,-0.29 16.74,-0.29 37.78,-0.63 64.85,-0.94 81.15,-0.94 14.05,0 24.68,0.1 31.92,0.31 h 6.81 c 1.44,0 2.69,-0.47 3.71,-1.39 z"/><path
            id="path44"
            style="fill:#5e5080;fill-opacity:1;fill-rule:nonzero;stroke:none"
            d="m 4844.63,1977.41 v -2.77 l -0.63,-68.18 v -5.86 c -0.23,-18.82 -0.31,-41.11 -0.31,-66.92 0,-1.45 -0.51,-2.7 -1.56,-3.72 -1.02,-1.04 -2.27,-1.56 -3.72,-1.56 -1.45,0 -2.7,0.52 -3.71,1.56 -1.02,1.02 -1.53,2.27 -1.53,3.72 0,25.81 0.08,48.1 0.27,66.92 0,2.05 0.12,4.01 0.32,5.86 0.23,18.19 0.31,39.66 0.31,64.44 l -68.13,-0.92 c -3.72,-0.21 -7.86,-0.31 -12.4,-0.31 -5.79,0 -10.01,-0.1 -12.71,-0.31 l -43.38,-0.32 c -0.62,-37.78 -0.94,-82.82 -0.94,-135.05 0,-1.45 -0.43,-2.7 -1.37,-3.72 -0.93,-1.03 -2.11,-1.56 -3.55,-1.56 -1.45,0 -2.7,0.53 -3.72,1.56 -1.06,1.02 -1.57,2.27 -1.57,3.72 0,54.09 0.32,100.46 0.94,139.08 l -0.31,1.25 0.31,1.24 c 0.39,29.53 0.82,51.62 1.26,66.29 0,1.45 0.5,2.64 1.52,3.56 1.06,0.94 2.27,1.41 3.72,1.41 1.44,0 2.69,-0.53 3.71,-1.57 1.06,-1.03 1.57,-2.27 1.57,-3.71 -0.43,-13.42 -0.83,-34.07 -1.26,-61.96 l 41.82,0.32 c 2.89,0.19 7.47,0.31 13.65,0.31 4.73,0 8.99,0.1 12.71,0.31 l 68.13,0.61 c 0,14.45 -0.2,35.73 -0.63,63.83 0,1.43 0.55,2.68 1.57,3.72 1.02,1.01 2.27,1.54 3.71,1.54 1.45,0 2.7,-0.53 3.72,-1.54 1.02,-1.04 1.56,-2.29 1.56,-3.72 0.4,-29.33 0.63,-51.84 0.63,-67.55"/><path
            id="path46"
            style="fill:none;stroke:#5e5180;stroke-width:10.01270008;stroke-linecap:butt;stroke-linejoin:miter;stroke-miterlimit:10;stroke-dasharray:none;stroke-opacity:1"
            d="m 4844.63,1977.41 v -2.77 l -0.63,-68.18 v -5.86 c -0.23,-18.82 -0.31,-41.11 -0.31,-66.92 0,-1.45 -0.51,-2.7 -1.56,-3.72 -1.02,-1.04 -2.27,-1.56 -3.72,-1.56 -1.45,0 -2.7,0.52 -3.71,1.56 -1.02,1.02 -1.53,2.27 -1.53,3.72 0,25.81 0.08,48.1 0.27,66.92 0,2.05 0.12,4.01 0.32,5.86 0.23,18.19 0.31,39.66 0.31,64.44 l -68.13,-0.92 c -3.72,-0.21 -7.86,-0.31 -12.4,-0.31 -5.79,0 -10.01,-0.1 -12.71,-0.31 l -43.38,-0.32 c -0.62,-37.78 -0.94,-82.82 -0.94,-135.05 0,-1.45 -0.43,-2.7 -1.37,-3.72 -0.93,-1.03 -2.11,-1.56 -3.55,-1.56 -1.45,0 -2.7,0.53 -3.72,1.56 -1.06,1.02 -1.57,2.27 -1.57,3.72 0,54.09 0.32,100.46 0.94,139.08 l -0.31,1.25 0.31,1.24 c 0.39,29.53 0.82,51.62 1.26,66.29 0,1.45 0.5,2.64 1.52,3.56 1.06,0.94 2.27,1.41 3.72,1.41 1.44,0 2.69,-0.53 3.71,-1.57 1.06,-1.03 1.57,-2.27 1.57,-3.71 -0.43,-13.42 -0.83,-34.07 -1.26,-61.96 l 41.82,0.32 c 2.89,0.19 7.47,0.31 13.65,0.31 4.73,0 8.99,0.1 12.71,0.31 l 68.13,0.61 c 0,14.45 -0.2,35.73 -0.63,63.83 0,1.43 0.55,2.68 1.57,3.72 1.02,1.01 2.27,1.54 3.71,1.54 1.45,0 2.7,-0.53 3.72,-1.54 1.02,-1.04 1.56,-2.29 1.56,-3.72 0.4,-29.33 0.63,-51.84 0.63,-67.55 z"/><path
            id="path48"
            style="fill:#5e5080;fill-opacity:1;fill-rule:nonzero;stroke:none"
            d="m 5110.44,1932.81 c 0,-17.98 -0.12,-34.6 -0.32,-49.87 v -5.28 l -0.62,-44.61 c 28.08,-0.41 58.43,-0.62 91.05,-0.62 1.45,0 2.7,-0.51 3.76,-1.55 1.01,-1.04 1.52,-2.27 1.52,-3.72 0,-1.44 -0.51,-2.67 -1.52,-3.71 -1.06,-1.04 -2.31,-1.55 -3.76,-1.55 -34.26,0 -66.49,0.2 -96.65,0.61 -1.44,0 -2.65,0.59 -3.71,1.72 -1.02,1.14 -1.53,2.43 -1.53,3.87 0,0.61 0.08,1.14 0.28,1.55 l 0.62,48.01 v 5.28 c 0.24,15.27 0.32,31.89 0.32,49.87 0,41.3 0.5,76.93 1.56,106.87 0,1.45 0.51,2.64 1.53,3.56 1.05,0.94 2.38,1.41 4.02,1.41 1.45,0 2.66,-0.53 3.6,-1.55 0.9,-1.03 1.37,-2.29 1.37,-3.73 -1.02,-29.94 -1.52,-65.48 -1.52,-106.56"/><path
            id="path50"
            style="fill:none;stroke:#5e5180;stroke-width:10.01270008;stroke-linecap:butt;stroke-linejoin:miter;stroke-miterlimit:10;stroke-dasharray:none;stroke-opacity:1"
            d="m 5110.44,1932.81 c 0,-17.98 -0.12,-34.6 -0.32,-49.87 v -5.28 l -0.62,-44.61 c 28.08,-0.41 58.43,-0.62 91.05,-0.62 1.45,0 2.7,-0.51 3.76,-1.55 1.01,-1.04 1.52,-2.27 1.52,-3.72 0,-1.44 -0.51,-2.67 -1.52,-3.71 -1.06,-1.04 -2.31,-1.55 -3.76,-1.55 -34.26,0 -66.49,0.2 -96.65,0.61 -1.44,0 -2.65,0.59 -3.71,1.72 -1.02,1.14 -1.53,2.43 -1.53,3.87 0,0.61 0.08,1.14 0.28,1.55 l 0.62,48.01 v 5.28 c 0.24,15.27 0.32,31.89 0.32,49.87 0,41.3 0.5,76.93 1.56,106.87 0,1.45 0.51,2.64 1.53,3.56 1.05,0.94 2.38,1.41 4.02,1.41 1.45,0 2.66,-0.53 3.6,-1.55 0.9,-1.03 1.37,-2.29 1.37,-3.73 -1.02,-29.94 -1.52,-65.48 -1.52,-106.56 z"/><path
            id="path52"
            style="fill:#5e5080;fill-opacity:1;fill-rule:nonzero;stroke:none"
            d="m 5416.02,2033.34 c -9.78,9.18 -21.4,13.77 -34.85,13.77 -10.09,0 -20.96,-2.89 -32.5,-8.66 -16.94,-8.47 -30.47,-21.53 -40.6,-39.19 -10.13,-17.66 -15.18,-38.16 -15.18,-61.51 0,-12.59 1.45,-24.97 4.35,-37.15 5.16,-21.91 12.59,-38.37 22.29,-49.42 9.7,-11.05 20.77,-16.58 33.17,-16.58 11.77,0 23.86,4.96 36.21,14.88 15.49,12.38 27.7,29.27 36.57,50.65 8.88,21.37 13.34,43.63 13.34,66.76 0,9.08 -0.55,16.82 -1.56,23.23 -1.02,1.02 -1.65,2.18 -1.84,3.41 -3.13,17.34 -9.58,30.6 -19.4,39.81 z m 28.04,-24.32 c 3.52,-14.67 5.28,-29.03 5.28,-43.07 0,-25.4 -4.96,-49.3 -14.86,-71.71 -9.93,-22.41 -23.04,-40.13 -39.35,-53.13 -13.65,-11.15 -27.88,-16.72 -42.75,-16.72 -6.61,0 -13.02,1.23 -19.2,3.71 -9.93,4.13 -18.7,11.78 -26.36,22.92 -7.63,11.15 -13.57,24.31 -17.8,39.51 -4.22,15.17 -6.33,30.7 -6.33,46.62 0,21.06 3.59,39.76 10.83,56.07 5.55,12.18 12.71,22.97 21.36,32.38 8.68,9.39 18.3,16.76 28.82,22.14 12.79,6.39 25.31,9.6 37.47,9.6 8.68,0 17.05,-1.76 25.11,-5.26 16.31,-7.43 27.89,-20.55 34.69,-39.35 1.88,-0.82 2.9,-2.07 3.09,-3.71"/><path
            id="path54"
            style="fill:none;stroke:#5e5180;stroke-width:10.01270008;stroke-linecap:butt;stroke-linejoin:miter;stroke-miterlimit:10;stroke-dasharray:none;stroke-opacity:1"
            d="m 5416.02,2033.34 c -9.78,9.18 -21.4,13.77 -34.85,13.77 -10.09,0 -20.96,-2.89 -32.5,-8.66 -16.94,-8.47 -30.47,-21.53 -40.6,-39.19 -10.13,-17.66 -15.18,-38.16 -15.18,-61.51 0,-12.59 1.45,-24.97 4.35,-37.15 5.16,-21.91 12.59,-38.37 22.29,-49.42 9.7,-11.05 20.77,-16.58 33.17,-16.58 11.77,0 23.86,4.96 36.21,14.88 15.49,12.38 27.7,29.27 36.57,50.65 8.88,21.37 13.34,43.63 13.34,66.76 0,9.08 -0.55,16.82 -1.56,23.23 -1.02,1.02 -1.65,2.18 -1.84,3.41 -3.13,17.34 -9.58,30.6 -19.4,39.81 z m 28.04,-24.32 c 3.52,-14.67 5.28,-29.03 5.28,-43.07 0,-25.4 -4.96,-49.3 -14.86,-71.71 -9.93,-22.41 -23.04,-40.13 -39.35,-53.13 -13.65,-11.15 -27.88,-16.72 -42.75,-16.72 -6.61,0 -13.02,1.23 -19.2,3.71 -9.93,4.13 -18.7,11.78 -26.36,22.92 -7.63,11.15 -13.57,24.31 -17.8,39.51 -4.22,15.17 -6.33,30.7 -6.33,46.62 0,21.06 3.59,39.76 10.83,56.07 5.55,12.18 12.71,22.97 21.36,32.38 8.68,9.39 18.3,16.76 28.82,22.14 12.79,6.39 25.31,9.6 37.47,9.6 8.68,0 17.05,-1.76 25.11,-5.26 16.31,-7.43 27.89,-20.55 34.69,-39.35 1.88,-0.82 2.9,-2.07 3.09,-3.71 z"/><path
            id="path56"
            style="fill:#5e5080;fill-opacity:1;fill-rule:nonzero;stroke:none"
            d="m 5698.72,2043.4 c 2.07,0 3.68,-0.77 4.81,-2.31 1.14,-1.57 1.29,-3.37 0.47,-5.44 -5.16,-11.77 -9.93,-23.74 -14.27,-35.92 -4.31,-12.21 -10.21,-29.24 -17.64,-51.12 l -3.09,-8.98 -1.88,-5.89 c -7.86,-23.97 -14.75,-44 -20.77,-60.11 -5.98,-16.09 -12.36,-31.6 -19.2,-46.47 -0.39,-1.03 -1.14,-1.85 -2.15,-2.48 -0.63,-1.23 -1.61,-2.05 -2.94,-2.46 -1.37,-0.41 -2.66,-0.32 -3.87,0.29 -1.45,0.84 -2.39,1.88 -2.82,3.11 -20.22,64.03 -46.46,135.27 -78.65,213.75 -0.86,1.86 -0.63,3.52 0.59,4.96 1.25,1.45 2.81,2.18 4.65,2.18 2.07,0 3.52,-1.04 4.34,-3.11 30.98,-75.59 56.09,-143.12 75.29,-202.61 10.13,23.55 21.98,55.78 35.63,96.67 l 1.84,5.57 c 7.24,22.3 13.38,40.58 18.46,54.84 5.05,14.24 10.56,28.28 16.55,42.12 1.05,2.27 2.58,3.41 4.65,3.41"/><path
            id="path58"
            style="fill:none;stroke:#5e5180;stroke-width:10.01270008;stroke-linecap:butt;stroke-linejoin:miter;stroke-miterlimit:10;stroke-dasharray:none;stroke-opacity:1"
            d="m 5698.72,2043.4 c 2.07,0 3.68,-0.77 4.81,-2.31 1.14,-1.57 1.29,-3.37 0.47,-5.44 -5.16,-11.77 -9.93,-23.74 -14.27,-35.92 -4.31,-12.21 -10.21,-29.24 -17.64,-51.12 l -3.09,-8.98 -1.88,-5.89 c -7.86,-23.97 -14.75,-44 -20.77,-60.11 -5.98,-16.09 -12.36,-31.6 -19.2,-46.47 -0.39,-1.03 -1.14,-1.85 -2.15,-2.48 -0.63,-1.23 -1.61,-2.05 -2.94,-2.46 -1.37,-0.41 -2.66,-0.32 -3.87,0.29 -1.45,0.84 -2.39,1.88 -2.82,3.11 -20.22,64.03 -46.46,135.27 -78.65,213.75 -0.86,1.86 -0.63,3.52 0.59,4.96 1.25,1.45 2.81,2.18 4.65,2.18 2.07,0 3.52,-1.04 4.34,-3.11 30.98,-75.59 56.09,-143.12 75.29,-202.61 10.13,23.55 21.98,55.78 35.63,96.67 l 1.84,5.57 c 7.24,22.3 13.38,40.58 18.46,54.84 5.05,14.24 10.56,28.28 16.55,42.12 1.05,2.27 2.58,3.41 4.65,3.41 z"/><path
            id="path60"
            style="fill:#5e5080;fill-opacity:1;fill-rule:nonzero;stroke:none"
            d="m 5811.21,2052.08 17.64,-0.31 c 13.65,0 26.44,0.19 38.41,0.62 h 0.62 c 1.25,0 2.31,-0.47 3.25,-1.41 0.94,-0.92 1.48,-2.11 1.72,-3.56 0,-1.44 -0.47,-2.67 -1.41,-3.71 -0.94,-1.04 -2.11,-1.55 -3.56,-1.55 -8.68,-0.41 -17.44,-0.62 -26.32,-0.62 h -13.03 c -11.77,0 -23.03,-0.2 -33.75,-0.61 v -13.94 c 0,-7.86 -0.23,-22.1 -0.62,-42.75 2.89,-0.22 8.44,-0.31 16.73,-0.31 1.84,0 3.6,-0.12 5.25,-0.32 l 28.51,-0.94 c 1.45,0 2.62,-0.5 3.56,-1.54 0.94,-1.04 1.41,-2.27 1.41,-3.72 -0.24,-1.64 -0.83,-2.93 -1.88,-3.87 -1.02,-0.92 -2.27,-1.29 -3.72,-1.07 -2.07,0.19 -6.8,0.31 -14.23,0.31 l -13.97,0.29 c -1.44,0.22 -3.09,0.32 -4.93,0.32 -8.48,0 -14.15,0.09 -17.05,0.31 0,-5.99 -0.12,-10.64 -0.31,-13.95 l -1.57,-34.37 c -1.64,-44.61 -2.46,-75.08 -2.46,-91.39 6.81,-0.22 19.95,0 39.35,0.61 h 2.15 l 41.54,0.62 c 1.44,0 2.66,-0.53 3.71,-1.54 1.02,-1.04 1.57,-2.29 1.57,-3.72 0,-1.45 -0.55,-2.7 -1.57,-3.71 -1.05,-1.04 -2.27,-1.57 -3.71,-1.57 -6.81,0.22 -20.58,0 -41.23,-0.61 h -2.15 c -15.29,-0.43 -25.11,-0.62 -29.45,-0.62 l -13.93,0.31 c -0.43,-0.21 -0.93,-0.31 -1.56,-0.31 -1.45,0 -2.66,0.51 -3.72,1.54 -1.01,1.04 -1.52,2.27 -1.52,3.72 0,21.08 0.94,53.39 2.78,96.98 l 1.25,34.38 c 0.82,22.92 1.21,45.23 1.21,66.92 v 17.03 c -0.19,0.41 -0.27,0.94 -0.27,1.55 v 0.62 c 0,1.23 0.5,2.37 1.52,3.41 1.06,1.03 2.19,1.54 3.41,1.54 7.23,0.63 14.66,0.94 22.33,0.94"/><path
            id="path62"
            style="fill:none;stroke:#5e5180;stroke-width:10.01270008;stroke-linecap:butt;stroke-linejoin:miter;stroke-miterlimit:10;stroke-dasharray:none;stroke-opacity:1"
            d="m 5811.21,2052.08 17.64,-0.31 c 13.65,0 26.44,0.19 38.41,0.62 h 0.62 c 1.25,0 2.31,-0.47 3.25,-1.41 0.94,-0.92 1.48,-2.11 1.72,-3.56 0,-1.44 -0.47,-2.67 -1.41,-3.71 -0.94,-1.04 -2.11,-1.55 -3.56,-1.55 -8.68,-0.41 -17.44,-0.62 -26.32,-0.62 h -13.03 c -11.77,0 -23.03,-0.2 -33.75,-0.61 v -13.94 c 0,-7.86 -0.23,-22.1 -0.62,-42.75 2.89,-0.22 8.44,-0.31 16.73,-0.31 1.84,0 3.6,-0.12 5.25,-0.32 l 28.51,-0.94 c 1.45,0 2.62,-0.5 3.56,-1.54 0.94,-1.04 1.41,-2.27 1.41,-3.72 -0.24,-1.64 -0.83,-2.93 -1.88,-3.87 -1.02,-0.92 -2.27,-1.29 -3.72,-1.07 -2.07,0.19 -6.8,0.31 -14.23,0.31 l -13.97,0.29 c -1.44,0.22 -3.09,0.32 -4.93,0.32 -8.48,0 -14.15,0.09 -17.05,0.31 0,-5.99 -0.12,-10.64 -0.31,-13.95 l -1.57,-34.37 c -1.64,-44.61 -2.46,-75.08 -2.46,-91.39 6.81,-0.22 19.95,0 39.35,0.61 h 2.15 l 41.54,0.62 c 1.44,0 2.66,-0.53 3.71,-1.54 1.02,-1.04 1.57,-2.29 1.57,-3.72 0,-1.45 -0.55,-2.7 -1.57,-3.71 -1.05,-1.04 -2.27,-1.57 -3.71,-1.57 -6.81,0.22 -20.58,0 -41.23,-0.61 h -2.15 c -15.29,-0.43 -25.11,-0.62 -29.45,-0.62 l -13.93,0.31 c -0.43,-0.21 -0.93,-0.31 -1.56,-0.31 -1.45,0 -2.66,0.51 -3.72,1.54 -1.01,1.04 -1.52,2.27 -1.52,3.72 0,21.08 0.94,53.39 2.78,96.98 l 1.25,34.38 c 0.82,22.92 1.21,45.23 1.21,66.92 v 17.03 c -0.19,0.41 -0.27,0.94 -0.27,1.55 v 0.62 c 0,1.23 0.5,2.37 1.52,3.41 1.06,1.03 2.19,1.54 3.41,1.54 7.23,0.63 14.66,0.94 22.33,0.94 z"/><path
            id="path64"
            style="fill:#5e5080;fill-opacity:1;fill-rule:nonzero;stroke:none"
            d="m 4451.96,6850.75 c 0,-33.92 -37.15,-51.72 -97.41,-51.72 -60.25,0 -97.4,17.8 -97.4,51.72 0,16.8 26.72,39.14 53.72,57.43 27.54,18.66 43.68,42.8 43.68,42.8 0,0 15.59,-23.85 42.86,-42.24 27.28,-18.39 54.55,-41.02 54.55,-57.99"/><path
            id="path66"
            style="fill:none;stroke:#f8e1f2;stroke-width:30.03809929;stroke-linecap:butt;stroke-linejoin:miter;stroke-miterlimit:10;stroke-dasharray:none;stroke-opacity:1"
            d="m 4451.96,6850.75 c 0,-33.92 -37.15,-51.72 -97.41,-51.72 -60.25,0 -97.4,17.8 -97.4,51.72 0,16.8 26.72,39.14 53.72,57.43 27.54,18.66 43.68,42.8 43.68,42.8 0,0 15.59,-23.85 42.86,-42.24 27.28,-18.39 54.55,-41.02 54.55,-57.99 z"/><path
            id="path68"
            style="fill:#5e5080;fill-opacity:1;fill-rule:nonzero;stroke:none"
            d="m 4886.27,5977.1 v 409.24 c 0,19.06 -15.6,34.65 -34.65,34.65 h -994.13 c -19.06,0 -34.65,-15.59 -34.65,-34.65 V 5977.1"/><path
            id="path70"
            style="fill:none;stroke:#f8e1f2;stroke-width:30.03809929;stroke-linecap:butt;stroke-linejoin:miter;stroke-miterlimit:10;stroke-dasharray:none;stroke-opacity:1"
            d="m 4886.27,5977.1 v 409.24 c 0,19.06 -15.6,34.65 -34.65,34.65 h -994.13 c -19.06,0 -34.65,-15.59 -34.65,-34.65 V 5977.1"/><path
            id="path72"
            style="fill:#5e5080;fill-opacity:1;fill-rule:nonzero;stroke:none"
            d="m 4779.92,6422.45 v 345.66 c 0,17.04 -13.94,30.99 -30.99,30.99 h -788.75 c -17.05,0 -31,-13.95 -31,-30.99 v -345.66"/><path
            id="path74"
            style="fill:none;stroke:#f8e1f2;stroke-width:30.03809929;stroke-linecap:butt;stroke-linejoin:miter;stroke-miterlimit:10;stroke-dasharray:none;stroke-opacity:1"
            d="m 4779.92,6422.45 v 345.66 c 0,17.04 -13.94,30.99 -30.99,30.99 h -788.75 c -17.05,0 -31,-13.95 -31,-30.99 v -345.66"/><path
            id="path76"
            style="fill:#5e5080;fill-opacity:1;fill-rule:nonzero;stroke:none"
            d="m 4772.05,5524.96 c 0,0 -5.91,86.65 -100.44,86.65 -94.52,0 -119.71,-2.89 -159.51,3.94 -46.69,8 -112.25,47.26 -116.19,149.66 -3.94,102.41 -1.97,106.35 -1.97,106.35 0,0 100.69,2.6 222.39,2.6 153.75,0 344.65,33.01 399.91,103.74 H 3692.87 c 55.26,-70.73 246.16,-103.74 399.91,-103.74 121.7,0 222.39,-2.6 222.39,-2.6 0,0 1.97,-3.94 -1.97,-106.35 -3.94,-102.4 -69.5,-141.66 -116.19,-149.66 -39.8,-6.83 -64.99,-3.94 -159.51,-3.94 -94.53,0 -100.44,-86.65 -100.44,-86.65 h 834.99"/><path
            id="path78"
            style="fill:none;stroke:#f8e1f2;stroke-width:30.03809929;stroke-linecap:butt;stroke-linejoin:miter;stroke-miterlimit:10;stroke-dasharray:none;stroke-opacity:1"
            d="m 4772.05,5524.96 c 0,0 -5.91,86.65 -100.44,86.65 -94.52,0 -119.71,-2.89 -159.51,3.94 -46.69,8 -112.25,47.26 -116.19,149.66 -3.94,102.41 -1.97,106.35 -1.97,106.35 0,0 100.69,2.6 222.39,2.6 153.75,0 344.65,33.01 399.91,103.74 H 3692.87 c 55.26,-70.73 246.16,-103.74 399.91,-103.74 121.7,0 222.39,-2.6 222.39,-2.6 0,0 1.97,-3.94 -1.97,-106.35 -3.94,-102.4 -69.5,-141.66 -116.19,-149.66 -39.8,-6.83 -64.99,-3.94 -159.51,-3.94 -94.53,0 -100.44,-86.65 -100.44,-86.65 z"/><path
            id="path80"
            style="fill:#5e5080;fill-opacity:1;fill-rule:nonzero;stroke:none"
            d="m 3825.8,6364.41 c 0,-61.74 50.05,-111.79 111.79,-111.79 48.71,0 90.02,31.2 105.35,74.66 16.89,-40.3 56.69,-68.62 103.13,-68.62 47.01,0 87.16,29.04 103.69,70.13 15.74,-42.67 56.66,-73.15 104.79,-73.15 48.71,0 90.03,31.2 105.35,74.66 16.89,-40.3 56.7,-68.62 103.14,-68.62 47,0 87.16,29.04 103.68,70.13 15.75,-42.67 56.66,-73.15 104.8,-73.15 61.74,0 111.79,50.05 111.79,111.79"/><path
            id="path82"
            style="fill:none;stroke:#f8e1f2;stroke-width:30.03809929;stroke-linecap:butt;stroke-linejoin:miter;stroke-miterlimit:10;stroke-dasharray:none;stroke-opacity:1"
            d="m 3825.8,6364.41 c 0,-61.74 50.05,-111.79 111.79,-111.79 48.71,0 90.02,31.2 105.35,74.66 16.89,-40.3 56.69,-68.62 103.13,-68.62 47.01,0 87.16,29.04 103.69,70.13 15.74,-42.67 56.66,-73.15 104.79,-73.15 48.71,0 90.03,31.2 105.35,74.66 16.89,-40.3 56.7,-68.62 103.14,-68.62 47,0 87.16,29.04 103.68,70.13 15.75,-42.67 56.66,-73.15 104.8,-73.15 61.74,0 111.79,50.05 111.79,111.79"/><path
            id="path84"
            style="fill:#5e5080;fill-opacity:1;fill-rule:nonzero;stroke:none"
            d="m 2486.6,5289.19 c 3.13,0 6.26,0.26 9.39,0.78 3.13,0.53 5.71,0.79 7.78,0.79 h 9.39 -26.56 z m 354.59,-104.64 c -36.49,39.56 -83.35,66.9 -140.61,82 -57.26,15.07 -128.6,22.64 -213.98,22.64 -5.2,-28.1 -11.46,-63.79 -18.73,-106.99 -7.32,-43.22 -15.37,-91.13 -24.21,-143.7 -8.88,-52.6 -18.74,-108.83 -29.69,-168.69 -10.95,-59.9 -21.63,-121.05 -32.03,-183.53 h 48.42 c 49.98,0 94.77,1.56 134.35,4.67 39.54,3.13 73.92,9.9 103.1,20.32 74.98,27.07 132.98,68.72 174.16,124.94 41.11,56.25 61.68,115.07 61.68,176.52 0,29.14 -4.96,58.82 -14.82,89.04 -9.93,30.17 -25.77,57.78 -47.64,82.78 z M 2236.68,3889.66 c 82.25,1.06 164.27,6.79 246.01,17.19 81.74,10.43 155.43,29.67 221.02,57.79 65.59,28.12 118.71,67.41 159.35,117.92 40.59,50.5 60.89,116.89 60.89,199.16 0,114.54 -36.45,198.61 -109.32,252.26 -72.9,53.62 -181.2,77.83 -324.9,72.63 h 48.42 -54.68 c -16.66,0 -34.89,0 -54.68,0 -19.79,0 -40.09,0.52 -60.89,1.56 -15.61,-87.47 -31.25,-173.13 -46.86,-256.95 -15.64,-83.83 -29.45,-159.06 -41.38,-225.69 -12.01,-66.67 -21.9,-121.33 -29.69,-164.02 -7.82,-42.69 -12.24,-66.63 -13.29,-71.85 z m 824.75,399.87 c 0,-90.59 -24.21,-167.4 -72.59,-230.39 -48.34,-63.01 -109.98,-113.76 -184.84,-152.29 -33.33,-16.64 -72.83,-29.92 -118.59,-39.83 -45.76,-9.9 -95.71,-17.7 -149.76,-23.43 -54.09,-5.71 -111.31,-9.37 -171.63,-10.93 -60.35,-1.57 -121.2,-2.35 -182.57,-2.35 -57.18,0 -114.13,0.53 -170.8,1.56 -56.72,1.04 -107.41,2.1 -152.15,3.13 2.07,11.46 4.42,20.83 7.04,28.11 2.58,7.29 4.93,17.19 7,29.68 33.29,0 70.48,-0.51 111.59,-1.56 41.07,-1.02 83.97,-2.08 128.72,-3.13 1.01,4.18 4.65,23.43 10.87,57.79 6.26,34.38 14.31,79.12 24.21,134.33 9.86,55.18 21.32,117.94 34.3,188.22 13.03,70.29 26.52,143.96 40.6,221.03 14.04,77.05 28.04,154.88 42.12,233.52 14.04,78.61 27.3,153.57 39.78,224.91 12.48,71.32 23.66,136.4 33.52,195.25 9.86,58.82 17.95,106.46 24.21,142.93 l -179.45,-3.13 h -23.39 c -20.8,0 -42.9,-1.56 -66.33,-4.69 -23.39,-3.11 -45.49,-8.35 -66.26,-15.61 -56.2,-20.84 -104.82,-48.18 -145.88,-82.01 -41.11,-33.86 -74.63,-72.38 -100.64,-115.58 -26.05,-43.22 -45.25,-89.04 -57.73,-137.46 -12.51,-48.42 -18.73,-97.12 -18.73,-146.04 0,-39.59 3.91,-78.64 11.73,-117.15 7.78,-38.54 19.24,-74.46 34.34,-107.79 15.1,-33.32 33.6,-63.52 55.46,-90.58 21.87,-27.09 46.86,-49.48 74.98,-67.18 l -12.52,-20.3 c -70.79,41.64 -124.41,99.97 -160.86,174.95 -36.46,74.98 -54.68,155.65 -54.68,242.11 0,71.85 11.73,141.35 35.16,208.52 23.43,67.16 57.26,127.04 101.53,179.62 44.24,52.57 98.41,94.5 162.44,125.75 64.02,31.23 136.15,46.86 216.33,46.86 h 399.88 c 43.72,0 91.36,-5.73 142.91,-17.19 51.55,-11.46 99.97,-30.73 145.27,-57.79 45.29,-27.09 83.03,-62.48 113.22,-106.21 30.2,-43.75 45.3,-97.39 45.3,-160.89 0,-42.71 -8.33,-82.27 -25,-118.7 -16.66,-36.48 -38.8,-69.27 -66.37,-98.41 -27.61,-29.18 -59.1,-54.95 -94.49,-77.32 -35.4,-22.42 -72.4,-40.88 -110.89,-55.45 38.49,-7.31 76.78,-18.75 114.8,-34.37 37.97,-15.61 74.19,-37.49 108.53,-65.6 43.77,-36.47 74.47,-78.88 92.19,-127.31 17.68,-48.42 27.07,-97.62 28.12,-147.6"/><path
            id="path86"
            style="fill:#5e5080;fill-opacity:1;fill-rule:nonzero;stroke:none"
            d="m 3313.67,4553.51 c 11.93,39.56 26.28,74.2 42.94,103.86 16.62,29.69 35.4,53.12 56.24,70.29 20.81,17.19 43.73,26.81 68.72,28.9 h 6.22 c 23.98,0 40.37,-9.36 49.21,-28.12 8.84,-18.73 13.29,-43.22 13.29,-73.41 0,-33.33 -3.91,-70.03 -11.73,-110.12 -7.78,-40.09 -17.44,-79.42 -28.86,-117.93 h -224.94 c 7.28,44.77 16.9,86.93 28.91,126.53 z m 1307.58,-96.84 c -18.74,-62.48 -39.58,-118.72 -62.46,-168.71 -22.92,-49.97 -48.42,-90.58 -76.55,-121.83 -18.73,-20.83 -41.92,-35.93 -69.5,-45.3 -27.61,-9.36 -58.08,-15.62 -91.36,-18.73 -33.37,-3.13 -68.76,-4.44 -106.23,-3.91 -37.51,0.51 -74.98,0.78 -112.45,0.78 -35.43,0 -68.25,0.51 -98.4,1.57 -30.24,1.01 -55.74,3.12 -76.55,6.23 2.08,4.15 12.21,15.1 30.43,32.82 18.23,17.68 41.66,39.56 70.33,65.59 28.59,26.03 60.89,55.7 96.84,89.04 35.9,33.3 72.63,67.94 110.1,103.86 37.51,35.93 73.92,72.1 109.35,108.56 35.36,36.45 66.89,71.32 94.5,104.66 27.57,33.3 49.98,63.5 67.16,90.58 17.17,27.09 25.77,49.46 25.77,67.18 h -588.87 -23.43 c -1.06,-4.17 -3.91,-15.88 -8.6,-35.14 -4.66,-19.29 -10.68,-43.75 -17.96,-73.42 -7.27,-29.68 -15.6,-63.01 -24.99,-99.97 -7.45,-29.33 -15.45,-59.7 -24.78,-89.82 -6.53,-21.03 -17.1,-51.53 -30.12,-82.78 -13.02,-31.23 -28.63,-63.26 -46.86,-96.06 -18.22,-32.79 -39.3,-64.83 -63.24,-96.06 -23.98,-31.23 -49.99,-59.35 -78.11,-84.34 -28.12,-25 -58.35,-45.06 -90.58,-60.14 -32.31,-15.11 -66.14,-22.64 -101.54,-22.64 -59.37,0 -101.53,18.46 -126.52,55.44 -25,36.96 -37.51,92.95 -37.51,167.91 0,21.88 3.13,106.77 10.95,148.39 h 352.4 c 0,0 6.37,18.77 8.41,24.99 10.97,33.49 20.3,65.85 26.55,97.62 6.26,31.76 9.39,61.7 9.39,89.82 0,54.14 -13.3,98.41 -39.85,132.77 -26.56,34.36 -70.56,51.55 -131.97,51.55 -55.22,0 -105.44,-14.33 -150.74,-42.96 -45.29,-28.65 -83.81,-67.16 -115.57,-115.58 -31.8,-48.42 -56.25,-103.88 -73.42,-166.36 -17.2,-62.49 -25.77,-127.06 -25.77,-193.69 0,-42.71 5.48,-81.76 16.39,-117.14 10.95,-35.41 27.85,-66.14 50.77,-92.17 22.88,-26.02 51.78,-46.07 86.67,-60.13 34.89,-14.06 76.27,-21.08 124.18,-21.08 60.39,0 115.61,15.86 165.6,47.64 49.98,31.76 93.71,71.85 131.18,120.27 37.51,48.42 69.23,100.75 95.28,156.97 21.93,47.44 39.21,92.09 52.27,134.33 1.07,3.45 2.86,9.25 4.18,13.8 0.93,3.18 2.04,7.22 2.72,9.63 7.93,27.92 16.11,55.82 23.85,84.37 9.9,36.43 17.95,68.17 24.21,95.27 38.53,1.02 78.11,2.08 118.71,3.11 34.38,1.04 71.85,1.82 112.48,2.35 40.6,0.51 79.13,0.78 115.58,0.78 37.47,0 70.79,-0.27 99.97,-0.78 29.14,-0.53 43.73,-3.38 43.73,-8.58 0,-15.63 -9.12,-35.42 -27.34,-59.36 -18.23,-23.97 -41.93,-50.77 -71.07,-80.45 -29.18,-29.67 -62.46,-61.17 -99.97,-94.5 -37.47,-33.34 -76.03,-66.92 -115.58,-100.75 -39.58,-33.85 -78.1,-67.15 -115.57,-99.95 -37.51,-32.81 -70.83,-63.54 -99.97,-92.17 -29.18,-28.65 -52.88,-54.42 -71.07,-77.3 -18.23,-22.92 -27.34,-41.17 -27.34,-54.68 h 548.24 c 41.65,0 78.88,14.57 111.7,43.73 32.78,29.15 62.19,66.39 88.24,111.68 26.01,45.31 48.65,95.53 67.93,150.74 19.29,55.19 36.18,109.34 50.77,162.45 h -24.99"/><path
            id="path88"
            style="fill:#5e5080;fill-opacity:1;fill-rule:nonzero;stroke:none"
            d="m 4820.19,4028.69 c 29.13,2.07 55.69,15.35 79.67,39.81 23.93,24.47 44.74,56.48 62.46,96.08 -14.59,16.64 -21.86,36.43 -21.86,59.35 0,10.39 2.85,21.09 8.6,32.02 5.71,10.93 14.82,16.41 27.34,16.41 9.35,0 16.11,-4.19 20.3,-12.5 10.4,40.6 19.24,85.63 26.56,135.11 7.27,49.44 10.91,95.51 10.91,138.22 0,64.56 -8.57,116.89 -25.78,156.98 -17.17,40.09 -45.02,60.15 -83.54,60.15 -32.31,0 -61.95,-14.06 -89.06,-42.18 -27.06,-28.12 -50.49,-65.35 -70.28,-111.68 -19.79,-46.35 -35.13,-99.72 -46.08,-160.11 -10.91,-60.41 -16.39,-122.87 -16.39,-187.42 0,-65.61 8.84,-118.73 26.56,-159.33 17.68,-40.61 45.29,-60.91 82.76,-60.91 z m 534.19,440.48 c -28.12,-105.19 -67.7,-187.45 -118.71,-246.8 -51.04,-59.35 -111.94,-89.04 -182.73,-89.04 -31.25,-44.78 -68.21,-80.2 -110.92,-106.21 -42.71,-26.05 -91.13,-39.05 -145.26,-39.05 -38.53,0 -71.85,7 -99.97,21.04 -28.12,14.02 -51.28,33.54 -69.51,58.47 -18.22,24.94 -31.75,54.55 -40.59,88.85 -8.88,34.28 -13.3,71.69 -13.3,112.27 0,67.54 8.6,132.76 25.77,195.62 17.17,62.87 41.66,118.51 73.42,166.83 31.76,48.32 70.01,87.02 114.79,116.12 44.78,29.08 95.32,43.65 151.52,43.65 39.58,0 73.41,-7.02 101.54,-21.04 28.12,-14.02 51.27,-33.23 69.5,-57.63 18.22,-24.41 31.76,-53.51 40.64,-87.26 8.8,-33.77 13.25,-70.89 13.25,-111.41 0,-59.22 -7.82,-119.96 -23.42,-182.28 -15.61,-62.35 -37.47,-117.38 -65.59,-165.17 29.13,1.03 56.47,9.38 81.97,24.99 25.51,15.62 48.93,36.71 70.29,63.26 21.35,26.56 40.64,58.05 57.81,94.5 17.17,36.45 32.03,76.54 44.51,120.29 h 24.99"/><path
            id="path90"
            style="fill:#5e5080;fill-opacity:1;fill-rule:nonzero;stroke:none"
            d="m 6710.24,4787.79 c -24.99,-2.09 -47.91,-11.96 -68.76,-29.66 -20.85,-17.72 -39.58,-41.4 -56.2,-71.07 -16.71,-29.69 -31.02,-64.32 -42.99,-103.88 -11.97,-39.58 -21.59,-81.76 -28.86,-126.51 h 224.89 c 11.46,38.51 21.12,78.09 28.9,118.71 7.83,40.61 11.74,77.56 11.74,110.9 0,30.19 -4.46,54.66 -13.3,73.41 -8.84,18.74 -25.27,28.1 -49.2,28.1 z m 387.36,-285.83 c -13.57,-48.97 -33.36,-101.53 -59.37,-157.76 -26.05,-56.24 -57.81,-108.55 -95.27,-156.97 -37.47,-48.42 -80.97,-88.53 -130.44,-120.27 -49.44,-31.78 -104.9,-47.66 -166.35,-47.66 -47.91,0 -89.29,7.04 -124.18,21.1 -34.89,14.06 -63.79,34.09 -86.67,60.14 -22.92,26.01 -39.86,56.73 -50.77,92.14 -10.95,35.4 -16.39,74.45 -16.39,117.16 0,42.68 4.66,88.5 14.05,137.44 -72.91,18.76 -121.84,54.14 -146.83,106.23 -15.61,-57.28 -34.11,-117.41 -55.46,-180.42 -21.36,-63.01 -45.57,-120.53 -72.63,-172.58 -27.07,-52.1 -56.48,-95.3 -88.24,-129.66 -31.8,-34.36 -65.36,-51.55 -100.75,-51.55 -63.52,0 -110.1,17.7 -139.79,53.11 -29.69,35.4 -44.51,90.06 -44.51,164.02 0,14.57 0.51,29.39 1.57,44.51 1.01,15.08 2.58,31.49 4.65,49.2 -11.46,-37.49 -25.27,-76.29 -41.38,-116.36 -16.15,-40.1 -35.16,-77.09 -57.03,-110.9 -21.86,-33.85 -46.58,-61.7 -74.19,-83.58 -27.58,-21.86 -58.55,-32.8 -92.93,-32.8 -63.52,0 -110.1,17.7 -139.79,53.12 -29.69,35.38 -44.51,89.55 -44.51,162.43 0,21.88 1.29,45.31 3.91,70.31 2.58,24.99 6.5,52.05 11.7,81.21 1.01,6.26 3.36,19.77 7.04,40.62 3.63,20.81 7.82,45.02 12.47,72.63 4.7,27.57 9.9,57.26 15.65,89.02 5.71,31.76 11.15,62.23 16.39,91.39 5.2,29.13 9.62,55.44 13.26,78.88 3.63,23.43 5.98,40.33 7.04,50.75 h 124.96 c -2.11,-15.6 -6.53,-44.51 -13.26,-86.69 -6.81,-42.16 -14.08,-86.44 -21.9,-132.77 -7.79,-46.34 -15.37,-88.78 -22.65,-127.29 -7.27,-38.54 -11.46,-62.48 -12.48,-71.85 -15.6,-89.56 -23.42,-158.3 -23.42,-206.17 0,-46.88 6.49,-79.68 19.51,-98.41 13.03,-18.75 32.04,-28.12 57.03,-28.12 22.88,0 45.02,9.37 66.37,28.12 21.32,18.73 41.66,43.2 60.94,73.41 19.24,30.18 37.47,65.07 54.64,104.65 17.21,39.56 33.32,80.43 48.42,122.61 15.1,42.19 28.36,83.82 39.85,124.97 11.43,41.12 21.87,78.87 31.22,113.23 7.27,39.56 14.08,78.36 20.33,116.37 6.22,38 11.93,70.01 17.17,96.06 h 124.97 c -15.65,-83.32 -28.67,-154.12 -39.08,-212.43 -10.4,-58.32 -19.28,-106.99 -26.55,-146.05 -7.28,-39.03 -13.03,-71.07 -17.17,-96.06 -4.19,-24.99 -7.28,-46.6 -9.35,-64.81 -2.11,-18.24 -3.4,-34.63 -3.91,-49.2 -0.55,-14.61 -0.78,-31.78 -0.78,-51.55 0,-46.86 6.49,-79.67 19.51,-98.41 12.99,-18.75 31.49,-28.12 55.46,-28.12 1.02,0 4.66,0.26 10.92,0.79 6.25,0.5 9.89,0.78 10.95,0.78 v 1.56 c 31.21,7.28 60.39,29.41 87.45,66.4 27.07,36.94 52.06,80.94 74.98,131.98 22.88,51 43.73,105.93 62.5,164.78 18.74,58.82 34.85,114.26 48.42,166.36 -3.13,12.5 -4.69,27.58 -4.69,45.29 0,13.52 1.8,28.91 5.47,46.08 3.6,17.19 8.02,33.83 13.26,49.98 5.2,16.14 10.68,30.71 16.39,43.73 5.71,13.02 10.68,22.67 14.86,28.9 h 6.22 21.91 c -1.06,-2.09 -5.75,-22.64 -14.08,-61.7 -8.34,-39.05 -20.3,-88.25 -35.91,-147.6 8.29,-31.24 23.66,-57.28 46.07,-78.09 22.38,-20.85 54.41,-36.98 96.06,-48.42 11.42,49.96 27.34,96.84 47.64,140.57 20.3,43.72 44.75,81.74 73.42,114.03 28.63,32.26 61.68,57.79 99.18,76.52 37.47,18.75 79.13,28.12 124.97,28.12 61.4,0 105.4,-17.44 131.96,-52.33 26.56,-34.89 39.86,-79.42 39.86,-133.55 0,-27.08 -2.9,-56.75 -8.61,-89.02 -5.75,-32.28 -14.31,-64.59 -25.77,-96.84 l -9.39,-24.99 h -337.38 -15.61 c 0,-27.11 -1.84,-53.12 -5.47,-78.11 -3.68,-24.99 -5.48,-48.42 -5.48,-70.28 0,-74.98 12.52,-130.97 37.51,-167.91 24.99,-36.98 67.16,-55.46 126.53,-55.46 35.36,0 69.23,7.55 101.49,22.64 32.27,15.1 62.74,35.15 91.41,60.14 28.63,24.99 54.64,53.11 78.07,84.34 23.42,31.25 44.55,63.27 63.28,96.08 18.73,32.8 34.61,64.81 47.64,96.06 12.98,31.23 22.64,58.81 28.9,82.78 h 24.99"/><path
            id="path92"
            style="fill:#5e5080;fill-opacity:1;fill-rule:nonzero;stroke:none"
            d="m 3738.11,3316.55 c -12.36,-45.72 -27.61,-93.83 -45.72,-144.3 -18.07,-50.49 -38.57,-97.14 -61.41,-140 -22.88,-42.87 -48.38,-78.36 -76.46,-106.45 -28.08,-28.1 -58.32,-42.14 -90.7,-42.14 -113.35,0 -170.02,66.2 -170.02,198.59 0,9.51 1.91,30.22 5.71,62.15 3.79,31.9 9.31,71.65 16.42,119.29 7.16,47.62 15.73,102.14 25.74,163.59 10.01,61.43 21.63,125.94 35.01,193.58 7.58,40.02 12.82,75.47 15.72,106.45 2.85,30.94 4.26,57.85 4.26,80.71 0,42.86 -5.94,73.1 -17.83,90.72 -11.93,17.62 -28.83,26.44 -50.73,26.44 -20.97,0 -41.23,-8.35 -60.74,-25.02 -19.52,-16.66 -38.1,-38.56 -55.7,-65.7 -17.64,-27.15 -34.3,-58.36 -50.02,-93.58 -15.73,-35.26 -30.24,-71.69 -43.57,-109.3 -13.34,-37.64 -25.5,-75.25 -36.42,-112.88 -10.99,-37.62 -20.26,-72.14 -27.88,-103.56 -10.49,-56.21 -21.67,-116.93 -33.56,-182.17 -11.93,-65.24 -23.82,-130.97 -35.71,-197.14 -11.93,-66.22 -23.59,-130.99 -35.01,-194.31 -11.42,-63.33 -21.94,-121.19 -31.44,-173.58 h -115.7 c 10.45,59.06 22.61,125.72 36.42,200 13.8,74.29 27.84,150.01 42.16,227.16 14.28,77.15 28.08,153.34 41.42,228.59 13.34,75.23 25.7,143.82 37.16,205.73 11.42,61.92 20.92,114.05 28.55,156.45 7.62,42.38 12.36,69.76 14.27,82.15 1.92,10.47 3.33,20.93 4.31,31.43 0.93,10.46 1.44,20.95 1.44,31.43 0,36.2 -5.75,69.28 -17.17,99.3 -11.42,30 -27.14,55.72 -47.13,77.15 -20.02,21.42 -44.08,38.08 -72.16,50.01 -28.08,11.89 -58.82,17.85 -92.15,17.85 -34.3,0 -69.54,-6.22 -105.72,-18.58 -52.41,-18.11 -97.15,-43.1 -134.31,-74.99 -37.12,-31.94 -67.86,-67.88 -92.15,-107.88 -24.28,-40.01 -42.12,-82.64 -53.54,-127.87 -11.46,-45.24 -17.17,-90.72 -17.17,-136.43 0,-37.15 3.56,-73.35 10.72,-108.59 7.15,-35.24 17.6,-68.09 31.44,-98.58 13.77,-30.49 30.47,-58.1 49.99,-82.86 19.51,-24.78 42.16,-45.25 67.86,-61.43 l -11.42,-20 c -31.45,18.09 -59.3,40.71 -83.59,67.86 -24.29,27.14 -44.78,57.61 -61.44,91.44 -16.66,33.79 -29.26,69.76 -37.82,107.85 -8.61,38.1 -12.87,77.15 -12.87,117.16 0,63.79 10.44,126.2 31.41,187.15 20.96,60.96 51.43,115.25 91.44,162.89 40.01,47.62 88.59,86.18 145.73,115.71 57.14,29.51 121.91,44.29 194.31,44.29 40.95,0 80.73,-5.49 119.29,-16.42 38.57,-10.97 72.63,-29.53 102.16,-55.72 29.49,-26.2 53.08,-60.97 70.72,-104.29 17.6,-43.36 26.44,-97.41 26.44,-162.16 0,-20.01 -0.75,-41.2 -2.15,-63.58 -1.45,-22.39 -4.54,-44.55 -9.31,-66.43 9.5,31.57 21.43,64.83 35.75,99.76 14.27,34.92 31.17,67 50.69,96.19 19.51,29.18 41.65,53.57 66.45,73.2 24.76,19.62 52.84,29.43 84.28,29.43 58.09,0 100.72,-16.42 127.86,-49.28 27.15,-32.85 40.72,-83.11 40.72,-150.74 0,-39.05 -4.27,-84.28 -12.83,-135.71 -0.98,-2.86 -3.13,-14.77 -6.46,-35.71 -3.32,-20.97 -7.62,-46.22 -12.86,-75.73 -5.24,-29.52 -10.72,-61.21 -16.43,-95 -5.71,-33.83 -10.95,-65 -15.72,-93.59 -4.78,-28.57 -10.49,-62.39 -17.13,-101.44 -14.28,-80 -21.44,-142.39 -21.44,-187.15 0,-43.83 5.95,-74.3 17.88,-91.43 11.89,-17.15 29.29,-25.71 52.13,-25.71 25.74,0 50.22,12.08 73.57,36.29 23.35,24.19 45.26,55.52 65.75,93.95 20.46,38.45 39.5,81.16 57.14,128.11 17.6,46.98 33.09,92.78 46.43,137.38 h 22.84"/><path
            id="path94"
            style="fill:#5e5080;fill-opacity:1;fill-rule:nonzero;stroke:none"
            d="m 3903.87,3885.16 c -3.84,-19.06 -7.63,-41.2 -11.42,-66.43 -3.84,-25.24 -8.1,-52.13 -12.87,-80.7 h -114.29 c 4.74,28.57 9.27,55.46 13.58,80.7 4.26,25.23 7.86,47.37 10.71,66.43 z m -47.13,-280.02 c -13.38,-87.63 -25.27,-162.65 -35.75,-225.01 -10.48,-62.38 -19.28,-115.71 -26.4,-160.01 -7.16,-44.29 -12.87,-81.21 -17.17,-110.72 -4.27,-29.53 -6.42,-54.29 -6.42,-74.3 0,-43.82 5.95,-74.29 17.84,-91.44 11.93,-17.13 29.29,-25.72 52.17,-25.72 25.7,0 50.22,12.15 73.57,36.44 23.31,24.28 45.22,55.48 65.71,93.59 20.5,38.08 39.31,80.71 56.44,127.86 17.13,47.15 32.39,93.57 45.72,139.3 h 24.29 c -12.4,-45.73 -27.65,-94.07 -45.72,-145.01 -18.11,-50.97 -38.8,-97.65 -62.15,-140.02 -23.35,-42.38 -49.05,-77.86 -77.13,-106.43 -28.12,-28.57 -58.35,-42.86 -90.74,-42.86 -58.12,0 -100.71,16.42 -127.86,49.28 -27.14,32.87 -40.71,82.62 -40.71,149.31 0,41.89 4.73,88.08 14.27,138.57 0,0.94 1.45,9.76 4.31,26.44 2.85,16.64 6.41,37.61 10.71,62.85 4.27,25.23 9.04,52.86 14.28,82.86 5.2,30.02 10.48,59.3 15.72,87.87 5.2,28.57 9.51,54.29 12.83,77.15 3.33,22.86 5.95,39.52 7.86,50 h 114.33"/><path
            id="path96"
            style="fill:#5e5080;fill-opacity:1;fill-rule:nonzero;stroke:none"
            d="m 4375.32,3583.73 c -22.88,-1.94 -43.84,-10.72 -62.85,-26.44 -19.09,-15.72 -36.22,-37.14 -51.43,-64.3 -15.25,-27.15 -28.36,-58.81 -39.31,-95.01 -10.95,-36.19 -19.79,-74.78 -26.44,-115.71 h 205.73 c 10.48,35.22 19.32,71.19 26.44,107.85 7.16,36.67 10.72,70.25 10.72,100.74 0,27.61 -4.07,50 -12.13,67.13 -8.13,17.15 -23.11,25.74 -45.02,25.74 z m 354.32,-261.47 c -12.4,-44.78 -30.51,-92.85 -54.29,-144.28 -23.82,-51.43 -52.88,-99.31 -87.14,-143.58 -34.3,-44.3 -74.31,-80.98 -120.03,-110.02 -45.73,-29.06 -96.22,-43.57 -151.45,-43.57 -43.8,0 -81.66,6.43 -113.58,19.28 -31.91,12.87 -58.35,31.19 -79.28,55.01 -20.96,23.8 -36.45,51.9 -46.42,84.29 -10.02,32.36 -15.02,68.09 -15.02,107.14 0,60.96 7.86,120.02 23.58,177.16 15.73,57.16 38.1,107.87 67.16,152.17 29.02,44.29 64.3,79.51 105.72,105.72 41.42,26.18 87.37,39.28 137.87,39.28 56.16,0 96.41,-15.72 120.7,-47.14 24.29,-31.43 36.45,-71.93 36.45,-121.45 0,-25.71 -2.85,-53.09 -8.57,-82.13 -5.71,-29.08 -13.3,-59.02 -24.28,-89.3 -2.09,-5.75 -8.76,-22.86 -8.76,-22.86 h -321.27 c -6.38,-38.11 -10.01,-115.73 -10.01,-135.74 0,-68.56 11.42,-119.78 34.3,-153.57 22.84,-33.81 61.4,-50.73 115.73,-50.73 32.35,0 63.32,6.91 92.85,20.73 29.49,13.79 57.14,32.15 82.84,54.99 25.74,22.86 49.52,48.58 71.46,77.15 21.9,28.59 41.18,57.87 57.85,87.87 16.66,30.02 30.93,59.29 42.86,87.86 11.89,28.57 20.73,53.8 26.44,75.72 h 24.29"/><path
            id="path98"
            style="fill:#5e5080;fill-opacity:1;fill-rule:nonzero;stroke:none"
            d="m 5066.83,3115.11 c 0,0.94 0.23,1.66 0.7,2.15 0.47,0.47 0.7,1.17 0.7,2.13 0,-0.96 -0.23,-1.66 -0.7,-2.13 -0.47,-0.49 -0.7,-1.21 -0.7,-2.15 z m -155.75,-197.17 c 26.68,1.9 50.73,14.04 72.16,36.44 21.44,22.37 40.21,51.66 56.44,87.86 -13.33,15.23 -20.02,33.34 -20.02,54.29 0,8.58 2.62,18.09 7.86,28.59 5.24,10.46 13.57,15.7 25.03,15.7 10.44,0 16.62,-4.77 18.54,-14.27 10.48,39.03 18.81,81.43 25.03,127.15 6.18,45.7 9.27,87.61 9.27,125.73 0,59.04 -7.86,106.89 -23.58,143.58 -15.69,36.64 -40.72,54.99 -74.98,54.99 -29.53,0 -56.95,-12.85 -82.18,-38.57 -25.22,-25.71 -46.89,-59.54 -65,-101.43 -18.11,-41.93 -32.15,-90.51 -42.12,-145.74 -10.02,-55.24 -15.02,-111.91 -15.02,-170.02 0,-59.99 8.09,-109.06 24.29,-147.14 16.19,-38.11 41.88,-57.16 77.16,-57.16 z m 487.18,402.9 c -25.69,-97.16 -62.15,-172.64 -109.28,-226.44 -47.13,-53.82 -102.16,-80.73 -165.01,-80.73 -28.59,-40.95 -62.66,-73.36 -102.16,-97.16 -39.54,-23.81 -83.58,-35.7 -132.16,-35.7 -36.18,0 -64.77,8.8 -85.7,26.44 -20.96,17.6 -36.68,40.22 -47.17,67.85 -2.85,-13.35 -5,-25.24 -6.41,-35.72 -1.45,-10.49 -3.09,-19.54 -5.01,-27.15 -1.91,-8.56 -3.36,-16.19 -4.26,-22.86 h -115.73 c 34.26,185.74 65.2,353.83 92.85,504.33 11.42,63.79 22.88,127.37 34.3,190.73 11.42,63.32 21.63,121.19 30.7,173.58 9.04,52.37 16.43,96.67 22.14,132.88 5.71,36.18 9.04,59.51 10.01,70 h 114.29 c 0,-5.71 -1.92,-20.71 -5.71,-45 -3.83,-24.29 -9.07,-55.25 -15.72,-92.87 -6.65,-37.63 -14.04,-80.5 -22.14,-128.59 -8.1,-48.1 -16.94,-98.34 -26.44,-150.71 19.05,21.47 41.46,38.72 67.16,51.8 25.73,13.08 56.67,19.63 92.85,19.63 36.21,0 67.15,-6.43 92.89,-19.24 25.7,-12.85 46.89,-30.41 63.56,-52.72 16.66,-22.33 28.82,-48.95 36.45,-79.81 7.59,-30.9 11.42,-64.38 11.42,-100.48 0,-54.15 -7.16,-109.98 -21.43,-167.46 -14.28,-57.47 -34.31,-108.06 -60,-151.77 26.63,0.94 51.9,8.8 75.72,23.58 23.78,14.75 45.45,34.52 65,59.3 19.52,24.75 36.89,53.8 52.14,87.14 15.21,33.32 28.59,69.05 40.01,107.15 h 22.84"/><path
            id="path100"
            style="fill:#5e5080;fill-opacity:1;fill-rule:nonzero;stroke:none"
            d="m 5578.26,2917.94 c 26.67,1.9 50.96,14.04 72.86,36.44 21.9,22.37 40.95,51.66 57.14,87.86 -13.33,15.23 -19.98,33.34 -19.98,54.29 0,9.52 2.62,19.3 7.86,29.29 5.2,10 13.57,15 24.99,15 8.57,0 14.75,-3.81 18.58,-11.42 9.51,37.14 17.6,78.32 24.29,123.58 6.65,45.23 9.97,87.37 9.97,126.45 0,59.04 -7.82,106.89 -23.54,143.58 -15.73,36.64 -41.23,54.99 -76.43,54.99 -29.57,0 -56.71,-12.85 -81.47,-38.57 -24.76,-25.71 -46.19,-59.78 -64.26,-102.16 -18.11,-42.38 -32.15,-91.21 -42.16,-146.43 -10.01,-55.25 -14.98,-112.39 -14.98,-171.45 0,-60 8.06,-108.58 24.29,-145.71 16.15,-37.16 41.42,-55.74 75.72,-55.74 z m 488.62,402.9 c -25.73,-96.22 -61.95,-171.43 -108.57,-225.74 -46.7,-54.29 -102.4,-81.43 -167.17,-81.43 -28.59,-40.95 -62.38,-73.36 -101.45,-97.16 -39.04,-23.81 -83.35,-35.7 -132.87,-35.7 -35.24,0 -65.71,6.41 -91.44,19.24 -25.7,12.83 -46.9,30.66 -63.56,53.48 -16.66,22.83 -29.06,49.89 -37.16,81.26 -8.09,31.37 -12.12,65.59 -12.12,102.69 0,61.8 7.86,121.44 23.55,178.94 15.72,57.51 38.09,108.38 67.15,152.57 29.06,44.22 64.07,79.62 105.02,106.23 40.95,26.6 87.14,39.93 138.57,39.93 36.18,0 67.16,-6.43 92.89,-19.24 25.7,-12.85 46.9,-30.41 63.56,-52.72 16.66,-22.33 29.06,-48.95 37.16,-79.81 8.05,-30.9 12.12,-64.85 12.12,-101.91 0,-54.17 -7.12,-109.73 -21.43,-166.73 -14.28,-57.01 -34.26,-107.36 -60,-151.07 26.67,0.94 51.67,8.58 75.02,22.86 23.31,14.29 44.74,33.58 64.3,57.87 19.51,24.28 37.11,53.09 52.84,86.43 15.72,33.33 29.29,70.01 40.71,110.01 h 22.88"/><path
            id="path102"
            style="fill:none;stroke:#5e5080;stroke-width:20.02540016;stroke-linecap:butt;stroke-linejoin:miter;stroke-miterlimit:10;stroke-dasharray:none;stroke-opacity:1"
            d="M 7745.84,4272.45 C 7745.84,2408.58 6234.87,897.609 4371,897.609 2507.13,897.609 996.164,2408.58 996.164,4272.45 c 0,1863.87 1510.966,3374.84 3374.836,3374.84 1863.87,0 3374.84,-1510.97 3374.84,-3374.84 z"/></g></g></svg>
