<svg width="133" height="169" viewBox="0 0 133 169" fill="none" xmlns="http://www.w3.org/2000/svg">
<g clip-path="url(#clip0)" filter="url(#filter0_d)">
<path d="M128.333 95.9668C128.287 95.445 128.132 94.2017 127.759 92.59C127.558 91.7304 127.279 90.8708 126.906 90.0727C126.394 88.9982 125.898 87.8777 125.153 86.9567C123.292 84.6543 121.136 82.6743 118.25 81.6305C116.621 81.0319 115.024 80.4025 113.271 80.3872C110.122 80.3565 106.957 80.3718 103.808 80.3565C102.939 80.3565 102.769 80.203 102.846 79.3741C103.048 77.3173 103.25 75.2605 103.513 73.2037C103.637 72.206 103.591 71.3157 102.939 70.4561C102.319 69.6273 101.512 69.4124 100.566 69.4738C99.5266 69.5352 98.6734 69.965 98.3787 70.9934C98.115 71.945 97.9133 72.9274 97.8203 73.9097C97.448 77.8085 97.1687 81.7072 96.7964 85.5906C96.4552 89.0289 95.9898 92.4365 95.664 95.8747C95.3382 99.2823 95.1366 102.705 94.8263 106.113C94.454 110.058 93.9887 113.987 93.6164 117.916C93.2441 121.8 92.9493 125.699 92.5925 129.597C92.3288 132.544 92.0651 135.507 91.7549 138.439C91.5997 139.835 91.4446 141.248 91.0568 142.598C90.4363 144.778 89.4435 146.819 88.1559 148.707C85.9066 151.977 82.7731 154.233 79.1121 155.707C76.7387 156.658 74.1792 156.981 71.6041 156.981C59.6594 156.996 47.7148 157.011 35.7701 156.965C34.0327 156.965 32.2798 156.643 30.5424 156.459C30.3717 156.444 30.2011 156.367 30.0305 156.305C29.0066 155.922 27.9518 155.584 26.959 155.123C25.9196 154.648 24.8183 154.172 23.9496 153.45C22.5069 152.253 21.1728 150.887 19.8698 149.521C18.2099 147.756 17.2636 145.545 16.5966 143.304C16.0692 141.539 15.9916 139.636 15.7434 137.794C15.6503 137.134 15.7124 136.459 15.6348 135.799C15.2625 132.345 14.8437 128.891 14.4869 125.438C14.2852 123.504 14.1922 121.57 14.037 119.62C13.8664 117.563 13.6647 115.507 13.4941 113.434C13.4631 113.158 13.4476 112.867 13.4165 112.59C12.9822 108.738 12.5478 104.869 12.1445 101.017C12.0204 99.8809 12.0825 98.7144 11.9739 97.5632C11.6016 94.1863 11.1672 90.7941 10.8259 87.3865C10.6708 85.8362 10.6863 84.2706 10.5467 82.7203C10.3451 80.4639 10.0658 78.2076 9.84866 75.9359C9.74007 74.7847 9.84866 74.7079 11.0121 74.7079C29.2704 74.7079 47.5131 74.7079 65.7714 74.7386C66.8727 74.7386 67.6329 74.3549 68.3154 73.5874C69.0445 72.7892 68.9359 71.8376 68.6412 70.978C68.4085 70.2719 67.8966 69.6273 66.9968 69.5505C66.4849 69.5045 65.973 69.4277 65.4611 69.4277C62.0949 69.4124 58.7442 69.4277 55.378 69.4277C39.1363 69.4277 22.9102 69.4431 6.66859 69.4584C5.86193 69.4584 5.14836 69.6426 4.55888 70.3487C4.03145 70.978 3.95389 71.6534 4.01594 72.3595C4.26414 75.5828 4.52786 78.8216 4.83811 82.0449C5.24143 86.2353 5.72232 90.4257 6.15667 94.6161C6.34282 96.3506 6.49795 98.0697 6.65307 99.8042C6.85474 102.015 7.04089 104.24 7.22704 106.45C7.38216 108.338 7.5528 110.211 7.70793 112.099C7.73895 112.452 7.76998 112.805 7.81651 113.174C8.18881 116.55 8.62317 119.927 8.94893 123.304C9.33674 127.341 9.49187 131.424 10.0503 135.43C10.4381 138.254 10.252 141.155 11.2293 143.903C11.6171 144.993 11.7567 146.205 12.2531 147.249C13.0598 148.922 13.944 150.565 15.0143 152.069C15.9761 153.435 17.1395 154.694 18.3495 155.845C20.0249 157.426 21.9639 158.669 24.0737 159.667C26.1058 160.619 28.1535 161.447 30.4028 161.724C30.8216 161.77 31.2249 161.908 31.6438 161.985C46.3652 161.969 61.1021 161.969 75.8235 161.954C76.2578 161.877 76.6922 161.8 77.1265 161.693C78.3986 161.401 79.7016 161.186 80.9426 160.772C81.9509 160.434 82.9282 159.928 83.859 159.406C85.1465 158.669 86.4806 157.948 87.613 157.027C89.7537 155.292 91.7393 153.389 93.151 151.01C94.0662 149.46 94.9349 147.848 95.5865 146.175C96.1914 144.64 96.4707 142.997 96.874 141.386C97.0136 140.849 97.0601 140.281 97.0912 139.713C97.1998 138.101 97.2463 136.489 97.4169 134.893C97.541 133.665 97.7117 133.573 98.9372 133.573C103.281 133.573 107.624 133.573 111.968 133.573C112.433 133.573 112.898 133.558 113.364 133.496C116.203 133.036 118.979 132.345 121.291 130.564C122.547 129.582 123.788 128.508 124.781 127.28C124.859 127.188 126.193 125.484 127.123 123.289C128.938 118.93 129.636 111.516 128.333 95.9668ZM122.361 120.741C121.71 122.629 120.639 124.363 118.979 125.56C117.893 126.343 116.715 127.126 115.458 127.571C114.217 128.016 112.836 128.185 111.502 128.201C107.5 128.277 103.482 128.231 99.4801 128.231C98.3011 128.231 98.0995 127.863 98.2236 126.712C98.4408 124.732 98.5183 122.736 98.72 120.756C99.0613 117.379 99.4646 114.002 99.8214 110.626C99.8834 110.119 99.9144 109.612 99.961 109.091C100.116 107.31 100.287 105.53 100.426 103.749C100.597 101.708 100.721 99.666 100.907 97.6399C101.202 94.57 101.528 91.4848 101.854 88.4149C101.931 87.6782 102.086 86.9567 102.179 86.22C102.241 85.7902 102.443 85.5906 102.893 85.5906C106.15 85.606 109.439 85.3604 112.65 85.6827C116.249 86.0358 119.166 87.7703 121.136 90.9783C122.408 93.0351 122.811 95.2301 122.889 97.5018C122.997 100.587 122.92 103.688 122.92 106.788C122.92 109.966 122.811 113.143 122.966 116.305C123.059 117.855 122.857 119.344 122.361 120.741Z" fill="#69577F"/>
<path d="M55.9053 2.0284C55.9828 2.12049 56.2 2.22794 56.2931 2.59632C56.6033 3.83963 56.867 5.08293 57.1618 6.31088C57.5186 7.73838 57.9374 9.15052 58.2632 10.5934C58.651 12.3892 59.0698 14.1851 59.287 15.9964C59.4421 17.3625 59.4731 18.7746 59.2715 20.1254C59.0233 21.8752 58.5889 23.625 58.0615 25.3135C57.6116 26.7563 56.9601 28.1531 56.3086 29.5345C55.8587 30.5016 55.2227 31.3765 54.7573 32.3435C54.2609 33.3872 53.8886 34.4924 53.4233 35.5515C52.3684 37.9307 52.6476 40.4326 52.8027 42.8732C52.8958 44.3774 53.3922 45.8663 53.7645 47.3399C54.1213 48.7674 54.5557 50.1795 54.9745 51.5917C55.3468 52.8657 55.6726 54.155 56.1379 55.383C56.7585 56.9946 56.1845 58.7445 54.6798 59.4812C53.4853 60.0645 51.6083 59.1743 51.2515 57.8696C50.7241 55.9355 50.2122 53.9862 49.6537 52.0675C49.0487 49.9339 48.2421 47.8464 47.8232 45.6975C47.3268 43.1495 46.8925 40.5554 47.3734 37.9307C47.6991 36.1808 47.9163 34.4003 48.4282 32.6965C48.816 31.4225 49.5451 30.256 50.1811 29.0741C50.9412 27.6619 51.9651 26.3572 52.508 24.8837C53.718 21.6296 54.5246 18.2988 53.6094 14.7838C53.2061 13.2642 52.9889 11.6985 52.6166 10.1636C52.2908 8.81284 51.8255 7.47744 51.4997 6.12669C51.2825 5.23642 51.0809 4.31546 51.0653 3.40984C51.0498 2.81122 51.1584 2.19724 51.5617 1.75211C51.7944 1.49117 52.0426 1.36837 52.1978 1.29162C53.3302 0.723696 55.0055 1.01533 55.9053 2.0284Z" fill="#69577F"/>
<path d="M32.8537 59.6194C31.6748 59.6041 30.5423 58.5603 30.2321 57.317C29.8443 55.8128 29.3634 54.3392 28.9446 52.8503C28.6188 51.6684 28.3085 50.4865 27.9983 49.32C27.7191 48.2609 27.5329 47.1711 27.1451 46.158C26.2609 43.7788 26.4781 41.3229 26.5246 38.8824C26.5556 36.8256 27.1606 34.8915 27.8277 32.9575C28.5102 30.9621 29.6581 29.2276 30.6509 27.4164C31.38 26.0963 31.8144 24.6074 32.4349 23.226C33.1019 21.7217 33.0864 20.1561 33.1485 18.5598C33.195 17.5006 34.1723 16.3187 35.6925 16.2113C37.0111 16.1192 38.128 16.8099 38.3452 18.0532C38.4848 18.9128 38.4227 19.8184 38.4072 20.7087C38.3607 22.7962 37.7402 24.7456 36.9801 26.6796C36.2354 28.5676 35.072 30.21 34.1568 31.9751C33.4122 33.4333 32.9003 35.0143 32.3883 36.5646C31.8609 38.1456 31.5507 39.8187 31.7989 41.4764C32.0626 43.257 32.528 45.0068 32.9313 46.7566C33.226 48.0153 33.5673 49.2739 33.9241 50.5172C34.2809 51.7912 34.6687 53.0499 35.0565 54.3085C35.4598 55.5825 35.7546 56.8719 35.3047 58.2073C35.041 58.9901 33.9086 59.6348 32.8537 59.6194Z" fill="#69577F"/>
<path d="M67.7258 40.5554C68.0826 38.4832 68.2998 36.3496 68.8583 34.2928C69.4167 32.2667 70.2854 30.3327 71.5109 28.5828C71.8987 28.0303 72.3951 27.9228 72.9381 27.8154C74.1015 27.5851 75.1719 27.8614 75.7924 28.8745C76.3508 29.7801 76.2577 30.8545 75.7458 31.8216C74.8306 33.5714 73.9464 35.3059 73.7447 37.3166C73.6051 38.7595 73.2173 40.2177 73.3259 41.6298C73.45 43.2876 73.9774 44.9146 74.3652 46.5416C74.5514 47.3552 74.8151 48.1533 75.0323 48.9669C75.3735 50.2102 75.6993 51.4688 76.0406 52.7121C76.3508 53.8633 76.63 55.0299 77.0023 56.1657C77.3436 57.1941 76.8627 58.99 75.4201 59.4965C74.3807 59.8649 72.8295 59.7575 72.1624 58.1305C71.6815 56.9332 71.3092 55.6899 70.9369 54.4466C70.4871 52.973 70.0372 51.4842 69.6339 49.9799C69.2306 48.4757 68.8272 46.9714 68.517 45.4518C68.2067 43.8708 68.0051 42.2592 67.7258 40.5554Z" fill="#69577F"/>
<path d="M80.741 74.7079C80.0894 74.7079 79.4379 74.6465 78.8019 74.7233C77.4678 74.8768 76.6456 74.0479 76.1492 73.1116C75.4977 71.899 76.1027 70.0724 77.5764 69.6733C78.4761 69.4277 79.4689 69.4738 80.4152 69.4431C81.2374 69.4124 82.0595 69.4277 82.8972 69.4738C84.8673 69.5505 85.7205 71.0394 85.4258 72.8046C85.3017 73.526 83.89 74.7079 83.1454 74.7233C82.3388 74.7233 81.5476 74.7079 80.741 74.7079Z" fill="#69577F"/>
</g>
<defs>
<filter id="filter0_d" x="0.000488281" y="0" width="133" height="169" filterUnits="userSpaceOnUse" color-interpolation-filters="sRGB">
<feFlood flood-opacity="0" result="BackgroundImageFix"/>
<feColorMatrix in="SourceAlpha" type="matrix" values="0 0 0 0 0 0 0 0 0 0 0 0 0 0 0 0 0 0 127 0"/>
<feOffset dy="3"/>
<feGaussianBlur stdDeviation="2"/>
<feColorMatrix type="matrix" values="0 0 0 0 0.392157 0 0 0 0 0.345098 0 0 0 0 0.490196 0 0 0 0.2 0"/>
<feBlend mode="multiply" in2="BackgroundImageFix" result="effect1_dropShadow"/>
<feBlend mode="normal" in="SourceGraphic" in2="effect1_dropShadow" result="shape"/>
</filter>
<clipPath id="clip0">
<rect width="125" height="161" fill="white" transform="translate(4.00049 1)"/>
</clipPath>
</defs>
</svg>
