<svg width="408" height="674" viewBox="0 0 408 674" fill="none" xmlns="http://www.w3.org/2000/svg">
<g filter="url(#filter0_d)">
<path d="M119.408 17.4495C117.892 17.8581 116.375 18.2668 114.721 18.675C84.5277 27.2618 54.8625 43.4264 38.1144 69.9613C12.0929 111.07 20.8754 167.574 24.5938 213.318C27.7829 251.897 35.3816 289.939 36.5041 328.65C37.1231 351.657 37.048 376.451 31.1954 398.611C11.8267 471.698 3.48458 542.614 60.1952 602.018C105.234 649.265 176.54 665.322 238.988 649.532C270.144 641.637 299.257 625.746 322.741 603.915C347.744 580.711 360.516 547.966 372.457 516.733C399.254 446.975 397.502 388.563 394.302 308.383C390.59 214.84 388.118 167.033 357.278 116.386C331.646 74.2945 296.759 40.7156 249.84 23.2169C208.286 7.8008 162.145 6.14574 119.408 17.4495Z" fill="#F9E9F4"/>
</g>
<g clip-path="url(#clip0)" filter="url(#filter1_d)">
<path d="M268.333 327.967C268.287 327.445 268.132 326.202 267.759 324.59C267.558 323.73 267.279 322.871 266.906 322.073C266.394 320.998 265.898 319.878 265.153 318.957C263.292 316.654 261.136 314.674 258.25 313.63C256.621 313.032 255.024 312.403 253.271 312.387C250.122 312.357 246.957 312.372 243.808 312.356C242.939 312.356 242.769 312.203 242.846 311.374C243.048 309.317 243.25 307.26 243.513 305.204C243.637 304.206 243.591 303.316 242.939 302.456C242.319 301.627 241.512 301.412 240.566 301.474C239.527 301.535 238.673 301.965 238.379 302.993C238.115 303.945 237.913 304.927 237.82 305.91C237.448 309.808 237.169 313.707 236.796 317.591C236.455 321.029 235.99 324.436 235.664 327.875C235.338 331.282 235.137 334.705 234.826 338.113C234.454 342.058 233.989 345.987 233.616 349.916C233.244 353.8 232.949 357.699 232.593 361.597C232.329 364.544 232.065 367.507 231.755 370.439C231.6 371.835 231.445 373.248 231.057 374.598C230.436 376.778 229.443 378.819 228.156 380.707C225.907 383.977 222.773 386.233 219.112 387.707C216.739 388.658 214.179 388.981 211.604 388.981C199.659 388.996 187.715 389.011 175.77 388.965C174.033 388.965 172.28 388.643 170.542 388.459C170.372 388.444 170.201 388.367 170.03 388.305C169.007 387.922 167.952 387.584 166.959 387.123C165.92 386.648 164.818 386.172 163.95 385.45C162.507 384.253 161.173 382.887 159.87 381.521C158.21 379.756 157.264 377.545 156.597 375.304C156.069 373.539 155.992 371.636 155.743 369.794C155.65 369.134 155.712 368.459 155.635 367.799C155.263 364.345 154.844 360.891 154.487 357.438C154.285 355.504 154.192 353.57 154.037 351.62C153.866 349.563 153.665 347.507 153.494 345.434C153.463 345.158 153.448 344.867 153.417 344.59C152.982 340.738 152.548 336.869 152.145 333.017C152.02 331.881 152.082 330.714 151.974 329.563C151.602 326.186 151.167 322.794 150.826 319.387C150.671 317.836 150.686 316.271 150.547 314.72C150.345 312.464 150.066 310.208 149.849 307.936C149.74 306.785 149.849 306.708 151.012 306.708C169.27 306.708 187.513 306.708 205.771 306.739C206.873 306.739 207.633 306.355 208.315 305.587C209.045 304.789 208.936 303.838 208.641 302.978C208.408 302.272 207.897 301.627 206.997 301.551C206.485 301.504 205.973 301.428 205.461 301.428C202.095 301.412 198.744 301.428 195.378 301.428C179.136 301.428 162.91 301.443 146.669 301.458C145.862 301.458 145.148 301.643 144.559 302.349C144.031 302.978 143.954 303.653 144.016 304.359C144.264 307.583 144.528 310.822 144.838 314.045C145.241 318.235 145.722 322.426 146.157 326.616C146.343 328.351 146.498 330.07 146.653 331.804C146.855 334.015 147.041 336.24 147.227 338.45C147.382 340.338 147.553 342.211 147.708 344.099C147.739 344.452 147.77 344.805 147.817 345.174C148.189 348.55 148.623 351.927 148.949 355.304C149.337 359.341 149.492 363.424 150.05 367.43C150.438 370.254 150.252 373.155 151.229 375.903C151.617 376.993 151.757 378.205 152.253 379.249C153.06 380.922 153.944 382.565 155.014 384.069C155.976 385.435 157.14 386.694 158.35 387.845C160.025 389.426 161.964 390.669 164.074 391.667C166.106 392.619 168.153 393.447 170.403 393.724C170.822 393.77 171.225 393.908 171.644 393.985C186.365 393.969 201.102 393.969 215.823 393.954C216.258 393.877 216.692 393.8 217.127 393.693C218.399 393.401 219.702 393.186 220.943 392.772C221.951 392.434 222.928 391.928 223.859 391.406C225.147 390.669 226.481 389.948 227.613 389.027C229.754 387.292 231.739 385.389 233.151 383.01C234.066 381.46 234.935 379.848 235.586 378.175C236.191 376.64 236.471 374.997 236.874 373.386C237.014 372.849 237.06 372.281 237.091 371.713C237.2 370.101 237.246 368.489 237.417 366.893C237.541 365.665 237.712 365.573 238.937 365.573C243.281 365.573 247.624 365.573 251.968 365.573C252.433 365.573 252.898 365.558 253.364 365.496C256.203 365.036 258.979 364.345 261.291 362.564C262.547 361.582 263.788 360.508 264.781 359.28C264.859 359.188 266.193 357.484 267.123 355.289C268.938 350.93 269.636 343.516 268.333 327.967ZM262.361 352.741C261.71 354.629 260.639 356.363 258.979 357.56C257.893 358.343 256.715 359.126 255.458 359.571C254.217 360.016 252.836 360.185 251.502 360.201C247.5 360.277 243.482 360.231 239.48 360.231C238.301 360.231 238.099 359.863 238.224 358.712C238.441 356.732 238.518 354.736 238.72 352.756C239.061 349.379 239.465 346.002 239.821 342.626C239.883 342.119 239.914 341.612 239.961 341.091C240.116 339.31 240.287 337.53 240.426 335.749C240.597 333.708 240.721 331.666 240.907 329.64C241.202 326.57 241.528 323.485 241.854 320.415C241.931 319.678 242.086 318.957 242.179 318.22C242.241 317.79 242.443 317.591 242.893 317.591C246.15 317.606 249.439 317.36 252.65 317.683C256.249 318.036 259.166 319.77 261.136 322.978C262.408 325.035 262.811 327.23 262.889 329.502C262.997 332.587 262.92 335.688 262.92 338.788C262.92 341.966 262.811 345.143 262.966 348.305C263.059 349.855 262.857 351.344 262.361 352.741Z" fill="#69577F"/>
<path d="M195.905 234.028C195.983 234.12 196.2 234.228 196.293 234.596C196.603 235.84 196.867 237.083 197.162 238.311C197.519 239.738 197.937 241.151 198.263 242.593C198.651 244.389 199.07 246.185 199.287 247.996C199.442 249.362 199.473 250.775 199.271 252.125C199.023 253.875 198.589 255.625 198.062 257.313C197.612 258.756 196.96 260.153 196.309 261.535C195.859 262.502 195.223 263.376 194.757 264.343C194.261 265.387 193.889 266.492 193.423 267.552C192.368 269.931 192.648 272.433 192.803 274.873C192.896 276.377 193.392 277.866 193.765 279.34C194.121 280.767 194.556 282.18 194.975 283.592C195.347 284.866 195.673 286.155 196.138 287.383C196.758 288.995 196.184 290.744 194.68 291.481C193.485 292.065 191.608 291.174 191.251 289.87C190.724 287.936 190.212 285.986 189.654 284.067C189.049 281.934 188.242 279.846 187.823 277.697C187.327 275.149 186.892 272.555 187.373 269.931C187.699 268.181 187.916 266.4 188.428 264.697C188.816 263.423 189.545 262.256 190.181 261.074C190.941 259.662 191.965 258.357 192.508 256.884C193.718 253.63 194.525 250.299 193.609 246.784C193.206 245.264 192.989 243.699 192.617 242.164C192.291 240.813 191.825 239.477 191.5 238.127C191.283 237.236 191.081 236.315 191.065 235.41C191.05 234.811 191.158 234.197 191.562 233.752C191.794 233.491 192.043 233.368 192.198 233.292C193.33 232.724 195.006 233.015 195.905 234.028Z" fill="#69577F"/>
<path d="M172.854 291.619C171.675 291.604 170.542 290.56 170.232 289.317C169.844 287.813 169.363 286.339 168.945 284.85C168.619 283.668 168.309 282.487 167.998 281.32C167.719 280.261 167.533 279.171 167.145 278.158C166.261 275.779 166.478 273.323 166.525 270.882C166.556 268.826 167.161 266.892 167.828 264.958C168.51 262.962 169.658 261.228 170.651 259.416C171.38 258.096 171.814 256.607 172.435 255.226C173.102 253.722 173.086 252.156 173.148 250.56C173.195 249.501 174.172 248.319 175.693 248.211C177.011 248.119 178.128 248.81 178.345 250.053C178.485 250.913 178.423 251.818 178.407 252.709C178.361 254.796 177.74 256.746 176.98 258.68C176.235 260.568 175.072 262.21 174.157 263.975C173.412 265.433 172.9 267.014 172.388 268.565C171.861 270.146 171.551 271.819 171.799 273.476C172.063 275.257 172.528 277.007 172.931 278.757C173.226 280.015 173.567 281.274 173.924 282.517C174.281 283.791 174.669 285.05 175.056 286.309C175.46 287.583 175.755 288.872 175.305 290.207C175.041 290.99 173.909 291.635 172.854 291.619Z" fill="#69577F"/>
<path d="M207.726 272.555C208.083 270.483 208.3 268.35 208.858 266.293C209.417 264.267 210.285 262.333 211.511 260.583C211.899 260.03 212.395 259.923 212.938 259.815C214.101 259.585 215.172 259.861 215.792 260.874C216.351 261.78 216.258 262.855 215.746 263.822C214.831 265.571 213.946 267.306 213.745 269.317C213.605 270.759 213.217 272.218 213.326 273.63C213.45 275.288 213.977 276.915 214.365 278.542C214.551 279.355 214.815 280.153 215.032 280.967C215.374 282.21 215.699 283.469 216.041 284.712C216.351 285.863 216.63 287.03 217.002 288.166C217.344 289.194 216.863 290.99 215.42 291.497C214.381 291.865 212.829 291.757 212.162 290.13C211.682 288.933 211.309 287.69 210.937 286.447C210.487 284.973 210.037 283.484 209.634 281.98C209.231 280.476 208.827 278.971 208.517 277.452C208.207 275.871 208.005 274.259 207.726 272.555Z" fill="#69577F"/>
<path d="M220.741 306.708C220.089 306.708 219.438 306.647 218.802 306.723C217.468 306.877 216.646 306.048 216.149 305.112C215.498 303.899 216.103 302.072 217.576 301.673C218.476 301.428 219.469 301.474 220.415 301.443C221.237 301.412 222.06 301.428 222.897 301.474C224.867 301.551 225.72 303.039 225.426 304.805C225.302 305.526 223.89 306.708 223.145 306.723C222.339 306.723 221.548 306.708 220.741 306.708Z" fill="#69577F"/>
</g>
<defs>
<filter id="filter0_d" x="0.122803" y="0.640625" width="407.043" height="672.392" filterUnits="userSpaceOnUse" color-interpolation-filters="sRGB">
<feFlood flood-opacity="0" result="BackgroundImageFix"/>
<feColorMatrix in="SourceAlpha" type="matrix" values="0 0 0 0 0 0 0 0 0 0 0 0 0 0 0 0 0 0 127 0"/>
<feOffset dx="-3" dy="4"/>
<feGaussianBlur stdDeviation="6.5"/>
<feColorMatrix type="matrix" values="0 0 0 0 0.411765 0 0 0 0 0.341176 0 0 0 0 0.498039 0 0 0 0.2 0"/>
<feBlend mode="multiply" in2="BackgroundImageFix" result="effect1_dropShadow"/>
<feBlend mode="normal" in="SourceGraphic" in2="effect1_dropShadow" result="shape"/>
</filter>
<filter id="filter1_d" x="140" y="232" width="133" height="169" filterUnits="userSpaceOnUse" color-interpolation-filters="sRGB">
<feFlood flood-opacity="0" result="BackgroundImageFix"/>
<feColorMatrix in="SourceAlpha" type="matrix" values="0 0 0 0 0 0 0 0 0 0 0 0 0 0 0 0 0 0 127 0"/>
<feOffset dy="3"/>
<feGaussianBlur stdDeviation="2"/>
<feColorMatrix type="matrix" values="0 0 0 0 0.392157 0 0 0 0 0.345098 0 0 0 0 0.490196 0 0 0 0.2 0"/>
<feBlend mode="multiply" in2="BackgroundImageFix" result="effect1_dropShadow"/>
<feBlend mode="normal" in="SourceGraphic" in2="effect1_dropShadow" result="shape"/>
</filter>
<clipPath id="clip0">
<rect width="125" height="161" fill="white" transform="translate(144 233)"/>
</clipPath>
</defs>
</svg>
