<svg width="527" height="516" viewBox="0 0 527 516" fill="none" xmlns="http://www.w3.org/2000/svg">
<g filter="url(#filter0_d)">
<path d="M493.468 200.389C497.37 217.669 518.254 233.514 518.254 252C518.254 270.486 497.37 286.331 493.468 303.611C489.452 321.466 501.271 344.774 493.468 360.906C485.608 377.268 459.904 382.549 448.717 396.615C437.414 410.737 437.988 436.974 423.873 448.226C409.817 459.478 384.4 453.106 368.048 461.028C351.984 468.779 341.082 492.661 323.296 496.737C306.027 500.641 285.946 483.935 267.471 483.935C249.054 483.935 228.916 500.641 211.646 496.737C193.803 492.718 182.959 468.779 166.894 461.028C150.543 453.163 125.126 459.478 111.069 448.226C96.955 436.974 97.4714 410.737 86.2261 396.615C74.9807 382.549 49.3344 377.268 41.4168 360.906C33.6713 344.831 45.4903 321.466 41.4168 303.611C37.5153 286.331 16.6311 270.486 16.6311 252C16.6311 233.514 37.5153 217.669 41.4168 200.389C45.4903 182.534 33.6713 159.226 41.4168 143.094C49.3344 126.732 74.9807 121.451 86.2261 107.385C97.4714 93.2625 96.955 67.0838 111.069 55.7741C125.126 44.5218 150.543 50.8943 166.894 42.9717C182.959 35.2215 193.803 11.2817 211.646 7.26299C228.916 3.35914 248.997 20.0653 267.471 20.0653C285.946 20.0653 306.027 3.35914 323.296 7.26299C341.082 11.2817 351.984 35.2215 368.048 42.9717C384.4 50.8369 409.817 44.5218 423.873 55.7741C437.988 67.0838 437.414 93.2625 448.717 107.385C459.962 121.451 485.608 126.675 493.468 143.037C501.271 159.226 489.452 182.534 493.468 200.389Z" fill="#F9E9F4"/>
<path d="M193.86 388.577C193.86 389.496 193.86 390.759 193.917 392.309C193.917 392.366 193.917 392.481 193.86 392.539C193.803 392.596 193.745 392.653 193.631 392.653H193.573C193.516 392.653 193.458 392.596 193.401 392.539C193.344 392.481 193.344 392.424 193.344 392.366C193.344 391.505 193.286 390.127 193.286 388.175C193.286 385.822 193.286 383.525 193.344 381.286C192.713 382.836 191.909 384.903 190.991 387.544C190.073 390.127 189.5 391.792 189.385 392.424C189.328 392.596 189.213 392.653 189.041 392.653C188.983 392.653 188.869 392.596 188.869 392.539C188.811 392.481 188.811 392.424 188.811 392.424C188.811 392.309 188.467 391.505 187.836 390.013C187.205 388.52 186.688 387.314 186.344 386.453C185.369 384.214 184.623 382.492 183.992 381.286C183.992 381.918 183.992 382.779 183.934 383.927V384.157C183.877 385.764 183.877 387.085 183.877 388.175C183.877 388.577 183.877 388.979 183.877 389.324V390.3C183.877 390.931 183.877 391.62 183.82 392.309C183.82 392.366 183.762 392.481 183.705 392.539C183.647 392.596 183.59 392.596 183.475 392.596C183.418 392.596 183.303 392.539 183.246 392.481C183.188 392.424 183.188 392.366 183.188 392.251C183.188 391.677 183.246 391.218 183.246 390.874V390.3V389.324V388.175C183.246 387.257 183.246 385.936 183.303 384.157C183.303 384.042 183.303 383.927 183.303 383.927C183.361 382.262 183.361 381.057 183.361 380.138C183.361 380.081 183.418 379.966 183.475 379.908C183.533 379.851 183.59 379.851 183.705 379.851C183.762 379.851 183.82 379.851 183.877 379.908C183.934 379.908 183.992 379.966 184.049 380.023C184.91 381.688 185.828 383.755 186.86 386.166C187.033 386.568 187.778 388.29 189.098 391.39C189.5 390.013 190.246 387.946 191.278 385.133C192.311 382.377 192.999 380.597 193.401 379.794C193.401 379.794 193.458 379.736 193.516 379.679C193.573 379.564 193.688 379.507 193.803 379.507C193.917 379.507 193.975 379.564 194.032 379.621C194.09 379.679 194.147 379.736 194.147 379.851C193.917 382.951 193.86 385.822 193.86 388.577Z" fill="#69577F" stroke="#69587F" stroke-width="1.0013" stroke-miterlimit="10"/>
<path d="M207.63 392.481C207.63 392.596 207.572 392.711 207.458 392.768C207.4 392.768 207.343 392.826 207.343 392.826C207.228 392.826 207.171 392.768 207.056 392.653C206.827 392.194 206.425 390.874 205.679 388.807L205.564 388.405L205.277 387.601L204.933 386.453C204.876 386.338 204.876 386.224 204.818 386.166L204.532 385.19L204.187 384.157C203.728 384.214 203.212 384.214 202.696 384.214C202.466 384.214 202.294 384.214 202.122 384.214C201.95 384.214 201.72 384.214 201.491 384.214C200.286 387.372 199.425 390.127 198.794 392.481C198.794 392.539 198.737 392.596 198.679 392.653C198.622 392.711 198.565 392.711 198.507 392.711C198.393 392.711 198.335 392.653 198.278 392.596C198.22 392.539 198.22 392.424 198.22 392.309C198.909 389.783 199.884 386.855 201.147 383.525C201.147 383.525 201.204 383.468 201.261 383.296C201.319 383.238 201.319 383.181 201.319 383.123C201.319 383.066 201.319 383.066 201.319 383.066C201.778 381.86 202.122 380.942 202.294 380.31V380.253L202.351 380.081C202.351 380.081 202.351 380.023 202.351 379.966L202.409 379.794C202.409 379.736 202.466 379.679 202.524 379.679C202.581 379.621 202.638 379.564 202.753 379.564C202.868 379.564 202.925 379.621 203.04 379.679C203.097 379.736 203.155 379.794 203.155 379.851C203.212 379.908 203.269 380.081 203.384 380.253C203.499 380.483 203.671 380.942 203.958 381.688C204.302 382.664 204.818 384.099 205.45 386.051L205.564 386.338L205.851 387.199C206.023 387.831 206.138 388.118 206.195 388.233C206.253 388.405 206.31 388.577 206.31 388.692C206.999 390.759 207.458 392.022 207.63 392.481C207.63 392.366 207.63 392.424 207.63 392.481ZM203.958 383.583C203.499 382.147 203.097 381.172 202.81 380.54C202.581 381.286 202.294 382.205 201.892 383.238C201.892 383.238 201.835 383.353 201.778 383.583L202.753 383.64C203.212 383.64 203.614 383.583 203.958 383.583Z" fill="#69577F"/>
<path d="M207.63 392.481C207.63 392.596 207.572 392.711 207.458 392.768C207.4 392.768 207.343 392.826 207.343 392.826C207.228 392.826 207.171 392.768 207.056 392.653C206.827 392.194 206.425 390.874 205.679 388.807L205.564 388.405L205.277 387.601L204.933 386.453C204.876 386.338 204.876 386.224 204.818 386.166L204.532 385.19L204.187 384.157C203.728 384.214 203.212 384.214 202.696 384.214C202.466 384.214 202.294 384.214 202.122 384.214C201.95 384.214 201.72 384.214 201.491 384.214C200.286 387.372 199.425 390.127 198.794 392.481C198.794 392.539 198.737 392.596 198.679 392.653C198.622 392.711 198.565 392.711 198.507 392.711C198.393 392.711 198.335 392.653 198.278 392.596C198.22 392.539 198.22 392.424 198.22 392.309C198.909 389.783 199.884 386.855 201.147 383.525C201.147 383.525 201.204 383.468 201.261 383.296C201.319 383.238 201.319 383.181 201.319 383.123C201.319 383.066 201.319 383.066 201.319 383.066C201.778 381.86 202.122 380.942 202.294 380.31V380.253L202.351 380.081C202.351 380.081 202.351 380.023 202.351 379.966L202.409 379.794C202.409 379.736 202.466 379.679 202.524 379.679C202.581 379.621 202.638 379.564 202.753 379.564C202.868 379.564 202.925 379.621 203.04 379.679C203.097 379.736 203.155 379.794 203.155 379.851C203.212 379.908 203.269 380.081 203.384 380.253C203.499 380.483 203.671 380.942 203.958 381.688C204.302 382.664 204.818 384.099 205.45 386.051L205.564 386.338L205.851 387.199C206.023 387.831 206.138 388.118 206.195 388.233C206.253 388.405 206.31 388.577 206.31 388.692C206.999 390.759 207.458 392.022 207.63 392.481ZM207.63 392.481C207.63 392.366 207.63 392.424 207.63 392.481ZM203.958 383.583C203.499 382.147 203.097 381.172 202.81 380.54C202.581 381.286 202.294 382.205 201.892 383.238C201.892 383.238 201.835 383.353 201.778 383.583L202.753 383.64C203.212 383.64 203.614 383.583 203.958 383.583Z" stroke="#69587F" stroke-width="1.0013" stroke-miterlimit="10"/>
<path d="M213.597 379.564C215.49 379.564 217.154 380.081 218.588 381.057C219.334 381.573 219.908 382.205 220.367 382.951C220.826 383.697 221.113 384.444 221.17 385.305C221.17 385.592 221.227 385.764 221.227 385.936C221.227 386.683 221.055 387.372 220.768 388.061C220.482 388.75 220.023 389.381 219.449 389.955C217.957 391.39 215.777 392.251 212.851 392.539C212.736 392.539 212.679 392.481 212.621 392.424C212.507 392.424 212.392 392.309 212.392 392.137C212.334 391.677 212.277 389.668 212.22 386.109C212.22 385.649 212.22 384.961 212.22 384.157C212.22 383.353 212.162 382.722 212.162 382.262C212.162 381.057 212.105 380.31 212.105 380.023C212.105 379.908 212.162 379.794 212.277 379.794C212.334 379.736 212.392 379.679 212.507 379.621C212.793 379.564 213.195 379.564 213.597 379.564ZM212.679 382.262L212.736 384.157L212.793 386.109C212.851 389.266 212.908 391.218 212.966 391.907C215.605 391.62 217.613 390.816 219.047 389.496C219.564 388.979 219.965 388.405 220.252 387.831C220.539 387.199 220.654 386.568 220.654 385.936C220.654 385.075 220.424 384.272 220.023 383.525C219.621 382.779 219.047 382.147 218.301 381.631C217.039 380.712 215.49 380.253 213.654 380.253C213.425 380.253 213.138 380.253 212.736 380.31L212.679 382.262Z" fill="#69577F" stroke="#69587F" stroke-width="1.0013" stroke-miterlimit="10"/>
<path d="M228.055 379.449H229.088C229.891 379.449 230.58 379.449 231.268 379.392H231.326C231.383 379.392 231.44 379.392 231.498 379.449C231.555 379.507 231.555 379.564 231.612 379.679C231.612 379.736 231.612 379.851 231.555 379.908C231.498 379.966 231.44 380.023 231.326 380.023C230.809 380.023 230.35 380.081 229.834 380.081H229.088C228.399 380.081 227.768 380.081 227.137 380.138V380.942C227.137 381.401 227.137 382.205 227.08 383.41C227.252 383.41 227.539 383.41 228.055 383.41C228.17 383.41 228.285 383.41 228.342 383.41L230.006 383.468C230.063 383.468 230.178 383.525 230.235 383.583C230.293 383.64 230.293 383.697 230.293 383.812C230.293 383.927 230.235 383.985 230.178 384.042C230.121 384.099 230.063 384.099 229.949 384.099C229.834 384.099 229.547 384.099 229.145 384.099H228.342C228.285 384.099 228.17 384.099 228.055 384.099C227.596 384.099 227.252 384.099 227.08 384.099C227.08 384.444 227.08 384.731 227.08 384.903L226.965 386.855C226.85 389.438 226.85 391.161 226.85 392.079C227.252 392.079 227.998 392.079 229.088 392.022H229.203L231.612 391.964C231.67 391.964 231.785 392.022 231.842 392.079C231.899 392.137 231.957 392.194 231.957 392.309C231.957 392.366 231.899 392.481 231.842 392.539C231.785 392.596 231.727 392.653 231.612 392.653C231.211 392.653 230.408 392.653 229.26 392.711H229.145C228.285 392.711 227.711 392.768 227.481 392.768H226.678C226.678 392.768 226.621 392.768 226.563 392.768C226.506 392.768 226.391 392.711 226.334 392.653C226.277 392.596 226.219 392.539 226.219 392.424C226.219 391.218 226.277 389.381 226.391 386.855L226.449 384.903C226.506 383.583 226.506 382.32 226.506 381.057V380.081C226.506 380.081 226.506 380.023 226.506 379.966V379.908C226.506 379.851 226.563 379.794 226.621 379.736C226.678 379.679 226.736 379.621 226.793 379.621C227.195 379.507 227.596 379.449 228.055 379.449Z" fill="#69577F" stroke="#69587F" stroke-width="1.0013" stroke-miterlimit="10"/>
<path d="M260.529 380.023C260.586 380.081 260.586 380.195 260.586 380.253C260.414 381.057 259.84 383.066 258.865 386.223H258.808V386.281H258.865C257.832 389.668 257.259 391.792 257.086 392.539C257.086 392.539 257.086 392.596 257.086 392.653C257.086 392.768 257.029 392.826 256.972 392.883C256.914 392.94 256.8 392.998 256.742 392.998C256.57 392.998 256.455 392.883 256.341 392.596L256.226 392.309L256.111 391.907C256.054 391.735 255.939 391.448 255.824 391.046C255.709 390.644 255.652 390.357 255.537 390.127L255.48 390.012L255.021 388.348C254.332 386.051 253.759 383.583 253.3 380.999C253.013 381.803 252.841 382.607 252.611 383.296V383.353L252.324 384.272C251.693 386.396 251.177 388.061 250.833 389.151C250.488 390.3 250.087 391.448 249.685 392.539C249.628 392.596 249.628 392.653 249.513 392.711C249.456 392.768 249.398 392.768 249.284 392.711H249.226C249.111 392.711 249.054 392.653 248.997 392.539C248.767 391.792 248.48 390.988 248.251 390.012C247.964 389.094 247.734 388.061 247.39 386.912C247.333 386.798 247.333 386.74 247.333 386.683C246.874 385.075 246.53 383.755 246.3 382.894C246.013 381.975 245.726 381.114 245.439 380.195C245.439 380.195 245.439 380.138 245.439 380.081C245.439 379.966 245.497 379.851 245.612 379.794C245.612 379.794 245.669 379.794 245.726 379.794C245.841 379.794 245.956 379.851 246.013 379.966C246.357 380.827 246.644 381.746 246.931 382.721C247.218 383.64 247.562 384.903 247.964 386.51L248.021 386.683C248.538 388.749 248.997 390.357 249.398 391.563C249.743 390.472 250.144 389.266 250.603 387.888C251.005 386.511 251.521 384.96 252.037 383.181C252.037 383.181 252.037 383.181 252.037 383.123C252.267 382.434 252.324 382.09 252.324 382.09C252.611 381.171 252.841 380.368 253.013 379.679V379.621C253.013 379.449 253.128 379.334 253.3 379.334H253.357C253.414 379.334 253.529 379.334 253.587 379.392C253.644 379.449 253.644 379.507 253.701 379.564C254.218 382.779 254.906 385.649 255.652 388.118L256.168 389.725L256.226 389.898L256.513 390.816L256.742 391.563L256.914 390.988C256.972 390.874 256.972 390.701 257.029 390.529C257.086 390.357 257.144 390.127 257.201 389.898L258.349 385.994H258.406V385.936H258.349C259.267 382.836 259.84 380.827 260.07 380.023C260.07 379.851 260.185 379.794 260.357 379.794C260.357 379.908 260.472 379.966 260.529 380.023Z" fill="#69577F" stroke="#69587F" stroke-width="1.0013" stroke-miterlimit="10"/>
<path d="M266.897 386.224V387.659C266.897 388.118 266.897 388.405 266.897 388.635V392.366V392.424C266.84 392.539 266.725 392.653 266.611 392.653C266.553 392.653 266.438 392.653 266.381 392.596C266.324 392.539 266.324 392.539 266.324 392.481C266.324 392.481 266.324 392.424 266.324 392.366C266.324 390.472 266.324 388.922 266.324 387.659C266.324 387.429 266.324 386.97 266.324 386.224C266.266 383.525 266.266 381.516 266.266 380.138C266.266 380.023 266.324 379.908 266.381 379.794C266.438 379.736 266.496 379.679 266.611 379.679C266.668 379.679 266.783 379.736 266.84 379.794C266.897 379.851 266.897 379.966 266.897 380.138C266.84 381.459 266.84 383.525 266.897 386.224Z" fill="#69577F" stroke="#69587F" stroke-width="1.0013" stroke-miterlimit="10"/>
<path d="M281.356 379.794C281.413 379.851 281.471 379.908 281.471 380.023C281.471 380.138 281.471 380.195 281.413 380.253C281.356 380.31 281.299 380.368 281.184 380.368H280.782C280.381 380.368 279.635 380.368 278.659 380.368H277.627H277.512H277.454C277.454 381.631 277.454 383.238 277.397 385.133C277.397 385.477 277.397 385.822 277.397 386.223C277.34 387.716 277.34 389.037 277.34 390.242C277.34 390.874 277.34 391.62 277.397 392.481C277.397 392.539 277.397 392.653 277.34 392.711C277.282 392.768 277.225 392.826 277.11 392.826C276.995 392.826 276.938 392.826 276.881 392.768C276.823 392.711 276.766 392.653 276.766 392.539C276.766 392.079 276.766 391.276 276.766 390.127C276.766 388.52 276.766 387.257 276.823 386.281C276.823 385.879 276.823 385.535 276.823 385.19C276.881 383.296 276.881 381.746 276.881 380.483L274.241 380.425C273.782 380.425 273.438 380.425 273.266 380.425C273.209 380.425 273.094 380.368 273.037 380.31C272.979 380.253 272.979 380.195 272.979 380.081C272.979 379.966 273.037 379.908 273.094 379.851C273.151 379.794 273.209 379.736 273.323 379.736C273.496 379.736 273.84 379.736 274.299 379.736C276.479 379.794 278.028 379.794 278.946 379.794C279.749 379.794 280.381 379.794 280.782 379.794H281.184C281.241 379.679 281.299 379.736 281.356 379.794Z" fill="#69577F" stroke="#69587F" stroke-width="1.0013" stroke-miterlimit="10"/>
<path d="M294.667 383.755V383.812V383.927L294.609 387.831V388.175C294.609 389.266 294.609 390.529 294.609 392.022C294.609 392.079 294.552 392.194 294.495 392.251C294.437 392.309 294.38 392.366 294.265 392.366C294.15 392.366 294.093 392.309 294.036 392.251C293.978 392.194 293.921 392.137 293.921 392.022C293.921 390.529 293.921 389.266 293.921 388.175C293.921 388.061 293.921 387.946 293.921 387.831C293.921 386.798 293.921 385.535 293.921 384.157L290.019 384.214C289.79 384.214 289.56 384.214 289.331 384.214C288.987 384.214 288.757 384.214 288.585 384.214H286.118C286.061 386.396 286.061 388.979 286.061 391.964C286.061 392.022 286.061 392.137 286.003 392.194C285.946 392.251 285.888 392.309 285.774 392.309C285.659 392.309 285.602 392.251 285.544 392.194C285.487 392.137 285.429 392.079 285.429 391.964C285.429 388.864 285.429 386.223 285.487 383.984V383.927V383.87C285.487 382.147 285.544 380.884 285.544 380.081C285.544 380.023 285.602 379.908 285.659 379.851C285.716 379.794 285.774 379.794 285.888 379.794C286.003 379.794 286.061 379.851 286.118 379.908C286.175 379.966 286.233 380.023 286.233 380.138C286.233 380.884 286.175 382.09 286.175 383.697H288.585C288.757 383.697 288.987 383.697 289.388 383.697C289.675 383.697 289.905 383.697 290.134 383.697L294.036 383.64C294.036 382.836 294.036 381.573 293.978 379.966C293.978 379.908 294.036 379.794 294.093 379.736C294.15 379.679 294.208 379.621 294.322 379.621C294.437 379.621 294.495 379.679 294.552 379.736C294.609 379.794 294.667 379.851 294.667 379.966C294.667 381.573 294.667 382.836 294.667 383.755Z" fill="#69577F" stroke="#69587F" stroke-width="1.0013" stroke-miterlimit="10"/>
<path d="M309.928 386.338C309.928 387.372 309.928 388.348 309.928 389.209V389.496L309.871 392.079C311.477 392.079 313.199 392.137 315.092 392.137C315.149 392.137 315.264 392.194 315.321 392.252C315.379 392.309 315.436 392.366 315.436 392.481C315.436 392.596 315.379 392.653 315.321 392.711C315.264 392.768 315.207 392.826 315.092 392.826C313.141 392.826 311.305 392.826 309.527 392.768C309.469 392.768 309.355 392.711 309.297 392.653C309.24 392.596 309.182 392.539 309.182 392.424C309.182 392.366 309.182 392.366 309.182 392.309L309.24 389.553V389.266C309.24 388.405 309.24 387.429 309.24 386.396C309.24 384.042 309.297 381.975 309.354 380.253C309.354 380.196 309.412 380.081 309.469 380.023C309.527 379.966 309.584 379.966 309.699 379.966C309.756 379.966 309.871 380.023 309.928 380.081C309.986 380.138 309.986 380.196 309.986 380.31C309.928 381.918 309.928 383.985 309.928 386.338Z" fill="#69577F" stroke="#69587F" stroke-width="1.0013" stroke-miterlimit="10"/>
<path d="M329.034 381.918C329.263 382.779 329.321 383.583 329.321 384.386C329.321 385.822 329.034 387.199 328.46 388.52C327.886 389.783 327.141 390.816 326.223 391.563C325.419 392.194 324.616 392.539 323.755 392.539C323.354 392.539 323.01 392.481 322.665 392.309C322.092 392.079 321.575 391.62 321.174 390.988C320.715 390.357 320.37 389.611 320.141 388.692C319.911 387.831 319.797 386.912 319.797 385.994C319.797 384.788 320.026 383.697 320.428 382.779C320.772 382.09 321.174 381.458 321.633 380.942C322.149 380.425 322.665 379.966 323.296 379.679C324.042 379.334 324.731 379.105 325.419 379.105C325.936 379.105 326.395 379.22 326.854 379.392C327.772 379.794 328.46 380.597 328.862 381.631C328.977 381.803 329.034 381.86 329.034 381.918ZM327.427 380.54C326.854 380.023 326.223 379.736 325.419 379.736C324.846 379.736 324.214 379.908 323.526 380.253C322.551 380.712 321.805 381.516 321.174 382.492C320.6 383.525 320.313 384.673 320.313 386.051C320.313 386.798 320.37 387.487 320.542 388.175C320.829 389.438 321.288 390.357 321.805 390.988C322.321 391.62 323.01 391.964 323.698 391.964C324.387 391.964 325.075 391.677 325.764 391.103C326.624 390.414 327.37 389.438 327.886 388.175C328.403 386.97 328.632 385.649 328.632 384.329C328.632 383.812 328.575 383.353 328.518 383.009C328.46 382.951 328.403 382.894 328.403 382.836C328.403 381.86 328.001 381.057 327.427 380.54Z" fill="#69577F" stroke="#69587F" stroke-width="1.0013" stroke-miterlimit="10"/>
<path d="M343.664 379.966C343.779 379.966 343.894 380.023 343.951 380.081C344.009 380.195 344.009 380.253 343.951 380.368C343.664 381.057 343.377 381.746 343.148 382.434C342.918 383.123 342.574 384.099 342.115 385.362L341.943 385.879L341.828 386.223C341.369 387.601 340.968 388.75 340.624 389.668C340.279 390.587 339.935 391.505 339.533 392.309C339.533 392.366 339.476 392.424 339.419 392.424C339.361 392.481 339.304 392.539 339.247 392.539C339.189 392.539 339.074 392.539 339.017 392.539C338.96 392.481 338.902 392.424 338.845 392.366C337.697 388.692 336.206 384.616 334.312 380.081C334.255 379.966 334.255 379.851 334.37 379.794C334.427 379.736 334.542 379.679 334.657 379.679C334.771 379.679 334.886 379.736 334.886 379.851C336.665 384.214 338.099 388.061 339.189 391.505C339.763 390.127 340.451 388.29 341.255 385.936L341.369 385.592C341.771 384.329 342.115 383.238 342.402 382.434C342.689 381.631 343.033 380.827 343.377 380.023C343.435 380.023 343.55 379.966 343.664 379.966Z" fill="#69577F" stroke="#69587F" stroke-width="1.0013" stroke-miterlimit="10"/>
<path d="M350.147 379.449H351.18C351.983 379.449 352.672 379.449 353.36 379.392H353.418C353.475 379.392 353.533 379.392 353.59 379.449C353.647 379.507 353.647 379.564 353.705 379.679C353.705 379.736 353.705 379.851 353.647 379.908C353.59 379.966 353.533 380.023 353.418 380.023C352.901 380.023 352.442 380.081 351.926 380.081H351.18C350.492 380.081 349.861 380.081 349.229 380.138V380.942C349.229 381.401 349.23 382.205 349.172 383.41C349.344 383.41 349.631 383.41 350.147 383.41C350.262 383.41 350.377 383.41 350.434 383.41L352.098 383.468C352.156 383.468 352.27 383.525 352.328 383.583C352.385 383.64 352.385 383.697 352.385 383.812C352.385 383.927 352.328 383.985 352.27 384.042C352.213 384.099 352.156 384.099 352.041 384.099C351.926 384.099 351.639 384.099 351.238 384.099H350.434C350.377 384.099 350.262 384.099 350.147 384.099C349.689 384.099 349.344 384.099 349.172 384.099C349.172 384.444 349.172 384.731 349.172 384.903L349.057 386.855C348.943 389.438 348.943 391.161 348.943 392.079C349.344 392.079 350.09 392.079 351.18 392.022H351.295L353.705 391.964C353.762 391.964 353.877 392.022 353.934 392.079C353.992 392.137 354.049 392.194 354.049 392.309C354.049 392.366 353.992 392.481 353.934 392.539C353.877 392.596 353.819 392.653 353.705 392.653C353.303 392.653 352.5 392.653 351.352 392.711H351.238C350.377 392.711 349.803 392.768 349.574 392.768H348.771C348.771 392.768 348.713 392.768 348.656 392.768C348.598 392.768 348.484 392.711 348.426 392.653C348.369 392.596 348.312 392.539 348.312 392.424C348.312 391.218 348.369 389.381 348.484 386.855L348.541 384.903C348.598 383.583 348.598 382.32 348.598 381.057V380.081C348.598 380.081 348.598 380.023 348.598 379.966V379.908C348.598 379.851 348.656 379.794 348.713 379.736C348.771 379.679 348.828 379.621 348.885 379.621C349.23 379.507 349.689 379.449 350.147 379.449Z" fill="#69577F" stroke="#69587F" stroke-width="1.0013" stroke-miterlimit="10"/>
<path d="M272.119 103.998C272.119 105.95 269.996 106.983 266.553 106.983C263.111 106.983 260.988 105.95 260.988 103.998C260.988 103.022 262.537 101.759 264.086 100.726C265.693 99.635 266.611 98.2571 266.611 98.2571C266.611 98.2571 267.529 99.635 269.078 100.668C270.57 101.702 272.119 103.022 272.119 103.998Z" fill="#69577F" stroke="#FCEBFF" stroke-width="3.0038" stroke-miterlimit="10"/>
<path d="M297.076 154.117V130.636C297.076 129.545 296.158 128.627 295.068 128.627H238.038C236.948 128.627 236.03 129.545 236.03 130.636V154.117" fill="#69577F"/>
<path d="M297.076 154.117V130.636C297.076 129.545 296.158 128.627 295.068 128.627H238.038C236.948 128.627 236.03 129.545 236.03 130.636V154.117" stroke="#FCEBFF" stroke-width="3.0038" stroke-miterlimit="10"/>
<path d="M290.937 128.569V108.706C290.937 107.73 290.134 106.926 289.159 106.926H243.89C242.915 106.926 242.112 107.73 242.112 108.706V128.569" fill="#69577F"/>
<path d="M290.937 128.569V108.706C290.937 107.73 290.134 106.926 289.159 106.926H243.89C242.915 106.926 242.112 107.73 242.112 108.706V128.569" stroke="#FCEBFF" stroke-width="3.0038" stroke-miterlimit="10"/>
<path d="M290.478 180.123C290.478 180.123 290.134 175.129 284.741 175.129C279.29 175.129 277.856 175.301 275.561 174.899C272.864 174.44 269.135 172.201 268.906 166.287C268.676 160.432 268.791 160.202 268.791 160.202C268.791 160.202 274.586 160.03 281.528 160.03C290.364 160.03 301.322 158.135 304.478 154.059H228.572C231.727 158.135 242.686 160.03 251.521 160.03C258.521 160.03 264.258 160.202 264.258 160.202C264.258 160.202 264.373 160.432 264.144 166.287C263.914 172.143 260.127 174.44 257.488 174.899C255.193 175.301 253.759 175.129 248.308 175.129C242.858 175.129 242.571 180.123 242.571 180.123H290.478Z" fill="#69577F" stroke="#FCEBFF" stroke-width="3.0038" stroke-miterlimit="10"/>
<path d="M236.202 131.899C236.202 135.459 239.071 138.329 242.628 138.329C245.439 138.329 247.792 136.549 248.652 134.023C249.628 136.32 251.923 137.985 254.562 137.985C257.258 137.985 259.553 136.32 260.529 133.966C261.447 136.435 263.799 138.157 266.553 138.157C269.364 138.157 271.717 136.377 272.577 133.851C273.553 136.147 275.848 137.812 278.487 137.812C281.184 137.812 283.479 136.147 284.454 133.794C285.372 136.262 287.724 137.985 290.478 137.985C294.035 137.985 296.904 135.114 296.904 131.555" fill="#69577F"/>
<path d="M236.202 131.899C236.202 135.459 239.071 138.329 242.628 138.329C245.439 138.329 247.792 136.549 248.652 134.023C249.628 136.32 251.923 137.985 254.562 137.985C257.258 137.985 259.553 136.32 260.529 133.966C261.447 136.435 263.799 138.157 266.553 138.157C269.364 138.157 271.717 136.377 272.577 133.851C273.553 136.147 275.848 137.812 278.487 137.812C281.184 137.812 283.479 136.147 284.454 133.794C285.372 136.262 287.724 137.985 290.478 137.985C294.035 137.985 296.904 135.114 296.904 131.555" stroke="#FCEBFF" stroke-width="3.0038" stroke-miterlimit="10"/>
<path d="M192.368 251.024C192.368 256.248 190.991 260.611 188.18 264.228C185.426 267.845 181.869 270.773 177.566 272.954C175.672 273.93 173.378 274.677 170.738 275.251C168.099 275.825 165.23 276.284 162.132 276.571C159.034 276.916 155.764 277.088 152.264 277.203C148.821 277.318 145.321 277.318 141.764 277.318C138.494 277.318 135.224 277.26 131.953 277.203C128.683 277.145 125.814 277.088 123.232 277.031C123.347 276.399 123.462 275.825 123.634 275.423C123.806 275.021 123.921 274.447 124.036 273.701C125.929 273.701 128.052 273.758 130.462 273.816C132.814 273.873 135.281 273.93 137.863 273.988C137.92 273.758 138.15 272.667 138.494 270.658C138.838 268.706 139.297 266.123 139.871 262.965C140.445 259.808 141.076 256.191 141.822 252.172C142.568 248.154 143.371 243.905 144.174 239.485C144.977 235.064 145.78 230.586 146.584 226.051C147.387 221.516 148.133 217.21 148.879 213.134C149.567 209.058 150.256 205.326 150.829 201.939C151.403 198.552 151.862 195.853 152.206 193.729L141.936 193.902H140.617C139.412 193.902 138.15 194.016 136.83 194.189C135.511 194.361 134.248 194.648 133.043 195.107C129.83 196.313 127.019 197.863 124.667 199.815C122.314 201.767 120.364 203.948 118.872 206.474C117.38 208.943 116.29 211.584 115.544 214.339C114.798 217.095 114.454 219.908 114.454 222.721C114.454 225.017 114.684 227.256 115.143 229.438C115.602 231.677 116.233 233.686 117.093 235.638C117.954 237.533 119.044 239.312 120.249 240.863C121.511 242.413 122.946 243.676 124.552 244.709L123.806 245.857C119.733 243.446 116.692 240.116 114.569 235.81C112.503 231.505 111.413 226.855 111.413 221.917C111.413 217.784 112.102 213.823 113.421 209.919C114.741 206.072 116.692 202.628 119.274 199.585C121.798 196.542 124.896 194.189 128.568 192.351C132.24 190.572 136.371 189.653 140.961 189.653H163.911C166.435 189.653 169.132 189.998 172.115 190.629C175.099 191.261 177.853 192.409 180.435 193.959C183.016 195.509 185.197 197.518 186.918 200.044C188.639 202.57 189.5 205.613 189.5 209.287C189.5 211.756 189.041 213.995 188.065 216.119C187.09 218.186 185.828 220.08 184.279 221.745C182.672 223.41 180.894 224.903 178.885 226.166C176.877 227.429 174.754 228.519 172.517 229.323C174.697 229.725 176.935 230.414 179.115 231.275C181.295 232.194 183.361 233.399 185.369 235.064C187.893 237.131 189.614 239.6 190.647 242.355C191.737 245.34 192.311 248.154 192.368 251.024ZM145.035 273.988C149.739 273.93 154.444 273.586 159.149 273.012C163.853 272.438 168.042 271.29 171.828 269.682C175.615 268.075 178.656 265.836 180.951 262.908C183.303 260.037 184.451 256.191 184.451 251.483C184.451 244.881 182.385 240.059 178.197 237.016C174.009 233.916 167.812 232.538 159.55 232.825H162.304H159.149C158.173 232.825 157.141 232.825 155.993 232.825C154.846 232.825 153.698 232.768 152.493 232.71C151.575 237.705 150.715 242.642 149.797 247.465C148.879 252.287 148.133 256.593 147.444 260.439C146.756 264.286 146.182 267.386 145.723 269.854C145.322 272.323 145.092 273.701 145.035 273.988ZM179.689 199.642C177.623 197.346 174.927 195.796 171.599 194.935C168.329 194.074 164.198 193.614 159.321 193.614C159.034 195.222 158.69 197.289 158.231 199.757C157.829 202.226 157.37 204.982 156.854 208.024C156.337 211.067 155.764 214.282 155.132 217.726C154.501 221.171 153.87 224.673 153.297 228.29H156.05C158.919 228.29 161.501 228.175 163.739 228.003C166.034 227.831 167.984 227.429 169.648 226.855C173.951 225.305 177.279 222.893 179.631 219.678C181.984 216.463 183.188 213.076 183.188 209.517C183.188 207.852 182.902 206.13 182.328 204.407C181.869 202.685 180.951 201.078 179.689 199.642ZM159.378 193.614C159.55 193.614 159.722 193.614 159.895 193.557C160.067 193.5 160.239 193.5 160.354 193.5H160.87H159.321V193.614H159.378Z" fill="#69577F"/>
<path d="M281.872 241.437C280.782 244.996 279.577 248.268 278.315 251.139C276.995 254.009 275.561 256.363 273.897 258.143C272.807 259.348 271.487 260.21 269.881 260.726C268.274 261.243 266.553 261.645 264.66 261.817C262.767 261.989 260.701 262.047 258.578 262.047C256.398 261.989 254.275 261.989 252.152 261.989C250.144 261.989 248.251 261.932 246.53 261.874C244.808 261.817 243.317 261.702 242.112 261.53C242.227 261.3 242.8 260.669 243.833 259.635C244.866 258.602 246.243 257.339 247.849 255.846C249.513 254.354 251.349 252.631 253.415 250.737C255.48 248.842 257.603 246.833 259.726 244.766C261.906 242.7 263.971 240.633 265.98 238.509C267.988 236.442 269.824 234.433 271.373 232.481C272.979 230.586 274.241 228.864 275.217 227.256C276.192 225.706 276.708 224.443 276.708 223.41H242.915H241.595C241.538 223.64 241.366 224.329 241.079 225.419C240.792 226.51 240.448 227.945 240.046 229.61C239.645 231.333 239.128 233.227 238.612 235.351C238.21 237.016 237.751 238.796 237.178 240.518C236.776 241.724 236.202 243.503 235.456 245.283C234.711 247.063 233.793 248.9 232.76 250.794C231.727 252.689 230.522 254.526 229.145 256.306C227.768 258.085 226.277 259.693 224.67 261.128C223.064 262.563 221.342 263.712 219.449 264.573C217.613 265.434 215.662 265.893 213.597 265.893C210.212 265.893 207.745 264.86 206.31 262.736C204.876 260.611 204.13 257.396 204.13 253.091C204.13 251.828 204.302 246.948 204.761 244.594H224.957C224.957 244.594 225.301 243.503 225.416 243.159C226.047 241.264 226.563 239.37 226.965 237.533C227.309 235.696 227.481 233.973 227.481 232.366C227.481 229.266 226.736 226.74 225.186 224.73C223.637 222.778 221.113 221.745 217.613 221.745C214.457 221.745 211.589 222.549 208.949 224.214C206.368 225.879 204.13 228.06 202.294 230.873C200.458 233.629 199.081 236.844 198.106 240.403C197.13 243.963 196.614 247.694 196.614 251.541C196.614 254.009 196.901 256.248 197.532 258.258C198.163 260.267 199.138 262.047 200.458 263.539C201.778 265.032 203.442 266.18 205.45 266.984C207.458 267.788 209.81 268.189 212.564 268.189C216.007 268.189 219.219 267.271 222.088 265.434C224.957 263.597 227.481 261.3 229.604 258.545C231.784 255.789 233.563 252.746 235.055 249.531C236.317 246.833 237.292 244.25 238.038 241.838C238.096 241.666 238.21 241.322 238.268 241.035C238.325 240.863 238.382 240.633 238.44 240.461C238.899 238.853 239.358 237.246 239.817 235.638C240.391 233.571 240.85 231.734 241.194 230.184C243.431 230.127 245.669 230.07 248.021 230.012C249.972 229.955 252.152 229.897 254.447 229.897C256.8 229.84 258.98 229.84 261.103 229.84C263.226 229.84 265.176 229.84 266.84 229.897C268.504 229.955 269.365 230.07 269.365 230.414C269.365 231.333 268.848 232.423 267.815 233.801C266.783 235.179 265.406 236.729 263.742 238.394C262.078 240.116 260.185 241.896 258.004 243.79C255.882 245.685 253.644 247.637 251.349 249.589C249.054 251.541 246.874 253.435 244.694 255.33C242.513 257.224 240.62 259.004 238.956 260.611C237.292 262.276 235.915 263.712 234.883 265.032C233.85 266.352 233.334 267.386 233.334 268.189H265.004C267.414 268.189 269.537 267.328 271.43 265.663C273.323 263.999 274.987 261.874 276.479 259.234C277.971 256.65 279.29 253.722 280.38 250.565C281.471 247.407 282.446 244.307 283.307 241.264H281.872V241.437ZM206.827 235.868C207.515 233.571 208.318 231.62 209.294 229.897C210.269 228.175 211.302 226.855 212.507 225.879C213.712 224.903 215.031 224.329 216.466 224.214H216.81C218.187 224.214 219.105 224.73 219.621 225.821C220.137 226.912 220.367 228.29 220.367 230.012C220.367 231.907 220.137 234.031 219.678 236.327C219.219 238.624 218.703 240.863 218.015 243.101H205.105C205.564 240.575 206.138 238.164 206.827 235.868Z" fill="#69577F"/>
<path d="M323.927 240.69C322.321 246.718 320.026 251.426 317.1 254.87C314.174 258.258 310.674 259.98 306.6 259.98C304.822 262.563 302.699 264.573 300.232 266.065C297.765 267.558 295.011 268.304 291.913 268.304C289.675 268.304 287.782 267.902 286.175 267.099C284.569 266.295 283.249 265.147 282.159 263.769C281.126 262.334 280.323 260.611 279.807 258.659C279.29 256.708 279.061 254.526 279.061 252.23C279.061 248.326 279.577 244.594 280.553 240.977C281.528 237.361 282.962 234.146 284.741 231.39C286.519 228.634 288.757 226.395 291.339 224.73C293.921 223.066 296.789 222.204 300.06 222.204C302.355 222.204 304.248 222.606 305.912 223.41C307.518 224.214 308.838 225.305 309.928 226.74C310.961 228.118 311.764 229.84 312.28 231.734C312.797 233.686 313.026 235.81 313.026 238.107C313.026 241.494 312.567 244.996 311.707 248.555C310.789 252.115 309.584 255.272 307.92 258.028C309.584 257.971 311.133 257.511 312.625 256.593C314.116 255.674 315.436 254.469 316.641 252.976C317.846 251.426 318.993 249.646 319.969 247.579C320.944 245.513 321.805 243.159 322.55 240.69H323.927ZM293.232 266.008C294.896 265.893 296.445 265.147 297.822 263.712C299.199 262.334 300.404 260.497 301.379 258.2C300.519 257.224 300.117 256.133 300.117 254.813C300.117 254.239 300.289 253.607 300.634 252.976C300.978 252.344 301.494 252.057 302.183 252.057C302.699 252.057 303.101 252.287 303.33 252.746C303.904 250.392 304.42 247.809 304.879 244.996C305.281 242.183 305.51 239.485 305.51 237.073C305.51 233.342 304.994 230.357 304.019 228.06C303.043 225.764 301.437 224.616 299.199 224.616C297.363 224.616 295.642 225.419 294.093 227.027C292.544 228.634 291.224 230.758 290.077 233.457C288.929 236.098 288.069 239.198 287.437 242.642C286.806 246.087 286.519 249.704 286.519 253.378C286.519 257.167 287.036 260.21 288.069 262.506C289.101 264.86 290.65 266.008 292.831 266.008H293.232Z" fill="#69577F"/>
<path d="M423.931 238.853C423.128 241.666 422.038 244.709 420.546 247.924C419.054 251.139 417.218 254.182 415.095 256.937C412.972 259.693 410.448 262.047 407.637 263.826C404.825 265.663 401.612 266.582 398.112 266.582C395.359 266.582 393.006 266.18 390.998 265.376C388.99 264.573 387.326 263.424 386.007 261.932C384.687 260.439 383.712 258.659 383.08 256.65C382.449 254.641 382.162 252.402 382.162 249.933C382.162 247.465 382.449 244.881 382.966 242.068C378.777 240.977 375.966 238.968 374.532 235.983C373.614 239.255 372.581 242.7 371.376 246.316C370.171 249.933 368.737 253.263 367.188 256.248C365.639 259.234 363.975 261.702 362.139 263.712C360.303 265.663 358.409 266.697 356.344 266.697C352.672 266.697 350.033 265.663 348.312 263.654C346.59 261.645 345.73 258.487 345.73 254.239C345.73 253.378 345.787 252.574 345.845 251.656C345.902 250.794 346.017 249.876 346.131 248.842C345.5 250.967 344.697 253.206 343.779 255.502C342.861 257.798 341.771 259.922 340.509 261.874C339.246 263.826 337.812 265.434 336.263 266.697C334.657 267.96 332.878 268.591 330.927 268.591C327.255 268.591 324.616 267.558 322.895 265.549C321.174 263.539 320.313 260.382 320.313 256.248C320.313 254.985 320.37 253.665 320.542 252.23C320.715 250.794 320.887 249.244 321.231 247.579C321.288 247.235 321.403 246.431 321.633 245.226C321.862 244.02 322.092 242.642 322.321 241.035C322.608 239.427 322.895 237.762 323.239 235.925C323.583 234.088 323.87 232.366 324.157 230.701C324.444 229.036 324.731 227.543 324.903 226.166C325.132 224.845 325.247 223.869 325.305 223.238H332.476C332.362 224.156 332.075 225.821 331.73 228.232C331.329 230.644 330.927 233.17 330.468 235.868C330.009 238.509 329.608 240.977 329.149 243.159C328.747 245.398 328.517 246.718 328.46 247.292C327.542 252.459 327.141 256.363 327.141 259.119C327.141 261.817 327.485 263.712 328.288 264.745C329.034 265.836 330.124 266.352 331.558 266.352C332.878 266.352 334.14 265.836 335.345 264.745C336.55 263.654 337.755 262.276 338.845 260.554C339.935 258.832 340.968 256.822 342 254.526C342.976 252.23 343.894 249.933 344.754 247.465C345.615 245.053 346.361 242.642 347.049 240.288C347.68 237.935 348.312 235.753 348.828 233.801C349.23 231.505 349.631 229.323 349.975 227.142C350.32 224.96 350.664 223.123 350.951 221.63H358.123C357.205 226.395 356.459 230.471 355.885 233.801C355.311 237.131 354.795 239.944 354.336 242.183C353.934 244.422 353.59 246.259 353.361 247.694C353.131 249.129 352.959 250.392 352.844 251.426C352.729 252.459 352.672 253.435 352.615 254.239C352.557 255.1 352.557 256.076 352.557 257.224C352.557 259.922 352.902 261.817 353.705 262.85C354.451 263.941 355.483 264.458 356.86 264.458C356.918 264.458 357.147 264.458 357.492 264.4C357.836 264.343 358.065 264.343 358.123 264.343V264.228C359.901 263.826 361.565 262.563 363.114 260.439C364.663 258.315 366.098 255.789 367.417 252.861C368.737 249.933 369.942 246.776 371.032 243.389C372.122 240.001 373.04 236.844 373.786 233.859C373.614 233.17 373.499 232.251 373.499 231.275C373.499 230.471 373.614 229.61 373.786 228.634C374.015 227.658 374.245 226.682 374.532 225.764C374.819 224.845 375.163 223.984 375.45 223.238C375.737 222.491 376.081 221.917 376.31 221.573H376.654H377.917C377.859 221.688 377.572 222.893 377.114 225.132C376.655 227.371 375.966 230.184 375.048 233.629C375.507 235.409 376.425 236.901 377.687 238.107C378.949 239.312 380.785 240.231 383.195 240.863C383.826 237.992 384.744 235.294 385.949 232.768C387.154 230.242 388.531 228.06 390.137 226.223C391.801 224.386 393.695 222.893 395.817 221.803C397.94 220.712 400.35 220.195 402.989 220.195C406.489 220.195 409.014 221.171 410.563 223.18C412.112 225.19 412.858 227.716 412.858 230.873C412.858 232.423 412.686 234.146 412.341 235.983C411.997 237.82 411.538 239.714 410.85 241.551L410.333 242.987H390.998H390.08C390.08 244.537 389.965 246.029 389.793 247.465C389.564 248.9 389.506 250.22 389.506 251.483C389.506 255.789 390.252 259.004 391.687 261.128C393.121 263.252 395.531 264.286 398.973 264.286C400.981 264.286 402.932 263.826 404.768 262.965C406.604 262.104 408.382 260.956 409.989 259.521C411.653 258.085 413.145 256.478 414.464 254.698C415.784 252.919 417.046 251.081 418.079 249.187C419.169 247.292 420.087 245.455 420.833 243.676C421.579 241.896 422.152 240.288 422.497 238.911H423.931V238.853ZM401.727 222.434C400.293 222.549 398.973 223.123 397.768 224.156C396.563 225.19 395.473 226.51 394.555 228.232C393.58 229.955 392.777 231.907 392.088 234.203C391.4 236.499 390.826 238.911 390.424 241.494H403.334C403.965 239.255 404.538 237.016 404.997 234.662C405.456 232.308 405.686 230.184 405.686 228.29C405.686 226.568 405.456 225.132 404.94 224.099C404.424 223.008 403.506 222.491 402.129 222.491H401.727V222.434Z" fill="#69577F"/>
<path d="M231.153 306.884C230.465 309.524 229.547 312.28 228.514 315.151C227.481 318.021 226.276 320.719 225.014 323.188C223.695 325.656 222.26 327.666 220.654 329.273C219.047 330.881 217.326 331.684 215.433 331.684C208.949 331.684 205.679 327.895 205.679 320.26C205.679 319.686 205.794 318.538 206.023 316.701C206.253 314.863 206.54 312.567 206.941 309.869C207.343 307.113 207.859 304.013 208.433 300.454C209.007 296.952 209.695 293.22 210.441 289.316C210.9 287.02 211.187 285.01 211.359 283.231C211.531 281.451 211.589 279.901 211.589 278.581C211.589 276.112 211.244 274.39 210.556 273.356C209.867 272.323 208.892 271.864 207.63 271.864C206.425 271.864 205.278 272.323 204.13 273.299C202.983 274.275 201.95 275.538 200.917 277.088C199.884 278.638 198.966 280.418 198.048 282.484C197.13 284.494 196.327 286.618 195.524 288.742C194.778 290.924 194.032 293.048 193.458 295.229C192.827 297.411 192.311 299.363 191.852 301.2C191.278 304.415 190.59 307.917 189.901 311.649C189.213 315.38 188.524 319.169 187.836 322.958C187.147 326.747 186.459 330.479 185.828 334.096C185.197 337.712 184.565 341.042 184.049 344.085H177.394C177.967 340.698 178.713 336.851 179.459 332.603C180.262 328.355 181.066 323.992 181.869 319.571C182.672 315.151 183.475 310.787 184.221 306.424C184.967 302.119 185.713 298.157 186.344 294.598C186.975 291.038 187.549 288.053 188.008 285.642C188.467 283.231 188.696 281.623 188.811 280.934C188.926 280.36 188.983 279.729 189.041 279.155C189.098 278.581 189.098 277.949 189.098 277.375C189.098 275.308 188.754 273.414 188.123 271.691C187.492 269.969 186.574 268.477 185.426 267.271C184.279 266.065 182.902 265.089 181.295 264.4C179.689 263.712 177.91 263.367 176.017 263.367C174.066 263.367 172 263.712 169.935 264.458C166.952 265.491 164.37 266.926 162.247 268.764C160.124 270.601 158.345 272.667 156.968 274.964C155.591 277.26 154.559 279.729 153.87 282.312C153.239 284.896 152.895 287.537 152.895 290.12C152.895 292.244 153.124 294.311 153.526 296.378C153.928 298.387 154.559 300.281 155.305 302.061C156.108 303.783 157.026 305.391 158.173 306.826C159.321 308.261 160.583 309.41 162.075 310.328L161.444 311.476C159.665 310.443 158.059 309.122 156.624 307.572C155.247 306.022 154.042 304.243 153.124 302.348C152.149 300.396 151.46 298.329 150.944 296.148C150.428 293.966 150.198 291.727 150.198 289.431C150.198 285.757 150.772 282.197 151.977 278.695C153.182 275.193 154.903 272.093 157.198 269.338C159.493 266.582 162.304 264.4 165.575 262.678C168.845 260.956 172.574 260.152 176.705 260.152C179.057 260.152 181.352 260.439 183.533 261.071C185.77 261.702 187.721 262.793 189.385 264.286C191.049 265.778 192.426 267.788 193.458 270.256C194.491 272.725 194.95 275.825 194.95 279.557C194.95 280.705 194.893 281.91 194.835 283.231C194.778 284.494 194.549 285.814 194.319 287.02C194.893 285.183 195.524 283.288 196.385 281.279C197.188 279.27 198.163 277.432 199.311 275.768C200.458 274.103 201.72 272.667 203.097 271.577C204.532 270.428 206.138 269.912 207.917 269.912C211.244 269.912 213.712 270.83 215.261 272.725C216.81 274.619 217.613 277.49 217.613 281.394C217.613 283.633 217.383 286.216 216.867 289.201C216.81 289.374 216.695 290.063 216.523 291.268C216.351 292.474 216.064 293.909 215.777 295.631C215.49 297.354 215.146 299.133 214.859 301.085C214.515 303.037 214.228 304.817 213.941 306.482C213.654 308.147 213.367 310.041 212.966 312.28C212.162 316.873 211.761 320.432 211.761 323.016C211.761 325.542 212.105 327.264 212.794 328.24C213.482 329.216 214.457 329.733 215.777 329.733C217.269 329.733 218.646 329.044 220.023 327.666C221.342 326.288 222.605 324.451 223.809 322.269C224.957 320.088 226.104 317.619 227.08 314.921C228.112 312.223 228.973 309.582 229.719 307.056H231.153V306.884Z" fill="#69577F"/>
<path d="M237.981 290.292C237.235 295.344 236.547 299.65 235.915 303.209C235.342 306.769 234.825 309.869 234.424 312.395C234.022 314.921 233.678 317.045 233.448 318.767C233.219 320.49 233.104 321.867 233.104 323.016C233.104 325.542 233.448 327.264 234.137 328.24C234.825 329.216 235.801 329.733 237.12 329.733C238.612 329.733 239.989 329.044 241.366 327.666C242.686 326.288 243.948 324.508 245.153 322.269C246.3 320.088 247.39 317.619 248.366 314.921C249.341 312.223 250.202 309.524 251.005 306.941H252.382C251.693 309.582 250.775 312.337 249.743 315.265C248.71 318.193 247.505 320.891 246.185 323.303C244.866 325.714 243.374 327.781 241.768 329.388C240.161 331.053 238.44 331.857 236.547 331.857C233.219 331.857 230.752 330.938 229.203 329.044C227.654 327.149 226.85 324.279 226.85 320.49C226.85 318.078 227.137 315.438 227.654 312.51C227.654 312.452 227.711 311.936 227.883 311.017C228.055 310.041 228.227 308.835 228.514 307.4C228.744 305.965 229.031 304.357 229.317 302.635C229.604 300.913 229.891 299.248 230.235 297.583C230.522 295.918 230.809 294.483 230.981 293.163C231.153 291.842 231.326 290.866 231.44 290.292H237.981ZM240.678 274.217C240.448 275.308 240.219 276.571 240.046 278.006C239.817 279.442 239.587 280.992 239.301 282.657H232.76C233.047 280.992 233.276 279.499 233.563 278.006C233.793 276.571 234.022 275.308 234.194 274.217H240.678Z" fill="#69577F"/>
<path d="M288.069 306.539C287.38 309.122 286.29 311.878 284.97 314.806C283.593 317.734 281.93 320.49 279.979 323.073C278.028 325.599 275.733 327.723 273.094 329.388C270.455 331.053 267.586 331.914 264.43 331.914C261.906 331.914 259.726 331.57 257.89 330.823C256.054 330.077 254.562 329.044 253.357 327.666C252.152 326.288 251.292 324.68 250.718 322.843C250.144 321.006 249.857 318.94 249.857 316.701C249.857 313.199 250.316 309.811 251.234 306.539C252.152 303.267 253.415 300.339 255.078 297.813C256.742 295.287 258.75 293.22 261.16 291.727C263.512 290.235 266.152 289.488 269.078 289.488C272.291 289.488 274.586 290.407 276.02 292.187C277.454 293.966 278.086 296.32 278.086 299.133C278.086 300.626 277.913 302.176 277.569 303.841C277.225 305.506 276.823 307.228 276.192 308.95C276.077 309.295 275.676 310.271 275.676 310.271H257.259C256.914 312.452 256.685 316.93 256.685 318.078C256.685 322.04 257.316 324.968 258.636 326.919C259.955 328.871 262.136 329.847 265.291 329.847C267.127 329.847 268.906 329.445 270.627 328.642C272.291 327.838 273.897 326.805 275.389 325.484C276.881 324.164 278.258 322.671 279.463 321.064C280.725 319.399 281.815 317.734 282.79 316.012C283.766 314.289 284.569 312.624 285.257 310.96C285.946 309.295 286.462 307.859 286.749 306.596H288.069V306.539ZM267.758 291.555C266.439 291.67 265.234 292.187 264.144 293.048C263.054 293.966 262.078 295.172 261.218 296.722C260.357 298.272 259.611 300.109 258.98 302.176C258.349 304.243 257.832 306.482 257.488 308.835H269.307C269.881 306.826 270.397 304.759 270.799 302.635C271.201 300.511 271.43 298.617 271.43 296.837C271.43 295.229 271.201 293.966 270.742 292.99C270.283 292.014 269.422 291.498 268.16 291.498H267.758V291.555Z" fill="#69577F"/>
<path d="M326.452 306.654C324.96 312.223 322.895 316.586 320.198 319.628C317.501 322.729 314.346 324.279 310.731 324.279C309.067 326.632 307.117 328.469 304.879 329.847C302.584 331.225 300.06 331.914 297.306 331.914C295.24 331.914 293.576 331.397 292.372 330.421C291.167 329.388 290.249 328.125 289.675 326.518C289.503 327.264 289.388 327.953 289.331 328.584C289.273 329.158 289.159 329.732 289.044 330.134C288.929 330.651 288.872 331.053 288.814 331.455H282.159C284.11 320.777 285.888 311.132 287.495 302.52C288.126 298.846 288.814 295.229 289.445 291.555C290.077 287.938 290.708 284.609 291.224 281.566C291.74 278.581 292.142 275.997 292.486 273.93C292.831 271.864 293.003 270.486 293.06 269.912H299.601C299.601 270.256 299.486 271.117 299.256 272.495C299.027 273.873 298.74 275.653 298.338 277.834C297.937 280.016 297.535 282.427 297.076 285.24C296.617 287.996 296.101 290.866 295.584 293.909C296.675 292.703 297.937 291.67 299.429 290.924C300.92 290.177 302.699 289.775 304.764 289.775C306.83 289.775 308.608 290.12 310.1 290.866C311.592 291.613 312.797 292.589 313.772 293.909C314.747 295.172 315.436 296.722 315.838 298.502C316.297 300.281 316.469 302.176 316.469 304.243C316.469 307.343 316.067 310.558 315.264 313.83C314.461 317.102 313.313 320.03 311.821 322.556C313.37 322.499 314.805 322.04 316.182 321.178C317.559 320.317 318.764 319.169 319.911 317.791C321.059 316.356 322.034 314.691 322.895 312.797C323.755 310.902 324.558 308.835 325.19 306.654H326.452ZM298.453 329.79C300.002 329.675 301.379 328.986 302.584 327.723C303.789 326.46 304.879 324.738 305.797 322.671C305.051 321.81 304.65 320.777 304.65 319.571C304.65 319.054 304.822 318.538 305.109 317.906C305.395 317.332 305.912 316.988 306.543 316.988C307.117 316.988 307.518 317.275 307.633 317.791C308.207 315.552 308.723 313.141 309.067 310.5C309.412 307.859 309.584 305.448 309.584 303.267C309.584 299.88 309.125 297.124 308.207 295C307.289 292.876 305.854 291.842 303.904 291.842C302.183 291.842 300.633 292.589 299.199 294.081C297.765 295.574 296.502 297.526 295.47 299.88C294.437 302.291 293.634 305.104 293.06 308.261C292.486 311.419 292.199 314.691 292.199 318.021C292.199 321.466 292.658 324.279 293.576 326.46C294.494 328.642 295.986 329.733 297.994 329.733H298.453V329.79ZM307.404 318.423C307.404 318.365 307.404 318.308 307.461 318.308C307.461 318.308 307.518 318.251 307.518 318.193C307.518 318.251 307.518 318.308 307.461 318.308C307.404 318.365 307.404 318.365 307.404 318.423Z" fill="#69577F"/>
<path d="M364.778 306.654C363.286 312.165 361.221 316.471 358.524 319.628C355.828 322.729 352.672 324.279 348.943 324.279C347.279 326.632 345.385 328.469 343.148 329.847C340.91 331.225 338.386 331.914 335.517 331.914C333.509 331.914 331.73 331.57 330.296 330.823C328.804 330.077 327.599 329.044 326.624 327.781C325.649 326.518 324.96 324.91 324.501 323.13C324.042 321.351 323.813 319.341 323.813 317.217C323.813 313.658 324.272 310.271 325.19 306.941C326.108 303.611 327.37 300.741 329.034 298.157C330.698 295.631 332.706 293.564 335.058 292.072C337.41 290.522 340.05 289.775 343.033 289.775C345.099 289.775 346.877 290.12 348.369 290.866C349.861 291.613 351.066 292.589 352.041 293.909C353.016 295.172 353.705 296.722 354.164 298.502C354.623 300.281 354.852 302.233 354.852 304.357C354.852 307.458 354.451 310.673 353.647 313.945C352.844 317.217 351.697 320.088 350.205 322.614C351.754 322.556 353.188 322.097 354.508 321.293C355.828 320.49 357.09 319.341 358.18 317.964C359.327 316.586 360.303 314.921 361.221 313.026C362.139 311.132 362.885 309.008 363.573 306.711H364.778V306.654ZM336.779 329.79C338.328 329.675 339.705 328.986 340.968 327.723C342.23 326.46 343.32 324.738 344.238 322.671C343.492 321.81 343.09 320.777 343.09 319.571C343.09 318.997 343.263 318.48 343.549 317.906C343.836 317.332 344.353 317.045 344.984 317.045C345.5 317.045 345.844 317.275 346.074 317.677C346.648 315.552 347.107 313.199 347.451 310.558C347.853 307.974 348.025 305.563 348.025 303.324C348.025 299.937 347.566 297.181 346.648 295.057C345.73 292.933 344.295 291.9 342.287 291.9C340.566 291.9 339.017 292.646 337.64 294.139C336.206 295.631 335.001 297.583 333.968 299.994C332.935 302.406 332.132 305.219 331.558 308.376C330.985 311.534 330.698 314.806 330.698 318.193C330.698 321.638 331.157 324.451 332.075 326.575C332.993 328.699 334.427 329.79 336.435 329.79H336.779Z" fill="#69577F"/>
<path d="M267.471 445.757C374.415 445.757 461.109 359.009 461.109 252C461.109 144.991 374.415 58.2427 267.471 58.2427C160.528 58.2427 73.8333 144.991 73.8333 252C73.8333 359.009 160.528 445.757 267.471 445.757Z" stroke="#69577F" stroke-width="2.0025" stroke-miterlimit="10"/>
</g>
<defs>
<filter id="filter0_d" x="0" y="0" width="527" height="516" filterUnits="userSpaceOnUse" color-interpolation-filters="sRGB">
<feFlood flood-opacity="0" result="BackgroundImageFix"/>
<feColorMatrix in="SourceAlpha" type="matrix" values="0 0 0 0 0 0 0 0 0 0 0 0 0 0 0 0 0 0 127 0"/>
<feOffset dx="-4" dy="6"/>
<feGaussianBlur stdDeviation="6"/>
<feColorMatrix type="matrix" values="0 0 0 0 0.411765 0 0 0 0 0.341176 0 0 0 0 0.498039 0 0 0 0.2 0"/>
<feBlend mode="normal" in2="BackgroundImageFix" result="effect1_dropShadow"/>
<feBlend mode="normal" in="SourceGraphic" in2="effect1_dropShadow" result="shape"/>
</filter>
</defs>
</svg>
