<svg width="389" height="681" viewBox="0 0 389 681" fill="none" xmlns="http://www.w3.org/2000/svg">
<g filter="url(#filter0_d)">
<path d="M345.951 606.201C285 673.181 150.534 680.729 80.0273 628.218C46.3548 603.076 24.4324 564.276 20.9734 523.837C16.0565 464.483 48.8756 407.591 49.469 348.123C49.867 307.695 35.2461 268.656 25.3098 229.241C5.16366 149.756 24.4354 63.2185 109.675 26.8299C147.192 10.772 189.904 7.51063 230.802 12.0687C284.506 17.9697 341.464 41.3563 363.5 88.112C379.103 121.155 374.442 159.222 368.411 194.938C355.366 271.974 337.496 350.821 354.897 427.037C364.005 466.841 382.619 506.414 375.61 546.561C371.407 569.892 360.877 589.945 345.951 606.201Z" fill="#F9E9F4"/>
</g>
<g clip-path="url(#clip0)" filter="url(#filter1_d)">
<path d="M198.001 251.74C185.883 251.74 184.563 246.028 184.563 243.565C184.563 241.075 186.772 238.476 191.726 235.092C194.5 233.197 196.196 230.734 196.196 230.707L198.001 228L199.778 230.734C199.778 230.761 201.421 233.197 204.14 235.038C209.176 238.449 211.411 241.075 211.411 243.592C211.438 246.028 210.118 251.74 198.001 251.74ZM198.001 235.336C197.058 236.364 195.766 237.583 194.15 238.665C189.141 242.076 188.872 243.565 188.872 243.565C188.872 247.111 195.846 247.382 198.001 247.382C200.128 247.382 207.102 247.111 207.129 243.538C207.102 243.43 206.698 241.914 201.771 238.557C200.182 237.556 198.916 236.337 198.001 235.336Z" fill="#64587D"/>
<path d="M261.686 345.211H257.377V297.596C257.377 296.567 256.542 295.728 255.519 295.728H140.482C139.458 295.728 138.624 296.567 138.624 297.596V345.211H134.315V297.596C134.315 294.185 137.089 291.397 140.482 291.397H255.546C258.939 291.397 261.712 294.185 261.712 297.596V345.211H261.686Z" fill="#64587D"/>
<path d="M249.38 293.4H245.071V253.175C245.071 252.39 244.425 251.74 243.644 251.74H152.357C151.576 251.74 150.93 252.39 150.93 253.175V293.4H146.622V253.175C146.622 249.981 149.207 247.409 152.357 247.409H243.644C246.821 247.409 249.38 250.008 249.38 253.175V293.4Z" fill="#64587D"/>
<path d="M248.625 400H147.375L147.537 397.699C147.564 397.374 147.806 394.559 149.557 391.663C151.253 388.901 154.673 385.599 161.297 385.599C164.233 385.599 166.629 385.626 168.541 385.653C173.792 385.707 176.189 385.734 179.393 385.193C181.251 384.868 190.568 382.621 191.053 369.817C191.268 364.268 191.322 361.263 191.322 359.639C187.364 359.558 178.154 359.396 167.679 359.396C158.147 359.396 147.995 358.313 139.782 356.391C129.738 354.063 122.979 350.733 119.693 346.483L117 342.964H279L276.281 346.456C272.996 350.679 266.237 354.009 256.192 356.364C247.979 358.286 237.827 359.369 228.295 359.369C217.82 359.369 208.61 359.531 204.652 359.612C204.652 361.236 204.733 364.241 204.921 369.79C205.406 382.594 214.723 384.841 216.581 385.166C219.758 385.707 222.155 385.68 227.433 385.626C229.345 385.599 231.742 385.572 234.677 385.572C241.328 385.572 244.748 388.874 246.417 391.635C248.195 394.532 248.41 397.347 248.437 397.672L248.625 400ZM152.357 395.669H243.617C243.401 395.073 243.105 394.424 242.701 393.801C241.059 391.229 238.366 389.93 234.704 389.93C231.795 389.93 229.399 389.957 227.487 389.984C221.967 390.038 219.435 390.065 215.881 389.443C213.753 389.064 209.633 387.9 206.106 384.218C202.713 380.672 200.855 375.881 200.639 369.98C200.155 357.501 200.37 357.122 200.639 356.553L201.205 355.389L202.497 355.362C202.605 355.362 214.346 355.064 228.295 355.064C243.051 355.064 259.989 352.412 268.66 347.323H127.341C135.985 352.412 152.95 355.064 167.706 355.064C181.655 355.064 193.396 355.362 193.503 355.362L194.796 355.389L195.362 356.553C195.631 357.095 195.846 357.501 195.362 369.98C195.146 375.881 193.288 380.672 189.895 384.218C186.368 387.9 182.274 389.064 180.12 389.443C176.539 390.065 174.034 390.038 168.514 389.984C166.602 389.957 164.206 389.93 161.297 389.93C155.481 389.903 153.219 393.287 152.357 395.669Z" fill="#64587D"/>
<path d="M149.745 315.326C141.424 315.326 134.638 308.532 134.638 300.14H138.947C138.947 306.123 143.794 310.995 149.745 310.995C154.296 310.995 158.389 308.072 159.897 303.741L161.755 298.435L163.909 303.605C165.606 307.639 169.51 310.264 173.873 310.264C178.289 310.264 182.221 307.584 183.863 303.47L185.937 298.245L187.875 303.524C189.437 307.774 193.503 310.616 197.974 310.616C202.524 310.616 206.617 307.693 208.125 303.362L209.984 298.056L212.138 303.226C213.834 307.26 217.739 309.885 222.101 309.885C226.517 309.885 230.449 307.205 232.092 303.091L234.165 297.866L236.104 303.145C237.666 307.395 241.732 310.237 246.202 310.237C252.153 310.237 257 305.365 257 299.382H261.309C261.309 307.747 254.55 314.568 246.202 314.568C241.328 314.568 236.804 312.159 234.003 308.315C231.203 311.997 226.841 314.216 222.047 314.216C217.362 314.216 213.053 312.051 210.226 308.505C207.452 312.457 202.874 314.92 197.92 314.92C193.046 314.92 188.522 312.511 185.721 308.667C182.921 312.349 178.558 314.568 173.765 314.568C169.08 314.568 164.771 312.403 161.944 308.857C159.278 312.863 154.7 315.326 149.745 315.326Z" fill="#64587D"/>
</g>
<defs>
<filter id="filter0_d" x="0.496582" y="0.640625" width="388.226" height="679.606" filterUnits="userSpaceOnUse" color-interpolation-filters="sRGB">
<feFlood flood-opacity="0" result="BackgroundImageFix"/>
<feColorMatrix in="SourceAlpha" type="matrix" values="0 0 0 0 0 0 0 0 0 0 0 0 0 0 0 0 0 0 127 0"/>
<feOffset dx="-3" dy="4"/>
<feGaussianBlur stdDeviation="6.5"/>
<feColorMatrix type="matrix" values="0 0 0 0 0.411765 0 0 0 0 0.341176 0 0 0 0 0.498039 0 0 0 0.2 0"/>
<feBlend mode="multiply" in2="BackgroundImageFix" result="effect1_dropShadow"/>
<feBlend mode="normal" in="SourceGraphic" in2="effect1_dropShadow" result="shape"/>
</filter>
<filter id="filter1_d" x="113" y="227" width="170" height="180" filterUnits="userSpaceOnUse" color-interpolation-filters="sRGB">
<feFlood flood-opacity="0" result="BackgroundImageFix"/>
<feColorMatrix in="SourceAlpha" type="matrix" values="0 0 0 0 0 0 0 0 0 0 0 0 0 0 0 0 0 0 127 0"/>
<feOffset dy="3"/>
<feGaussianBlur stdDeviation="2"/>
<feColorMatrix type="matrix" values="0 0 0 0 0.392157 0 0 0 0 0.345098 0 0 0 0 0.490196 0 0 0 0.2 0"/>
<feBlend mode="multiply" in2="BackgroundImageFix" result="effect1_dropShadow"/>
<feBlend mode="normal" in="SourceGraphic" in2="effect1_dropShadow" result="shape"/>
</filter>
<clipPath id="clip0">
<rect width="162" height="172" fill="white" transform="translate(117 228)"/>
</clipPath>
</defs>
</svg>
