<svg width="412" height="672" viewBox="0 0 412 672" fill="none" xmlns="http://www.w3.org/2000/svg">
<g filter="url(#filter0_d)">
<path d="M295.58 18.5773C318.013 25.2572 353.659 35.6965 375.462 68.2715C392.878 94.2212 393.345 121.773 392.706 150.836C390.621 247.943 378.831 274.769 376.874 329.725C372.945 444.321 419.285 471.185 390.405 546.446C385.13 560.068 370.694 596.252 333.835 622.726C302.221 645.497 270.25 649.67 249.994 651.95C232.356 653.963 162.079 662.015 104.222 617.347C67.9413 589.274 54.1355 553.968 39.7871 515.905C13.4133 445.986 15.5187 387.587 19.2053 307.428C23.4834 213.908 26.2455 166.118 57.5299 115.658C69.4347 96.4094 97.1167 52.8266 153.119 27.6504C161.672 23.6815 223.189 -2.85553 295.58 18.5773Z" fill="#F9E9F4"/>
</g>
<g filter="url(#filter1_d)">
<g clip-path="url(#clip0)">
<path d="M127.839 310.147H289" stroke="#64587D" stroke-width="5" stroke-miterlimit="10"/>
<path d="M283.36 379.25H133.479C130.381 379.25 127.839 376.708 127.839 373.61V281.95C127.839 278.852 130.381 276.31 133.479 276.31H283.36C286.458 276.31 289 278.852 289 281.95V373.61C289 376.708 286.458 379.25 283.36 379.25Z" stroke="#64587D" stroke-width="5" stroke-miterlimit="10"/>
<path d="M224.901 276.31H190.35V379.25H224.901V276.31Z" stroke="#64587D" stroke-width="5" stroke-miterlimit="10"/>
<path d="M234.115 321.902C234.591 323.968 237.054 325.794 237.054 328.018C237.054 330.242 234.591 332.069 234.115 334.134C233.638 336.279 235.068 338.98 234.115 340.886C233.162 342.792 230.143 343.428 228.793 345.096C227.443 346.764 227.522 349.861 225.854 351.212C224.186 352.562 221.168 351.768 219.262 352.721C217.355 353.674 216.085 356.454 213.94 356.93C211.875 357.407 209.492 355.421 207.347 355.421C205.203 355.421 202.82 357.407 200.755 356.93C198.61 356.454 197.339 353.594 195.433 352.721C193.527 351.768 190.509 352.562 188.841 351.212C187.173 349.861 187.252 346.764 185.902 345.096C184.551 343.428 181.533 342.792 180.58 340.886C179.627 338.98 181.057 336.2 180.58 334.134C180.103 332.069 177.641 330.242 177.641 328.018C177.641 325.874 180.103 323.968 180.58 321.902C181.057 319.758 179.627 317.057 180.58 315.151C181.533 313.245 184.551 312.609 185.902 310.941C187.252 309.273 187.173 306.176 188.841 304.825C190.509 303.475 193.527 304.269 195.433 303.316C197.339 302.363 198.61 299.583 200.755 299.106C202.82 298.63 205.203 300.616 207.347 300.616C209.571 300.616 211.954 298.63 213.94 299.106C216.085 299.583 217.355 302.442 219.262 303.316C221.168 304.269 224.186 303.475 225.854 304.825C227.522 306.176 227.443 309.273 228.793 310.941C230.143 312.609 233.162 313.245 234.115 315.151C235.068 317.057 233.638 319.837 234.115 321.902Z" fill="#F9E9F4"/>
<path d="M237.054 328.018C237.054 330.242 234.591 332.069 234.115 334.134C233.638 336.279 235.068 338.98 234.115 340.886C233.162 342.792 230.143 343.428 228.793 345.096C227.443 346.764 227.522 349.861 225.854 351.212C224.186 352.562 221.168 351.768 219.262 352.721C217.355 353.674 216.085 356.454 213.94 356.93C211.875 357.407 209.492 355.421 207.347 355.421C205.203 355.421 202.82 357.407 200.755 356.93C198.61 356.454 197.339 353.594 195.433 352.721C193.527 351.768 190.509 352.562 188.841 351.212C187.173 349.861 187.252 346.764 185.902 345.096C184.551 343.428 181.533 342.792 180.58 340.886C179.627 338.98 181.057 336.2 180.58 334.134C180.103 332.069 177.641 330.242 177.641 328.018C177.641 325.874 180.103 323.968 180.58 321.902C181.057 319.758 179.627 317.057 180.58 315.151C181.533 313.245 184.551 312.609 185.902 310.941C187.252 309.273 187.173 306.176 188.841 304.825C190.509 303.475 193.527 304.269 195.433 303.316C197.339 302.363 198.61 299.583 200.755 299.106C202.82 298.63 205.203 300.616 207.347 300.616C209.571 300.616 211.954 298.63 213.94 299.106C216.085 299.583 217.355 302.442 219.262 303.316C221.168 304.269 224.186 303.475 225.854 304.825C227.522 306.176 227.443 309.273 228.793 310.941C230.143 312.609 233.162 313.245 234.115 315.151C235.068 317.057 233.638 319.837 234.115 321.902C234.591 323.968 237.054 325.874 237.054 328.018Z" stroke="#64587D" stroke-width="5" stroke-miterlimit="10"/>
<path d="M190.27 329.289C190.27 327.145 190.27 325 190.27 322.855C190.27 322.617 190.35 322.379 190.35 322.141C190.509 321.029 191.462 320.393 192.177 319.678C194.639 317.295 197.578 315.786 200.914 314.992C201.073 314.913 201.152 314.833 201.231 314.674C201.708 313.245 202.661 312.45 204.011 312.133C204.17 312.053 204.25 311.974 204.25 311.815C204.25 311.18 204.329 310.624 204.567 309.988C204.965 309.114 205.6 308.558 206.474 308.32C206.95 308.161 207.506 308.161 207.983 308.082C208.301 308.082 208.539 308.32 208.539 308.558C208.539 308.876 208.301 309.035 207.983 309.035C207.665 309.035 207.347 309.035 207.03 309.114C205.997 309.353 205.362 310.068 205.203 311.1C205.203 311.338 205.123 311.656 205.203 311.815C205.282 311.974 205.6 311.974 205.838 312.053C206.871 312.371 207.665 313.086 208.142 314.118C208.221 314.277 208.301 314.357 208.539 314.357C208.857 314.357 209.174 314.436 209.492 314.436C210.127 314.515 210.683 314.833 211.16 315.31C213.543 317.613 215.926 319.917 218.309 322.22C220.135 323.967 221.883 325.635 223.71 327.383C223.948 327.621 224.107 327.859 224.107 328.257C224.107 329.369 224.107 330.401 224.107 331.513C224.107 334.77 224.107 338.026 224.107 341.283C224.107 341.759 224.027 342.157 223.63 342.474C223.313 342.713 222.995 342.792 222.677 342.713C217.753 341.759 212.828 340.886 207.824 339.933C204.17 339.297 200.596 338.582 196.942 337.947C195.036 337.629 193.13 337.232 191.223 336.914C190.509 336.755 190.191 336.358 190.191 335.643C190.27 333.658 190.27 331.434 190.27 329.289ZM191.223 330.957C191.223 331.116 191.223 331.195 191.223 331.275C191.223 332.784 191.223 334.214 191.223 335.723C191.223 336.12 191.223 336.12 191.621 336.199C193.447 336.517 195.195 336.835 197.022 337.232C200.437 337.867 203.773 338.503 207.189 339.138C210.207 339.694 213.305 340.25 216.323 340.806C218.547 341.203 220.691 341.601 222.915 341.998C223.233 342.077 223.313 341.998 223.313 341.68C223.313 340.171 223.313 338.741 223.313 337.232C223.313 337.073 223.233 336.994 223.154 336.994C222.915 336.994 222.677 336.914 222.439 336.835C219.262 336.199 216.164 335.643 212.987 335.008C210.127 334.452 207.347 333.896 204.488 333.419C202.343 333.022 200.278 332.625 198.134 332.228C196.545 331.91 194.957 331.672 193.447 331.354C192.574 331.195 191.938 331.116 191.223 330.957ZM191.779 321.585C201.946 323.57 212.034 325.477 222.121 327.462L222.201 327.383C222.121 327.303 222.042 327.303 221.962 327.224C219.818 325.159 217.753 323.094 215.608 321.108C213.94 319.519 212.272 317.931 210.683 316.342C210.127 315.786 209.413 315.627 208.698 315.627C208.777 318.01 207.03 319.44 205.362 319.599C203.694 319.758 201.47 318.646 201.231 316.025C197.419 316.898 194.321 318.725 191.779 321.585ZM223.233 331.672C223.233 331.593 223.233 331.513 223.233 331.434C223.233 330.639 223.233 329.845 223.233 329.051C223.233 328.813 223.154 328.654 222.915 328.654C221.168 328.336 219.421 328.018 217.753 327.621C213.463 326.827 209.095 325.953 204.806 325.159C200.437 324.285 196.069 323.491 191.7 322.617C191.303 322.538 191.223 322.617 191.223 323.014C191.223 323.809 191.223 324.603 191.223 325.397C191.223 325.635 191.303 325.715 191.462 325.715C194.242 326.271 197.022 326.747 199.881 327.303C203.694 328.018 207.586 328.813 211.398 329.527C214.734 330.163 217.991 330.798 221.327 331.434C221.962 331.434 222.598 331.513 223.233 331.672ZM223.233 335.167C223.233 335.087 223.233 335.008 223.233 334.929C223.233 334.293 223.233 333.578 223.233 332.943C223.233 332.705 223.074 332.625 222.915 332.625C220.85 332.228 218.785 331.831 216.72 331.434C213.146 330.719 209.571 330.083 205.997 329.369C201.708 328.574 197.419 327.701 193.13 326.906C192.494 326.747 191.859 326.668 191.223 326.509C191.223 326.589 191.223 326.668 191.223 326.747C191.223 327.383 191.223 328.098 191.223 328.733C191.223 328.971 191.303 328.971 191.462 329.051C194.321 329.607 197.181 330.163 200.119 330.719C205.044 331.672 210.048 332.625 214.973 333.578C217.276 334.055 219.579 334.452 221.883 334.849C222.28 335.008 222.757 335.087 223.233 335.167ZM207.03 314.118C206.95 314.198 206.95 314.357 207.03 314.436C207.189 315.548 206.712 316.501 205.759 317.057C205.6 317.137 205.521 317.295 205.362 317.137C205.441 317.057 205.521 316.898 205.679 316.819C206.235 316.501 206.633 316.025 206.791 315.389C206.95 314.833 206.871 314.277 206.712 313.801C206.712 313.642 206.553 313.562 206.474 313.483C205.521 312.848 204.567 312.768 203.614 313.324C202.582 313.88 202.105 314.754 202.105 315.866C202.185 317.216 203.217 318.328 204.488 318.487C205.838 318.646 207.109 317.851 207.506 316.501C207.745 315.707 207.586 314.833 207.03 314.118ZM191.223 329.289C191.223 329.448 191.223 329.527 191.223 329.607C191.223 329.845 191.303 329.925 191.541 330.004C196.625 330.957 201.629 331.91 206.712 332.863C209.095 333.34 211.478 333.817 213.94 334.214C216.561 334.69 219.262 335.246 221.883 335.723C222.359 335.802 222.757 335.882 223.233 335.961C223.233 335.723 223.233 335.485 223.233 335.326C212.59 333.34 201.946 331.354 191.223 329.289Z" fill="#64587D" stroke="#64587D" stroke-width="2" stroke-miterlimit="10"/>
</g>
<g clip-path="url(#clip1)">
<path d="M209.45 267.156H152.183C152.183 267.156 140.796 268.869 139.935 259.813C139.074 250.757 139.803 240.599 152.183 236.438C164.563 232.277 209.45 267.156 209.45 267.156Z" stroke="#64587D" stroke-width="5" stroke-miterlimit="10"/>
<path d="M204.684 267.155H261.951C261.951 267.155 273.338 268.869 274.199 259.812C275.06 250.756 274.331 240.598 261.951 236.437C249.571 232.276 204.684 267.155 204.684 267.155Z" stroke="#64587D" stroke-width="5" stroke-miterlimit="10"/>
</g>
</g>
<defs>
<filter id="filter0_d" x="0.195557" y="0.640625" width="411.219" height="670.719" filterUnits="userSpaceOnUse" color-interpolation-filters="sRGB">
<feFlood flood-opacity="0" result="BackgroundImageFix"/>
<feColorMatrix in="SourceAlpha" type="matrix" values="0 0 0 0 0 0 0 0 0 0 0 0 0 0 0 0 0 0 127 0"/>
<feOffset dx="-3" dy="4"/>
<feGaussianBlur stdDeviation="6.5"/>
<feColorMatrix type="matrix" values="0 0 0 0 0.411765 0 0 0 0 0.341176 0 0 0 0 0.498039 0 0 0 0.2 0"/>
<feBlend mode="multiply" in2="BackgroundImageFix" result="effect1_dropShadow"/>
<feBlend mode="normal" in="SourceGraphic" in2="effect1_dropShadow" result="shape"/>
</filter>
<filter id="filter1_d" x="121.457" y="233.54" width="173.926" height="155.093" filterUnits="userSpaceOnUse" color-interpolation-filters="sRGB">
<feFlood flood-opacity="0" result="BackgroundImageFix"/>
<feColorMatrix in="SourceAlpha" type="matrix" values="0 0 0 0 0 0 0 0 0 0 0 0 0 0 0 0 0 0 127 0"/>
<feOffset dy="3"/>
<feGaussianBlur stdDeviation="2"/>
<feColorMatrix type="matrix" values="0 0 0 0 0.392157 0 0 0 0 0.345098 0 0 0 0 0.490196 0 0 0 0.2 0"/>
<feBlend mode="multiply" in2="BackgroundImageFix" result="effect1_dropShadow"/>
<feBlend mode="normal" in="SourceGraphic" in2="effect1_dropShadow" result="shape"/>
</filter>
<clipPath id="clip0">
<rect width="165.926" height="137.173" fill="white" transform="translate(125.457 244.46)"/>
</clipPath>
<clipPath id="clip1">
<rect width="137.971" height="34.2674" fill="white" transform="translate(138.082 234.54)"/>
</clipPath>
</defs>
</svg>
