<svg width="44" height="42" viewBox="0 0 44 42" fill="none" xmlns="http://www.w3.org/2000/svg">
<path d="M8.4714 39.0507C8.6068 38.2041 8.79636 36.866 8.98592 35.5006C9.31087 33.1248 9.60874 30.7217 9.9337 28.3459C10.0691 27.2535 9.82537 26.3797 8.95883 25.5331C6.57583 23.2119 4.27407 20.7542 1.97231 18.3511C1.62028 17.9961 1.29532 17.6137 1.0516 17.2041C0.320453 16.0572 0.780811 15.0195 2.10771 14.801C5.08646 14.3095 8.06521 13.8725 11.044 13.381C11.9376 13.2444 12.8041 13.026 13.6707 12.7802C14.7268 12.4798 15.3496 11.7971 15.837 10.7321C16.7848 8.65666 17.9763 6.66316 19.0324 4.64236C19.6282 3.52272 20.1427 2.34847 20.7926 1.28345C21.1175 0.764591 21.6862 0.245736 22.2278 0.109195C22.5798 0.02727 23.2839 0.546126 23.5005 0.983057C24.7191 3.1404 25.8023 5.35237 26.9938 7.53702C27.8062 9.03897 28.5644 10.5955 29.5664 11.961C29.9726 12.5344 30.9474 12.8348 31.7056 12.9714C35.0635 13.5994 38.4484 14.1183 41.8063 14.7464C42.5104 14.8829 43.404 15.1014 43.756 15.6202C44.3518 16.4668 43.6477 17.1495 42.9978 17.8049C40.669 20.1261 38.4484 22.5838 36.0654 24.8504C34.7115 26.1612 34.0886 27.472 34.4678 29.4109C35.1177 32.7425 35.578 36.1287 36.0654 39.4876C36.1467 40.0338 36.0384 40.7165 35.7405 41.1534C35.5239 41.4811 34.7386 41.8361 34.4407 41.6996C32.518 40.8257 30.6766 39.8153 28.781 38.8868C26.9126 37.931 25.0441 36.9206 23.1214 36.0741C22.5798 35.8283 21.7133 35.8829 21.1717 36.156C17.8138 37.7399 14.456 39.4057 11.1523 41.0988C8.98592 42.2457 8.39016 41.9454 8.4714 39.0507ZM22.6611 4.36927C22.0383 4.91544 21.4425 5.21583 21.1988 5.68007C20.1698 7.59164 19.3303 9.58514 18.2742 11.4694C17.6243 12.6437 16.9202 14.2275 15.8641 14.6645C13.8331 15.511 11.5043 15.6749 9.31086 16.1118C8.25476 16.303 7.1445 16.303 6.11548 16.6033C5.05937 16.9037 4.84274 17.723 5.49265 18.4057C7.22574 20.1534 9.01299 21.9011 10.719 23.7035C11.6126 24.6593 12.8312 25.4785 12.6417 27.0897C12.4521 28.8101 12.2896 30.5305 12.0459 32.2236C11.8293 33.6983 11.4231 35.1456 11.2606 36.6203C11.1252 37.7945 11.6126 38.1495 12.5875 37.658C15.2413 36.3745 17.868 34.9271 20.5489 33.7256C21.4154 33.3433 22.6069 33.2613 23.5005 33.5344C24.7733 33.8894 25.9106 34.6814 27.1021 35.3095C28.754 36.1287 30.3787 37.0026 32.0306 37.7672C32.2201 37.8491 32.843 37.5487 32.9242 37.3303C33.0867 36.8933 33.0596 36.3472 33.0054 35.8556C32.6263 33.1248 32.2743 30.3667 31.841 27.6359C31.6786 26.5981 31.8681 25.7789 32.6263 25.0416C34.7656 22.8842 36.8237 20.6723 38.9629 18.5422C39.6399 17.8595 39.5045 17.3407 38.8546 16.8764C38.5026 16.6307 38.0422 16.4668 37.609 16.3849C34.9552 15.9206 32.3014 15.4018 29.6476 15.0468C28.2124 14.8556 27.5354 13.9818 26.9667 12.8621C25.5586 10.104 24.1505 7.34587 22.6611 4.36927Z" fill="#69577F"/>
</svg>
