<svg width="408" height="674" viewBox="0 0 408 674" fill="none" xmlns="http://www.w3.org/2000/svg">
<g filter="url(#filter0_d)">
<path d="M119.408 17.4495C117.892 17.8581 116.375 18.2668 114.721 18.675C84.5277 27.2618 54.8625 43.4264 38.1144 69.9613C12.0929 111.07 20.8754 167.574 24.5938 213.318C27.7829 251.897 35.3816 289.939 36.5041 328.65C37.1231 351.657 37.048 376.451 31.1954 398.611C11.8267 471.698 3.48458 542.614 60.1952 602.018C105.234 649.265 176.54 665.322 238.988 649.532C270.144 641.637 299.257 625.746 322.741 603.915C347.744 580.711 360.516 547.966 372.457 516.733C399.254 446.975 397.502 388.563 394.302 308.383C390.59 214.84 388.118 167.033 357.278 116.386C331.646 74.2945 296.759 40.7156 249.84 23.2169C208.286 7.8008 162.145 6.14574 119.408 17.4495Z" fill="#F9E9F4"/>
</g>
<defs>
<filter id="filter0_d" x="0.122803" y="0.640625" width="407.043" height="672.392" filterUnits="userSpaceOnUse" color-interpolation-filters="sRGB">
<feFlood flood-opacity="0" result="BackgroundImageFix"/>
<feColorMatrix in="SourceAlpha" type="matrix" values="0 0 0 0 0 0 0 0 0 0 0 0 0 0 0 0 0 0 127 0"/>
<feOffset dx="-3" dy="4"/>
<feGaussianBlur stdDeviation="6.5"/>
<feColorMatrix type="matrix" values="0 0 0 0 0.411765 0 0 0 0 0.341176 0 0 0 0 0.498039 0 0 0 0.2 0"/>
<feBlend mode="multiply" in2="BackgroundImageFix" result="effect1_dropShadow"/>
<feBlend mode="normal" in="SourceGraphic" in2="effect1_dropShadow" result="shape"/>
</filter>
</defs>
</svg>
